M48
; DRILL file {KiCad (6.0.9)} date Sat Nov 26 14:01:24 2022
; FORMAT={-:-/ absolute / inch / decimal}
; #@! TF.CreationDate,2022-11-26T14:01:24+01:00
; #@! TF.GenerationSoftware,Kicad,Pcbnew,(6.0.9)
; #@! TF.FileFunction,Plated,1,2,PTH
FMAT,2
INCH
; #@! TA.AperFunction,Plated,PTH,ViaDrill
T1C0.0157
; #@! TA.AperFunction,Plated,PTH,ComponentDrill
T2C0.0394
%
G90
G05
T1
X3.248Y-1.9685
X3.3465Y-1.8701
X3.3465Y-3.3465
X3.3465Y-3.5433
X3.3465Y-3.7402
X3.3465Y-3.937
X3.4252Y-2.2638
X3.4252Y-2.3622
X3.4252Y-2.4606
X3.4252Y-2.5591
X3.4252Y-2.6575
X3.4252Y-2.7559
X3.4449Y-1.7717
X3.4449Y-2.1654
X3.4449Y-2.9528
X3.4449Y-3.0512
X3.4449Y-3.1496
X3.4961Y-2.1102
X3.5433Y-1.6732
X3.5433Y-2.0669
X3.5433Y-3.1496
X3.5433Y-3.3465
X3.5433Y-3.5433
X3.5433Y-3.7402
X3.5433Y-3.937
X3.622Y-2.8346
X3.622Y-2.874
X3.6417Y-2.0551
X3.6417Y-2.2638
X3.6417Y-2.3622
X3.6614Y-2.8346
X3.6614Y-2.874
X3.7008Y-2.8346
X3.7008Y-2.874
X3.7402Y-2.0551
X3.7402Y-2.2638
X3.7402Y-3.1299
X3.7402Y-3.3465
X3.7402Y-3.5433
X3.7402Y-3.7402
X3.7402Y-3.937
X3.75Y-3.25
X3.7992Y-2.7362
X3.7992Y-2.815
X3.7992Y-2.8937
X3.7992Y-2.9724
X3.7992Y-3.0315
X3.8335Y-2.4803
X3.8335Y-2.5591
X3.8335Y-2.6378
X3.8386Y-1.9685
X3.8386Y-2.0551
X3.8386Y-2.2638
X3.8386Y-2.3622
X3.937Y-2.2638
X3.937Y-3.5433
X3.937Y-3.7402
X3.937Y-3.937
X4.0354Y-2.2638
X4.0354Y-3.248
X4.1339Y-2.0551
X4.1339Y-2.2638
X4.1339Y-2.3622
X4.1339Y-2.4606
X4.1339Y-2.5591
X4.1339Y-2.6575
X4.1339Y-2.7559
X4.1339Y-2.8543
X4.1339Y-2.9528
X4.1339Y-3.3465
X4.1339Y-3.937
X4.1959Y-2.7781
X4.1959Y-2.8119
X4.2323Y-3.0512
X4.2323Y-3.248
X4.2362Y-2.0551
X4.252Y-3.189
X4.252Y-3.4449
X4.252Y-3.5433
X4.2913Y-3.189
X4.3307Y-1.6732
X4.3307Y-1.8701
X4.3307Y-1.9685
X4.3307Y-2.0551
X4.3307Y-2.9528
X4.3307Y-3.1496
X4.3307Y-3.248
X4.3307Y-3.3465
X4.3307Y-3.4449
X4.3307Y-3.5433
X4.3307Y-3.937
X4.4291Y-3.1496
X4.4291Y-3.3465
X4.5177Y-2.8248
X4.5177Y-2.8642
X4.5276Y-1.6732
X4.5276Y-1.9685
X4.5276Y-2.0669
X4.5276Y-2.1654
X4.5276Y-2.2638
X4.5276Y-2.3622
X4.5276Y-2.4409
X4.5276Y-3.189
X4.5276Y-3.3465
X4.5276Y-3.4449
X4.5276Y-3.5433
X4.5276Y-3.937
X4.5571Y-2.8248
X4.5571Y-2.8642
X4.5965Y-2.8248
X4.5965Y-2.8642
X4.6063Y-3.189
X4.626Y-1.9685
X4.626Y-2.1654
X4.626Y-3.3465
X4.685Y-2.7165
X4.685Y-2.7953
X4.685Y-2.874
X4.685Y-2.9528
X4.685Y-3.189
X4.7244Y-1.6732
X4.7244Y-1.7953
X4.7244Y-1.9685
X4.7244Y-2.1654
X4.7244Y-3.3465
X4.7244Y-3.4449
X4.7244Y-3.5433
X4.7244Y-3.937
X4.7339Y-2.4764
X4.7339Y-2.5551
X4.7339Y-2.6339
X4.7638Y-3.189
X4.8228Y-1.9685
X4.8228Y-2.1654
X4.8425Y-1.6929
X4.8425Y-1.7913
X4.9016Y-1.6929
X4.9016Y-1.7913
X4.9213Y-1.9685
X4.9213Y-2.1654
X4.9213Y-3.937
X5.0197Y-1.6732
X5.0197Y-2.1654
X5.0197Y-3.248
X5.0197Y-3.3465
X5.0197Y-3.4449
X5.0197Y-3.5433
X5.0736Y-1.9736
X5.1181Y-1.6732
X5.1181Y-1.7717
X5.1181Y-1.8701
X5.1181Y-2.1654
X5.1181Y-3.937
X5.2Y-2.18
X5.2165Y-1.9685
X5.2165Y-2.9528
X5.2165Y-3.0512
X5.2165Y-3.1496
X5.2165Y-3.248
X5.2165Y-3.3465
X5.2165Y-3.4449
X5.2165Y-3.5433
X5.2165Y-3.6417
X5.22Y-2.2584
X5.22Y-2.3569
X5.22Y-2.4553
X5.22Y-2.5537
X5.22Y-2.6521
X5.22Y-2.7506
X5.22Y-2.849
X5.2362Y-3.8583
X5.2756Y-1.6929
X5.2756Y-1.7913
X5.315Y-1.9685
X5.315Y-2.1654
X5.315Y-2.3622
X5.315Y-2.5591
X5.315Y-2.7559
X5.315Y-2.9528
X5.315Y-3.1496
X5.315Y-3.3465
X5.315Y-3.5433
X5.315Y-3.937
X5.3346Y-1.6929
X5.3346Y-1.7913
X5.374Y-3.7303
X5.4331Y-2.0177
X5.5118Y-1.6732
X5.5118Y-1.9685
X5.5118Y-2.1654
X5.5118Y-2.3622
X5.5118Y-2.5591
X5.5118Y-2.7559
X5.5118Y-2.9528
X5.5118Y-3.1496
X5.5118Y-3.3465
X5.5118Y-3.5433
X5.5118Y-3.7402
X5.5118Y-3.937
X5.6102Y-1.7717
X5.7087Y-1.8701
X5.7087Y-1.9685
X5.7087Y-2.1654
X5.7087Y-2.3622
X5.7087Y-2.5591
X5.7087Y-2.7559
X5.7087Y-2.9528
X5.7087Y-3.1496
X5.7087Y-3.3465
X5.7087Y-3.5433
X5.7087Y-3.7402
X5.7087Y-3.937
T2
X3.6467Y-1.7799
X3.7467Y-1.7799
X3.8467Y-1.7799
X3.9467Y-1.7799
X4.0467Y-1.7799
X4.0768Y-3.6368
X4.0768Y-3.7368
X4.1467Y-1.7799
X4.1768Y-3.6368
X4.1768Y-3.7368
X4.2768Y-3.6368
X4.2768Y-3.7368
X4.3768Y-3.6368
X4.3768Y-3.7368
X4.4177Y-1.5748
X4.4768Y-3.6368
X4.4768Y-3.7368
X4.5177Y-1.5748
X4.5768Y-3.6368
X4.5768Y-3.7368
X4.6768Y-3.6368
X4.6768Y-3.7368
X4.7768Y-3.6368
X4.7768Y-3.7368
X4.8622Y-1.5748
X4.8768Y-3.6368
X4.8768Y-3.7368
X4.9622Y-1.5748
X4.9768Y-3.6368
X4.9768Y-3.7368
X5.2953Y-1.5748
X5.3953Y-1.5748
T0
M30
