%TF.GenerationSoftware,KiCad,Pcbnew,(6.0.9)*%
%TF.CreationDate,2022-11-26T14:01:21+01:00*%
%TF.ProjectId,PWR_PCB,5057525f-5043-4422-9e6b-696361645f70,rev?*%
%TF.SameCoordinates,Original*%
%TF.FileFunction,Paste,Top*%
%TF.FilePolarity,Positive*%
%FSLAX46Y46*%
G04 Gerber Fmt 4.6, Leading zero omitted, Abs format (unit mm)*
G04 Created by KiCad (PCBNEW (6.0.9)) date 2022-11-26 14:01:21*
%MOMM*%
%LPD*%
G01*
G04 APERTURE LIST*
G04 Aperture macros list*
%AMRoundRect*
0 Rectangle with rounded corners*
0 $1 Rounding radius*
0 $2 $3 $4 $5 $6 $7 $8 $9 X,Y pos of 4 corners*
0 Add a 4 corners polygon primitive as box body*
4,1,4,$2,$3,$4,$5,$6,$7,$8,$9,$2,$3,0*
0 Add four circle primitives for the rounded corners*
1,1,$1+$1,$2,$3*
1,1,$1+$1,$4,$5*
1,1,$1+$1,$6,$7*
1,1,$1+$1,$8,$9*
0 Add four rect primitives between the rounded corners*
20,1,$1+$1,$2,$3,$4,$5,0*
20,1,$1+$1,$4,$5,$6,$7,0*
20,1,$1+$1,$6,$7,$8,$9,0*
20,1,$1+$1,$8,$9,$2,$3,0*%
G04 Aperture macros list end*
%ADD10RoundRect,0.140000X0.170000X-0.140000X0.170000X0.140000X-0.170000X0.140000X-0.170000X-0.140000X0*%
%ADD11RoundRect,0.250000X0.250000X0.475000X-0.250000X0.475000X-0.250000X-0.475000X0.250000X-0.475000X0*%
%ADD12RoundRect,0.250000X-0.250000X-0.475000X0.250000X-0.475000X0.250000X0.475000X-0.250000X0.475000X0*%
%ADD13RoundRect,0.150000X-0.150000X0.512500X-0.150000X-0.512500X0.150000X-0.512500X0.150000X0.512500X0*%
%ADD14RoundRect,0.242500X0.382500X-0.242500X0.382500X0.242500X-0.382500X0.242500X-0.382500X-0.242500X0*%
%ADD15RoundRect,0.150000X0.150000X-0.650000X0.150000X0.650000X-0.150000X0.650000X-0.150000X-0.650000X0*%
%ADD16R,0.300000X0.750000*%
%ADD17R,0.300000X0.830000*%
%ADD18R,0.635000X0.510000*%
%ADD19RoundRect,0.135000X0.185000X-0.135000X0.185000X0.135000X-0.185000X0.135000X-0.185000X-0.135000X0*%
%ADD20RoundRect,0.225000X-0.250000X0.225000X-0.250000X-0.225000X0.250000X-0.225000X0.250000X0.225000X0*%
%ADD21RoundRect,0.200000X-0.200000X-0.275000X0.200000X-0.275000X0.200000X0.275000X-0.200000X0.275000X0*%
%ADD22RoundRect,0.325000X0.975000X-0.325000X0.975000X0.325000X-0.975000X0.325000X-0.975000X-0.325000X0*%
%ADD23RoundRect,0.625000X0.625000X1.125000X-0.625000X1.125000X-0.625000X-1.125000X0.625000X-1.125000X0*%
%ADD24R,0.600000X0.800000*%
%ADD25R,0.350000X0.300000*%
%ADD26R,0.870000X0.235000*%
%ADD27RoundRect,0.140000X-0.170000X0.140000X-0.170000X-0.140000X0.170000X-0.140000X0.170000X0.140000X0*%
%ADD28RoundRect,0.140000X0.140000X0.170000X-0.140000X0.170000X-0.140000X-0.170000X0.140000X-0.170000X0*%
%ADD29RoundRect,0.200000X0.200000X0.275000X-0.200000X0.275000X-0.200000X-0.275000X0.200000X-0.275000X0*%
G04 APERTURE END LIST*
D10*
%TO.C,C23*%
X115240000Y-67580000D03*
X115240000Y-66620000D03*
%TD*%
D11*
%TO.C,C14*%
X99820000Y-72250000D03*
X97920000Y-72250000D03*
%TD*%
D12*
%TO.C,C26*%
X124090000Y-72100000D03*
X125990000Y-72100000D03*
%TD*%
D11*
%TO.C,C27*%
X122590000Y-72100000D03*
X120690000Y-72100000D03*
%TD*%
D13*
%TO.C,U3*%
X127890000Y-76262500D03*
X126940000Y-76262500D03*
X125990000Y-76262500D03*
X125990000Y-78537500D03*
X127890000Y-78537500D03*
%TD*%
D11*
%TO.C,C4*%
X88820000Y-73530000D03*
X86920000Y-73530000D03*
%TD*%
D14*
%TO.C,U2*%
X93585000Y-73170000D03*
X92035000Y-73170000D03*
X93585000Y-71970000D03*
X92035000Y-71970000D03*
D15*
X90905000Y-75220000D03*
X92175000Y-75220000D03*
X93445000Y-75220000D03*
X94715000Y-75220000D03*
X94715000Y-69920000D03*
X93445000Y-69920000D03*
X92175000Y-69920000D03*
X90905000Y-69920000D03*
%TD*%
D16*
%TO.C,Q1*%
X135755000Y-44090000D03*
D17*
X135755000Y-47200000D03*
X133805000Y-47200000D03*
X134455000Y-47200000D03*
D16*
X133805000Y-44090000D03*
X135105000Y-44090000D03*
D18*
X135406000Y-45020000D03*
X135406000Y-45880000D03*
D17*
X135105000Y-47200000D03*
D18*
X134154000Y-45020000D03*
D16*
X134455000Y-44090000D03*
D18*
X134154000Y-45880000D03*
%TD*%
D10*
%TO.C,C3*%
X106600000Y-80900000D03*
X106600000Y-79940000D03*
%TD*%
D17*
%TO.C,Q2*%
X124549000Y-47370000D03*
X122599000Y-47370000D03*
D16*
X123899000Y-44260000D03*
D18*
X124200000Y-45190000D03*
D16*
X122599000Y-44260000D03*
D17*
X123899000Y-47370000D03*
D18*
X122948000Y-45190000D03*
X124200000Y-46050000D03*
D16*
X123249000Y-44260000D03*
X124549000Y-44260000D03*
D18*
X122948000Y-46050000D03*
D17*
X123249000Y-47370000D03*
%TD*%
D10*
%TO.C,C22*%
X113792000Y-67586800D03*
X113792000Y-66626800D03*
%TD*%
D19*
%TO.C,R6*%
X121240000Y-76910000D03*
X121240000Y-75890000D03*
%TD*%
D11*
%TO.C,C1*%
X88820000Y-71500000D03*
X86920000Y-71500000D03*
%TD*%
%TO.C,C30*%
X122590000Y-70100000D03*
X120690000Y-70100000D03*
%TD*%
D19*
%TO.C,R5*%
X113640000Y-77610000D03*
X113640000Y-76590000D03*
%TD*%
%TO.C,R7*%
X121240000Y-79020000D03*
X121240000Y-78000000D03*
%TD*%
D13*
%TO.C,U1*%
X105320000Y-78612500D03*
X104370000Y-78612500D03*
X103420000Y-78612500D03*
X103420000Y-80887500D03*
X105320000Y-80887500D03*
%TD*%
D12*
%TO.C,C10*%
X101420000Y-72250000D03*
X103320000Y-72250000D03*
%TD*%
%TO.C,C29*%
X124090000Y-74100000D03*
X125990000Y-74100000D03*
%TD*%
D10*
%TO.C,C7*%
X92120000Y-67980000D03*
X92120000Y-67020000D03*
%TD*%
D20*
%TO.C,C18*%
X116540000Y-76925000D03*
X116540000Y-78475000D03*
%TD*%
D12*
%TO.C,C25*%
X120690000Y-74100000D03*
X122590000Y-74100000D03*
%TD*%
%TO.C,C13*%
X97920000Y-70250000D03*
X99820000Y-70250000D03*
%TD*%
D19*
%TO.C,R10*%
X126500000Y-47760000D03*
X126500000Y-46740000D03*
%TD*%
D21*
%TO.C,R12*%
X106575000Y-67580000D03*
X108225000Y-67580000D03*
%TD*%
D12*
%TO.C,C11*%
X101400000Y-70250000D03*
X103300000Y-70250000D03*
%TD*%
D22*
%TO.C,R4*%
X100520000Y-78350000D03*
X100520000Y-80150000D03*
%TD*%
D11*
%TO.C,C12*%
X99870000Y-76250000D03*
X97970000Y-76250000D03*
%TD*%
D20*
%TO.C,C2*%
X93620000Y-77500000D03*
X93620000Y-79050000D03*
%TD*%
D22*
%TO.C,R8*%
X123440000Y-76200000D03*
X123440000Y-78000000D03*
%TD*%
D11*
%TO.C,C9*%
X103320000Y-76250000D03*
X101420000Y-76250000D03*
%TD*%
%TO.C,C20*%
X112202000Y-73100000D03*
X110302000Y-73100000D03*
%TD*%
%TO.C,C15*%
X99820000Y-74250000D03*
X97920000Y-74250000D03*
%TD*%
D19*
%TO.C,R9*%
X137500000Y-47510000D03*
X137500000Y-46490000D03*
%TD*%
D23*
%TO.C,L2*%
X117040000Y-64900000D03*
X123440000Y-64900000D03*
%TD*%
D24*
%TO.C,Q3*%
X112550000Y-43075000D03*
X111850000Y-43075000D03*
D25*
X111275000Y-44050000D03*
D26*
X112240000Y-44050000D03*
D25*
X113125000Y-44050000D03*
%TD*%
D27*
%TO.C,C21*%
X118040000Y-76620000D03*
X118040000Y-77580000D03*
%TD*%
D14*
%TO.C,U4*%
X115065000Y-71700000D03*
X116615000Y-71700000D03*
X116615000Y-72900000D03*
X115065000Y-72900000D03*
D15*
X113935000Y-74950000D03*
X115205000Y-74950000D03*
X116475000Y-74950000D03*
X117745000Y-74950000D03*
X117745000Y-69650000D03*
X116475000Y-69650000D03*
X115205000Y-69650000D03*
X113935000Y-69650000D03*
%TD*%
D28*
%TO.C,C19*%
X128200000Y-80100000D03*
X127240000Y-80100000D03*
%TD*%
D23*
%TO.C,L1*%
X94170000Y-65000000D03*
X100570000Y-65000000D03*
%TD*%
D10*
%TO.C,C8*%
X96870000Y-79230000D03*
X96870000Y-78270000D03*
%TD*%
%TO.C,C6*%
X90620000Y-67980000D03*
X90620000Y-67020000D03*
%TD*%
D29*
%TO.C,R11*%
X108225000Y-69100000D03*
X106575000Y-69100000D03*
%TD*%
D11*
%TO.C,C17*%
X112190000Y-71100000D03*
X110290000Y-71100000D03*
%TD*%
D12*
%TO.C,C16*%
X101420000Y-74250000D03*
X103320000Y-74250000D03*
%TD*%
D19*
%TO.C,R3*%
X97870000Y-81260000D03*
X97870000Y-80240000D03*
%TD*%
D12*
%TO.C,C28*%
X124090000Y-70100000D03*
X125990000Y-70100000D03*
%TD*%
D19*
%TO.C,R2*%
X97870000Y-79260000D03*
X97870000Y-78240000D03*
%TD*%
%TO.C,R1*%
X90620000Y-78010000D03*
X90620000Y-76990000D03*
%TD*%
D10*
%TO.C,C24*%
X120140000Y-76880000D03*
X120140000Y-75920000D03*
%TD*%
D27*
%TO.C,C5*%
X95120000Y-77020000D03*
X95120000Y-77980000D03*
%TD*%
M02*
