%TF.GenerationSoftware,KiCad,Pcbnew,(6.0.9)*%
%TF.CreationDate,2022-11-26T14:01:21+01:00*%
%TF.ProjectId,PWR_PCB,5057525f-5043-4422-9e6b-696361645f70,rev?*%
%TF.SameCoordinates,Original*%
%TF.FileFunction,Legend,Top*%
%TF.FilePolarity,Positive*%
%FSLAX46Y46*%
G04 Gerber Fmt 4.6, Leading zero omitted, Abs format (unit mm)*
G04 Created by KiCad (PCBNEW (6.0.9)) date 2022-11-26 14:01:21*
%MOMM*%
%LPD*%
G01*
G04 APERTURE LIST*
%ADD10C,0.150000*%
%ADD11C,0.120000*%
G04 APERTURE END LIST*
D10*
X122571428Y-37428571D02*
X122714285Y-37476190D01*
X122761904Y-37523809D01*
X122809523Y-37619047D01*
X122809523Y-37761904D01*
X122761904Y-37857142D01*
X122714285Y-37904761D01*
X122619047Y-37952380D01*
X122238095Y-37952380D01*
X122238095Y-36952380D01*
X122571428Y-36952380D01*
X122666666Y-37000000D01*
X122714285Y-37047619D01*
X122761904Y-37142857D01*
X122761904Y-37238095D01*
X122714285Y-37333333D01*
X122666666Y-37380952D01*
X122571428Y-37428571D01*
X122238095Y-37428571D01*
X123238095Y-36952380D02*
X123238095Y-37761904D01*
X123285714Y-37857142D01*
X123333333Y-37904761D01*
X123428571Y-37952380D01*
X123619047Y-37952380D01*
X123714285Y-37904761D01*
X123761904Y-37857142D01*
X123809523Y-37761904D01*
X123809523Y-36952380D01*
X124857142Y-37952380D02*
X124523809Y-37476190D01*
X124285714Y-37952380D02*
X124285714Y-36952380D01*
X124666666Y-36952380D01*
X124761904Y-37000000D01*
X124809523Y-37047619D01*
X124857142Y-37142857D01*
X124857142Y-37285714D01*
X124809523Y-37380952D01*
X124761904Y-37428571D01*
X124666666Y-37476190D01*
X124285714Y-37476190D01*
X125285714Y-37952380D02*
X125285714Y-36952380D01*
X125857142Y-37952380D01*
X125857142Y-36952380D01*
X126333333Y-37428571D02*
X126666666Y-37428571D01*
X126809523Y-37952380D02*
X126333333Y-37952380D01*
X126333333Y-36952380D01*
X126809523Y-36952380D01*
X127809523Y-37952380D02*
X127476190Y-37476190D01*
X127238095Y-37952380D02*
X127238095Y-36952380D01*
X127619047Y-36952380D01*
X127714285Y-37000000D01*
X127761904Y-37047619D01*
X127809523Y-37142857D01*
X127809523Y-37285714D01*
X127761904Y-37380952D01*
X127714285Y-37428571D01*
X127619047Y-37476190D01*
X127238095Y-37476190D01*
X99928571Y-52117142D02*
X99976190Y-51974285D01*
X100023809Y-51926666D01*
X100119047Y-51879047D01*
X100261904Y-51879047D01*
X100357142Y-51926666D01*
X100404761Y-51974285D01*
X100452380Y-52069523D01*
X100452380Y-52450476D01*
X99452380Y-52450476D01*
X99452380Y-52117142D01*
X99500000Y-52021904D01*
X99547619Y-51974285D01*
X99642857Y-51926666D01*
X99738095Y-51926666D01*
X99833333Y-51974285D01*
X99880952Y-52021904D01*
X99928571Y-52117142D01*
X99928571Y-52450476D01*
X99452380Y-51450476D02*
X100261904Y-51450476D01*
X100357142Y-51402857D01*
X100404761Y-51355238D01*
X100452380Y-51260000D01*
X100452380Y-51069523D01*
X100404761Y-50974285D01*
X100357142Y-50926666D01*
X100261904Y-50879047D01*
X99452380Y-50879047D01*
X99452380Y-50498095D02*
X99452380Y-49831428D01*
X100452380Y-50498095D01*
X100452380Y-49831428D01*
X99452380Y-49545714D02*
X99452380Y-48879047D01*
X100452380Y-49545714D01*
X100452380Y-48879047D01*
X99928571Y-48498095D02*
X99928571Y-48164761D01*
X100452380Y-48021904D02*
X100452380Y-48498095D01*
X99452380Y-48498095D01*
X99452380Y-48021904D01*
X100452380Y-47021904D02*
X99976190Y-47355238D01*
X100452380Y-47593333D02*
X99452380Y-47593333D01*
X99452380Y-47212380D01*
X99500000Y-47117142D01*
X99547619Y-47069523D01*
X99642857Y-47021904D01*
X99785714Y-47021904D01*
X99880952Y-47069523D01*
X99928571Y-47117142D01*
X99976190Y-47212380D01*
X99976190Y-47593333D01*
X110702380Y-89654761D02*
X111702380Y-89321428D01*
X110702380Y-88988095D01*
X110702380Y-88464285D02*
X110702380Y-88273809D01*
X110750000Y-88178571D01*
X110845238Y-88083333D01*
X111035714Y-88035714D01*
X111369047Y-88035714D01*
X111559523Y-88083333D01*
X111654761Y-88178571D01*
X111702380Y-88273809D01*
X111702380Y-88464285D01*
X111654761Y-88559523D01*
X111559523Y-88654761D01*
X111369047Y-88702380D01*
X111035714Y-88702380D01*
X110845238Y-88654761D01*
X110750000Y-88559523D01*
X110702380Y-88464285D01*
X111702380Y-87130952D02*
X111702380Y-87607142D01*
X110702380Y-87607142D01*
X110702380Y-86940476D02*
X110702380Y-86369047D01*
X111702380Y-86654761D02*
X110702380Y-86654761D01*
X111797619Y-86273809D02*
X111797619Y-85511904D01*
X111654761Y-85321428D02*
X111702380Y-85178571D01*
X111702380Y-84940476D01*
X111654761Y-84845238D01*
X111607142Y-84797619D01*
X111511904Y-84750000D01*
X111416666Y-84750000D01*
X111321428Y-84797619D01*
X111273809Y-84845238D01*
X111226190Y-84940476D01*
X111178571Y-85130952D01*
X111130952Y-85226190D01*
X111083333Y-85273809D01*
X110988095Y-85321428D01*
X110892857Y-85321428D01*
X110797619Y-85273809D01*
X110750000Y-85226190D01*
X110702380Y-85130952D01*
X110702380Y-84892857D01*
X110750000Y-84750000D01*
X111178571Y-84321428D02*
X111178571Y-83988095D01*
X111702380Y-83845238D02*
X111702380Y-84321428D01*
X110702380Y-84321428D01*
X110702380Y-83845238D01*
X111702380Y-83416666D02*
X110702380Y-83416666D01*
X111702380Y-82845238D01*
X110702380Y-82845238D01*
X111654761Y-82416666D02*
X111702380Y-82273809D01*
X111702380Y-82035714D01*
X111654761Y-81940476D01*
X111607142Y-81892857D01*
X111511904Y-81845238D01*
X111416666Y-81845238D01*
X111321428Y-81892857D01*
X111273809Y-81940476D01*
X111226190Y-82035714D01*
X111178571Y-82226190D01*
X111130952Y-82321428D01*
X111083333Y-82369047D01*
X110988095Y-82416666D01*
X110892857Y-82416666D01*
X110797619Y-82369047D01*
X110750000Y-82321428D01*
X110702380Y-82226190D01*
X110702380Y-81988095D01*
X110750000Y-81845238D01*
X111178571Y-81416666D02*
X111178571Y-81083333D01*
X111702380Y-80940476D02*
X111702380Y-81416666D01*
X110702380Y-81416666D01*
X110702380Y-80940476D01*
X94995714Y-48358095D02*
X95662380Y-48358095D01*
X94614761Y-48596190D02*
X95329047Y-48834285D01*
X95329047Y-48215238D01*
X94662380Y-47977142D02*
X95662380Y-47643809D01*
X94662380Y-47310476D01*
X116607142Y-88976190D02*
X116654761Y-89023809D01*
X116702380Y-89166666D01*
X116702380Y-89261904D01*
X116654761Y-89404761D01*
X116559523Y-89500000D01*
X116464285Y-89547619D01*
X116273809Y-89595238D01*
X116130952Y-89595238D01*
X115940476Y-89547619D01*
X115845238Y-89500000D01*
X115750000Y-89404761D01*
X115702380Y-89261904D01*
X115702380Y-89166666D01*
X115750000Y-89023809D01*
X115797619Y-88976190D01*
X115702380Y-88547619D02*
X116511904Y-88547619D01*
X116607142Y-88500000D01*
X116654761Y-88452380D01*
X116702380Y-88357142D01*
X116702380Y-88166666D01*
X116654761Y-88071428D01*
X116607142Y-88023809D01*
X116511904Y-87976190D01*
X115702380Y-87976190D01*
X116702380Y-86928571D02*
X116226190Y-87261904D01*
X116702380Y-87500000D02*
X115702380Y-87500000D01*
X115702380Y-87119047D01*
X115750000Y-87023809D01*
X115797619Y-86976190D01*
X115892857Y-86928571D01*
X116035714Y-86928571D01*
X116130952Y-86976190D01*
X116178571Y-87023809D01*
X116226190Y-87119047D01*
X116226190Y-87500000D01*
X116702380Y-85928571D02*
X116226190Y-86261904D01*
X116702380Y-86500000D02*
X115702380Y-86500000D01*
X115702380Y-86119047D01*
X115750000Y-86023809D01*
X115797619Y-85976190D01*
X115892857Y-85928571D01*
X116035714Y-85928571D01*
X116130952Y-85976190D01*
X116178571Y-86023809D01*
X116226190Y-86119047D01*
X116226190Y-86500000D01*
X116797619Y-85738095D02*
X116797619Y-84976190D01*
X115702380Y-84833333D02*
X115702380Y-84214285D01*
X116083333Y-84547619D01*
X116083333Y-84404761D01*
X116130952Y-84309523D01*
X116178571Y-84261904D01*
X116273809Y-84214285D01*
X116511904Y-84214285D01*
X116607142Y-84261904D01*
X116654761Y-84309523D01*
X116702380Y-84404761D01*
X116702380Y-84690476D01*
X116654761Y-84785714D01*
X116607142Y-84833333D01*
X115702380Y-83928571D02*
X116702380Y-83595238D01*
X115702380Y-83261904D01*
X115702380Y-83023809D02*
X115702380Y-82404761D01*
X116083333Y-82738095D01*
X116083333Y-82595238D01*
X116130952Y-82500000D01*
X116178571Y-82452380D01*
X116273809Y-82404761D01*
X116511904Y-82404761D01*
X116607142Y-82452380D01*
X116654761Y-82500000D01*
X116702380Y-82595238D01*
X116702380Y-82880952D01*
X116654761Y-82976190D01*
X116607142Y-83023809D01*
X102568571Y-52308571D02*
X102616190Y-52165714D01*
X102663809Y-52118095D01*
X102759047Y-52070476D01*
X102901904Y-52070476D01*
X102997142Y-52118095D01*
X103044761Y-52165714D01*
X103092380Y-52260952D01*
X103092380Y-52641904D01*
X102092380Y-52641904D01*
X102092380Y-52308571D01*
X102140000Y-52213333D01*
X102187619Y-52165714D01*
X102282857Y-52118095D01*
X102378095Y-52118095D01*
X102473333Y-52165714D01*
X102520952Y-52213333D01*
X102568571Y-52308571D01*
X102568571Y-52641904D01*
X102092380Y-51641904D02*
X102901904Y-51641904D01*
X102997142Y-51594285D01*
X103044761Y-51546666D01*
X103092380Y-51451428D01*
X103092380Y-51260952D01*
X103044761Y-51165714D01*
X102997142Y-51118095D01*
X102901904Y-51070476D01*
X102092380Y-51070476D01*
X103092380Y-50022857D02*
X102616190Y-50356190D01*
X103092380Y-50594285D02*
X102092380Y-50594285D01*
X102092380Y-50213333D01*
X102140000Y-50118095D01*
X102187619Y-50070476D01*
X102282857Y-50022857D01*
X102425714Y-50022857D01*
X102520952Y-50070476D01*
X102568571Y-50118095D01*
X102616190Y-50213333D01*
X102616190Y-50594285D01*
X103092380Y-49594285D02*
X102092380Y-49594285D01*
X103092380Y-49022857D01*
X102092380Y-49022857D01*
X102568571Y-48546666D02*
X102568571Y-48213333D01*
X103092380Y-48070476D02*
X103092380Y-48546666D01*
X102092380Y-48546666D01*
X102092380Y-48070476D01*
X103092380Y-47070476D02*
X102616190Y-47403809D01*
X103092380Y-47641904D02*
X102092380Y-47641904D01*
X102092380Y-47260952D01*
X102140000Y-47165714D01*
X102187619Y-47118095D01*
X102282857Y-47070476D01*
X102425714Y-47070476D01*
X102520952Y-47118095D01*
X102568571Y-47165714D01*
X102616190Y-47260952D01*
X102616190Y-47641904D01*
X114500000Y-47561904D02*
X114452380Y-47657142D01*
X114452380Y-47800000D01*
X114500000Y-47942857D01*
X114595238Y-48038095D01*
X114690476Y-48085714D01*
X114880952Y-48133333D01*
X115023809Y-48133333D01*
X115214285Y-48085714D01*
X115309523Y-48038095D01*
X115404761Y-47942857D01*
X115452380Y-47800000D01*
X115452380Y-47704761D01*
X115404761Y-47561904D01*
X115357142Y-47514285D01*
X115023809Y-47514285D01*
X115023809Y-47704761D01*
X115452380Y-47085714D02*
X114452380Y-47085714D01*
X115452380Y-46514285D01*
X114452380Y-46514285D01*
X115452380Y-46038095D02*
X114452380Y-46038095D01*
X114452380Y-45800000D01*
X114500000Y-45657142D01*
X114595238Y-45561904D01*
X114690476Y-45514285D01*
X114880952Y-45466666D01*
X115023809Y-45466666D01*
X115214285Y-45514285D01*
X115309523Y-45561904D01*
X115404761Y-45657142D01*
X115452380Y-45800000D01*
X115452380Y-46038095D01*
X118678571Y-89178571D02*
X118726190Y-89035714D01*
X118773809Y-88988095D01*
X118869047Y-88940476D01*
X119011904Y-88940476D01*
X119107142Y-88988095D01*
X119154761Y-89035714D01*
X119202380Y-89130952D01*
X119202380Y-89511904D01*
X118202380Y-89511904D01*
X118202380Y-89178571D01*
X118250000Y-89083333D01*
X118297619Y-89035714D01*
X118392857Y-88988095D01*
X118488095Y-88988095D01*
X118583333Y-89035714D01*
X118630952Y-89083333D01*
X118678571Y-89178571D01*
X118678571Y-89511904D01*
X118202380Y-88511904D02*
X119011904Y-88511904D01*
X119107142Y-88464285D01*
X119154761Y-88416666D01*
X119202380Y-88321428D01*
X119202380Y-88130952D01*
X119154761Y-88035714D01*
X119107142Y-87988095D01*
X119011904Y-87940476D01*
X118202380Y-87940476D01*
X119202380Y-86892857D02*
X118726190Y-87226190D01*
X119202380Y-87464285D02*
X118202380Y-87464285D01*
X118202380Y-87083333D01*
X118250000Y-86988095D01*
X118297619Y-86940476D01*
X118392857Y-86892857D01*
X118535714Y-86892857D01*
X118630952Y-86940476D01*
X118678571Y-86988095D01*
X118726190Y-87083333D01*
X118726190Y-87464285D01*
X119202380Y-86464285D02*
X118202380Y-86464285D01*
X119202380Y-85892857D01*
X118202380Y-85892857D01*
X118678571Y-85416666D02*
X118678571Y-85083333D01*
X119202380Y-84940476D02*
X119202380Y-85416666D01*
X118202380Y-85416666D01*
X118202380Y-84940476D01*
X119202380Y-83940476D02*
X118726190Y-84273809D01*
X119202380Y-84511904D02*
X118202380Y-84511904D01*
X118202380Y-84130952D01*
X118250000Y-84035714D01*
X118297619Y-83988095D01*
X118392857Y-83940476D01*
X118535714Y-83940476D01*
X118630952Y-83988095D01*
X118678571Y-84035714D01*
X118726190Y-84130952D01*
X118726190Y-84511904D01*
X103000000Y-89261904D02*
X102952380Y-89357142D01*
X102952380Y-89500000D01*
X103000000Y-89642857D01*
X103095238Y-89738095D01*
X103190476Y-89785714D01*
X103380952Y-89833333D01*
X103523809Y-89833333D01*
X103714285Y-89785714D01*
X103809523Y-89738095D01*
X103904761Y-89642857D01*
X103952380Y-89500000D01*
X103952380Y-89404761D01*
X103904761Y-89261904D01*
X103857142Y-89214285D01*
X103523809Y-89214285D01*
X103523809Y-89404761D01*
X103952380Y-88785714D02*
X102952380Y-88785714D01*
X103952380Y-88214285D01*
X102952380Y-88214285D01*
X103952380Y-87738095D02*
X102952380Y-87738095D01*
X102952380Y-87500000D01*
X103000000Y-87357142D01*
X103095238Y-87261904D01*
X103190476Y-87214285D01*
X103380952Y-87166666D01*
X103523809Y-87166666D01*
X103714285Y-87214285D01*
X103809523Y-87261904D01*
X103904761Y-87357142D01*
X103952380Y-87500000D01*
X103952380Y-87738095D01*
X104932380Y-50083333D02*
X105932380Y-49750000D01*
X104932380Y-49416666D01*
X105932380Y-49083333D02*
X104932380Y-49083333D01*
X104932380Y-48845238D01*
X104980000Y-48702380D01*
X105075238Y-48607142D01*
X105170476Y-48559523D01*
X105360952Y-48511904D01*
X105503809Y-48511904D01*
X105694285Y-48559523D01*
X105789523Y-48607142D01*
X105884761Y-48702380D01*
X105932380Y-48845238D01*
X105932380Y-49083333D01*
X105932380Y-48083333D02*
X104932380Y-48083333D01*
X104932380Y-47845238D01*
X104980000Y-47702380D01*
X105075238Y-47607142D01*
X105170476Y-47559523D01*
X105360952Y-47511904D01*
X105503809Y-47511904D01*
X105694285Y-47559523D01*
X105789523Y-47607142D01*
X105884761Y-47702380D01*
X105932380Y-47845238D01*
X105932380Y-48083333D01*
X126000000Y-89261904D02*
X125952380Y-89357142D01*
X125952380Y-89500000D01*
X126000000Y-89642857D01*
X126095238Y-89738095D01*
X126190476Y-89785714D01*
X126380952Y-89833333D01*
X126523809Y-89833333D01*
X126714285Y-89785714D01*
X126809523Y-89738095D01*
X126904761Y-89642857D01*
X126952380Y-89500000D01*
X126952380Y-89404761D01*
X126904761Y-89261904D01*
X126857142Y-89214285D01*
X126523809Y-89214285D01*
X126523809Y-89404761D01*
X126952380Y-88785714D02*
X125952380Y-88785714D01*
X126952380Y-88214285D01*
X125952380Y-88214285D01*
X126952380Y-87738095D02*
X125952380Y-87738095D01*
X125952380Y-87500000D01*
X126000000Y-87357142D01*
X126095238Y-87261904D01*
X126190476Y-87214285D01*
X126380952Y-87166666D01*
X126523809Y-87166666D01*
X126714285Y-87214285D01*
X126809523Y-87261904D01*
X126904761Y-87357142D01*
X126952380Y-87500000D01*
X126952380Y-87738095D01*
X132642857Y-37428571D02*
X132785714Y-37476190D01*
X132833333Y-37523809D01*
X132880952Y-37619047D01*
X132880952Y-37761904D01*
X132833333Y-37857142D01*
X132785714Y-37904761D01*
X132690476Y-37952380D01*
X132309523Y-37952380D01*
X132309523Y-36952380D01*
X132642857Y-36952380D01*
X132738095Y-37000000D01*
X132785714Y-37047619D01*
X132833333Y-37142857D01*
X132833333Y-37238095D01*
X132785714Y-37333333D01*
X132738095Y-37380952D01*
X132642857Y-37428571D01*
X132309523Y-37428571D01*
X133309523Y-36952380D02*
X133309523Y-37761904D01*
X133357142Y-37857142D01*
X133404761Y-37904761D01*
X133500000Y-37952380D01*
X133690476Y-37952380D01*
X133785714Y-37904761D01*
X133833333Y-37857142D01*
X133880952Y-37761904D01*
X133880952Y-36952380D01*
X134261904Y-36952380D02*
X134928571Y-36952380D01*
X134261904Y-37952380D01*
X134928571Y-37952380D01*
X135214285Y-36952380D02*
X135880952Y-36952380D01*
X135214285Y-37952380D01*
X135880952Y-37952380D01*
X136261904Y-37428571D02*
X136595238Y-37428571D01*
X136738095Y-37952380D02*
X136261904Y-37952380D01*
X136261904Y-36952380D01*
X136738095Y-36952380D01*
X137738095Y-37952380D02*
X137404761Y-37476190D01*
X137166666Y-37952380D02*
X137166666Y-36952380D01*
X137547619Y-36952380D01*
X137642857Y-37000000D01*
X137690476Y-37047619D01*
X137738095Y-37142857D01*
X137738095Y-37285714D01*
X137690476Y-37380952D01*
X137642857Y-37428571D01*
X137547619Y-37476190D01*
X137166666Y-37476190D01*
X123452380Y-89738095D02*
X123452380Y-89119047D01*
X123833333Y-89452380D01*
X123833333Y-89309523D01*
X123880952Y-89214285D01*
X123928571Y-89166666D01*
X124023809Y-89119047D01*
X124261904Y-89119047D01*
X124357142Y-89166666D01*
X124404761Y-89214285D01*
X124452380Y-89309523D01*
X124452380Y-89595238D01*
X124404761Y-89690476D01*
X124357142Y-89738095D01*
X123452380Y-88833333D02*
X124452380Y-88500000D01*
X123452380Y-88166666D01*
X123452380Y-87928571D02*
X123452380Y-87309523D01*
X123833333Y-87642857D01*
X123833333Y-87500000D01*
X123880952Y-87404761D01*
X123928571Y-87357142D01*
X124023809Y-87309523D01*
X124261904Y-87309523D01*
X124357142Y-87357142D01*
X124404761Y-87404761D01*
X124452380Y-87500000D01*
X124452380Y-87785714D01*
X124404761Y-87880952D01*
X124357142Y-87928571D01*
X121178571Y-89357142D02*
X121226190Y-89214285D01*
X121273809Y-89166666D01*
X121369047Y-89119047D01*
X121511904Y-89119047D01*
X121607142Y-89166666D01*
X121654761Y-89214285D01*
X121702380Y-89309523D01*
X121702380Y-89690476D01*
X120702380Y-89690476D01*
X120702380Y-89357142D01*
X120750000Y-89261904D01*
X120797619Y-89214285D01*
X120892857Y-89166666D01*
X120988095Y-89166666D01*
X121083333Y-89214285D01*
X121130952Y-89261904D01*
X121178571Y-89357142D01*
X121178571Y-89690476D01*
X120702380Y-88690476D02*
X121511904Y-88690476D01*
X121607142Y-88642857D01*
X121654761Y-88595238D01*
X121702380Y-88500000D01*
X121702380Y-88309523D01*
X121654761Y-88214285D01*
X121607142Y-88166666D01*
X121511904Y-88119047D01*
X120702380Y-88119047D01*
X120702380Y-87738095D02*
X120702380Y-87071428D01*
X121702380Y-87738095D01*
X121702380Y-87071428D01*
X120702380Y-86785714D02*
X120702380Y-86119047D01*
X121702380Y-86785714D01*
X121702380Y-86119047D01*
X121178571Y-85738095D02*
X121178571Y-85404761D01*
X121702380Y-85261904D02*
X121702380Y-85738095D01*
X120702380Y-85738095D01*
X120702380Y-85261904D01*
X121702380Y-84261904D02*
X121226190Y-84595238D01*
X121702380Y-84833333D02*
X120702380Y-84833333D01*
X120702380Y-84452380D01*
X120750000Y-84357142D01*
X120797619Y-84309523D01*
X120892857Y-84261904D01*
X121035714Y-84261904D01*
X121130952Y-84309523D01*
X121178571Y-84357142D01*
X121226190Y-84452380D01*
X121226190Y-84833333D01*
X111652380Y-48133333D02*
X112652380Y-47800000D01*
X111652380Y-47466666D01*
X112652380Y-47133333D02*
X111652380Y-47133333D01*
X111652380Y-46895238D01*
X111700000Y-46752380D01*
X111795238Y-46657142D01*
X111890476Y-46609523D01*
X112080952Y-46561904D01*
X112223809Y-46561904D01*
X112414285Y-46609523D01*
X112509523Y-46657142D01*
X112604761Y-46752380D01*
X112652380Y-46895238D01*
X112652380Y-47133333D01*
X112652380Y-46133333D02*
X111652380Y-46133333D01*
X111652380Y-45895238D01*
X111700000Y-45752380D01*
X111795238Y-45657142D01*
X111890476Y-45609523D01*
X112080952Y-45561904D01*
X112223809Y-45561904D01*
X112414285Y-45609523D01*
X112509523Y-45657142D01*
X112604761Y-45752380D01*
X112652380Y-45895238D01*
X112652380Y-46133333D01*
X92050000Y-49111904D02*
X92002380Y-49207142D01*
X92002380Y-49350000D01*
X92050000Y-49492857D01*
X92145238Y-49588095D01*
X92240476Y-49635714D01*
X92430952Y-49683333D01*
X92573809Y-49683333D01*
X92764285Y-49635714D01*
X92859523Y-49588095D01*
X92954761Y-49492857D01*
X93002380Y-49350000D01*
X93002380Y-49254761D01*
X92954761Y-49111904D01*
X92907142Y-49064285D01*
X92573809Y-49064285D01*
X92573809Y-49254761D01*
X93002380Y-48635714D02*
X92002380Y-48635714D01*
X93002380Y-48064285D01*
X92002380Y-48064285D01*
X93002380Y-47588095D02*
X92002380Y-47588095D01*
X92002380Y-47350000D01*
X92050000Y-47207142D01*
X92145238Y-47111904D01*
X92240476Y-47064285D01*
X92430952Y-47016666D01*
X92573809Y-47016666D01*
X92764285Y-47064285D01*
X92859523Y-47111904D01*
X92954761Y-47207142D01*
X93002380Y-47350000D01*
X93002380Y-47588095D01*
X105785714Y-88988095D02*
X106452380Y-88988095D01*
X105404761Y-89226190D02*
X106119047Y-89464285D01*
X106119047Y-88845238D01*
X105452380Y-88607142D02*
X106452380Y-88273809D01*
X105452380Y-87940476D01*
X114107142Y-89000000D02*
X114154761Y-89047619D01*
X114202380Y-89190476D01*
X114202380Y-89285714D01*
X114154761Y-89428571D01*
X114059523Y-89523809D01*
X113964285Y-89571428D01*
X113773809Y-89619047D01*
X113630952Y-89619047D01*
X113440476Y-89571428D01*
X113345238Y-89523809D01*
X113250000Y-89428571D01*
X113202380Y-89285714D01*
X113202380Y-89190476D01*
X113250000Y-89047619D01*
X113297619Y-89000000D01*
X113202380Y-88571428D02*
X114011904Y-88571428D01*
X114107142Y-88523809D01*
X114154761Y-88476190D01*
X114202380Y-88380952D01*
X114202380Y-88190476D01*
X114154761Y-88095238D01*
X114107142Y-88047619D01*
X114011904Y-88000000D01*
X113202380Y-88000000D01*
X114202380Y-86952380D02*
X113726190Y-87285714D01*
X114202380Y-87523809D02*
X113202380Y-87523809D01*
X113202380Y-87142857D01*
X113250000Y-87047619D01*
X113297619Y-87000000D01*
X113392857Y-86952380D01*
X113535714Y-86952380D01*
X113630952Y-87000000D01*
X113678571Y-87047619D01*
X113726190Y-87142857D01*
X113726190Y-87523809D01*
X114202380Y-85952380D02*
X113726190Y-86285714D01*
X114202380Y-86523809D02*
X113202380Y-86523809D01*
X113202380Y-86142857D01*
X113250000Y-86047619D01*
X113297619Y-86000000D01*
X113392857Y-85952380D01*
X113535714Y-85952380D01*
X113630952Y-86000000D01*
X113678571Y-86047619D01*
X113726190Y-86142857D01*
X113726190Y-86523809D01*
X114297619Y-85761904D02*
X114297619Y-85000000D01*
X113202380Y-84904761D02*
X114202380Y-84571428D01*
X113202380Y-84238095D01*
X113535714Y-83476190D02*
X114202380Y-83476190D01*
X113154761Y-83714285D02*
X113869047Y-83952380D01*
X113869047Y-83333333D01*
X97042380Y-49458095D02*
X97042380Y-48839047D01*
X97423333Y-49172380D01*
X97423333Y-49029523D01*
X97470952Y-48934285D01*
X97518571Y-48886666D01*
X97613809Y-48839047D01*
X97851904Y-48839047D01*
X97947142Y-48886666D01*
X97994761Y-48934285D01*
X98042380Y-49029523D01*
X98042380Y-49315238D01*
X97994761Y-49410476D01*
X97947142Y-49458095D01*
X97042380Y-48553333D02*
X98042380Y-48220000D01*
X97042380Y-47886666D01*
X97042380Y-47648571D02*
X97042380Y-47029523D01*
X97423333Y-47362857D01*
X97423333Y-47220000D01*
X97470952Y-47124761D01*
X97518571Y-47077142D01*
X97613809Y-47029523D01*
X97851904Y-47029523D01*
X97947142Y-47077142D01*
X97994761Y-47124761D01*
X98042380Y-47220000D01*
X98042380Y-47505714D01*
X97994761Y-47600952D01*
X97947142Y-47648571D01*
%TO.C,J5*%
X107547380Y-41163333D02*
X108261666Y-41163333D01*
X108404523Y-41210952D01*
X108499761Y-41306190D01*
X108547380Y-41449047D01*
X108547380Y-41544285D01*
X107547380Y-40210952D02*
X107547380Y-40687142D01*
X108023571Y-40734761D01*
X107975952Y-40687142D01*
X107928333Y-40591904D01*
X107928333Y-40353809D01*
X107975952Y-40258571D01*
X108023571Y-40210952D01*
X108118809Y-40163333D01*
X108356904Y-40163333D01*
X108452142Y-40210952D01*
X108499761Y-40258571D01*
X108547380Y-40353809D01*
X108547380Y-40591904D01*
X108499761Y-40687142D01*
X108452142Y-40734761D01*
D11*
%TO.C,C23*%
X114880000Y-67207836D02*
X114880000Y-66992164D01*
X115600000Y-67207836D02*
X115600000Y-66992164D01*
%TO.C,C14*%
X99131252Y-72985000D02*
X98608748Y-72985000D01*
X99131252Y-71515000D02*
X98608748Y-71515000D01*
%TO.C,C26*%
X124778748Y-72835000D02*
X125301252Y-72835000D01*
X124778748Y-71365000D02*
X125301252Y-71365000D01*
%TO.C,C27*%
X121901252Y-71365000D02*
X121378748Y-71365000D01*
X121901252Y-72835000D02*
X121378748Y-72835000D01*
%TO.C,U3*%
X125380000Y-77400000D02*
X125380000Y-78200000D01*
X128500000Y-77400000D02*
X128500000Y-78200000D01*
X125380000Y-77400000D02*
X125380000Y-76600000D01*
X128500000Y-77400000D02*
X128500000Y-75600000D01*
%TO.C,C4*%
X88131252Y-74265000D02*
X87608748Y-74265000D01*
X88131252Y-72795000D02*
X87608748Y-72795000D01*
%TO.C,U2*%
X90250000Y-72570000D02*
X90250000Y-70620000D01*
X90250000Y-72570000D02*
X90250000Y-76020000D01*
X95370000Y-72570000D02*
X95370000Y-74520000D01*
X95370000Y-72570000D02*
X95370000Y-70620000D01*
%TO.C,Q1*%
X133010000Y-46885000D02*
X133305000Y-46885000D01*
X136550000Y-46885000D02*
X136550000Y-44045000D01*
X136255000Y-46885000D02*
X136550000Y-46885000D01*
X133305000Y-47615000D02*
X133305000Y-46885000D01*
X133305000Y-44045000D02*
X133010000Y-44045000D01*
X136550000Y-44045000D02*
X136255000Y-44045000D01*
X133010000Y-44045000D02*
X133010000Y-46885000D01*
%TO.C,C3*%
X106960000Y-80527836D02*
X106960000Y-80312164D01*
X106240000Y-80527836D02*
X106240000Y-80312164D01*
%TO.C,Q2*%
X122099000Y-44215000D02*
X121804000Y-44215000D01*
X122099000Y-47785000D02*
X122099000Y-47055000D01*
X125049000Y-47055000D02*
X125344000Y-47055000D01*
X121804000Y-47055000D02*
X122099000Y-47055000D01*
X121804000Y-44215000D02*
X121804000Y-47055000D01*
X125344000Y-44215000D02*
X125049000Y-44215000D01*
X125344000Y-47055000D02*
X125344000Y-44215000D01*
%TO.C,C22*%
X113432000Y-67214636D02*
X113432000Y-66998964D01*
X114152000Y-67214636D02*
X114152000Y-66998964D01*
%TO.C,R6*%
X121620000Y-76553641D02*
X121620000Y-76246359D01*
X120860000Y-76553641D02*
X120860000Y-76246359D01*
%TO.C,C1*%
X88131252Y-72235000D02*
X87608748Y-72235000D01*
X88131252Y-70765000D02*
X87608748Y-70765000D01*
%TO.C,J4*%
X106450000Y-96375000D02*
X106450000Y-95965000D01*
X116610000Y-96375000D02*
X116610000Y-95965000D01*
X104820000Y-105005000D02*
X104820000Y-96375000D01*
X105730000Y-93865000D02*
X105730000Y-93425000D01*
X120970000Y-93865000D02*
X120970000Y-93425000D01*
X126050000Y-96375000D02*
X126050000Y-95965000D01*
X103757140Y-105005000D02*
X103757140Y-96375000D01*
X120060000Y-105005000D02*
X120060000Y-96375000D01*
X113350000Y-96375000D02*
X113350000Y-95965000D01*
X103639045Y-105005000D02*
X103639045Y-96375000D01*
X102220000Y-91265000D02*
X103550000Y-91265000D01*
X103190000Y-96375000D02*
X103190000Y-95965000D01*
X104465710Y-105005000D02*
X104465710Y-96375000D01*
X123510000Y-96375000D02*
X123510000Y-95965000D01*
X103875235Y-105005000D02*
X103875235Y-96375000D01*
X119150000Y-96375000D02*
X119150000Y-95965000D01*
X102340000Y-105005000D02*
X102340000Y-96375000D01*
X114070000Y-96375000D02*
X114070000Y-95965000D01*
X111530000Y-93865000D02*
X111530000Y-93425000D01*
X108990000Y-96375000D02*
X108990000Y-95965000D01*
X111530000Y-96375000D02*
X111530000Y-95965000D01*
X126050000Y-93865000D02*
X126050000Y-93425000D01*
X126770000Y-96375000D02*
X126770000Y-95965000D01*
X102220000Y-96375000D02*
X127740000Y-96375000D01*
X107360000Y-105005000D02*
X107360000Y-96375000D01*
X102220000Y-105005000D02*
X127740000Y-105005000D01*
X108990000Y-93865000D02*
X108990000Y-93425000D01*
X103190000Y-93865000D02*
X103190000Y-93485000D01*
X102220000Y-105005000D02*
X102220000Y-96375000D01*
X103284760Y-105005000D02*
X103284760Y-96375000D01*
X103048570Y-105005000D02*
X103048570Y-96375000D01*
X102694285Y-105005000D02*
X102694285Y-96375000D01*
X102576190Y-105005000D02*
X102576190Y-96375000D01*
X118430000Y-93865000D02*
X118430000Y-93425000D01*
X106450000Y-93865000D02*
X106450000Y-93425000D01*
X102812380Y-105005000D02*
X102812380Y-96375000D01*
X104111425Y-105005000D02*
X104111425Y-96375000D01*
X124230000Y-96375000D02*
X124230000Y-95965000D01*
X121690000Y-96375000D02*
X121690000Y-95965000D01*
X117520000Y-105005000D02*
X117520000Y-96375000D01*
X104347615Y-105005000D02*
X104347615Y-96375000D01*
X115890000Y-93865000D02*
X115890000Y-93425000D01*
X115890000Y-96375000D02*
X115890000Y-95965000D01*
X122600000Y-105005000D02*
X122600000Y-96375000D01*
X120970000Y-96375000D02*
X120970000Y-95965000D01*
X112440000Y-105005000D02*
X112440000Y-96375000D01*
X108270000Y-93865000D02*
X108270000Y-93425000D01*
X110810000Y-96375000D02*
X110810000Y-95965000D01*
X110810000Y-93865000D02*
X110810000Y-93425000D01*
X127740000Y-105005000D02*
X127740000Y-96375000D01*
X124230000Y-93865000D02*
X124230000Y-93425000D01*
X103993330Y-105005000D02*
X103993330Y-96375000D01*
X125140000Y-105005000D02*
X125140000Y-96375000D01*
X104229520Y-105005000D02*
X104229520Y-96375000D01*
X103520950Y-105005000D02*
X103520950Y-96375000D01*
X102458095Y-105005000D02*
X102458095Y-96375000D01*
X108270000Y-96375000D02*
X108270000Y-95965000D01*
X116610000Y-93865000D02*
X116610000Y-93425000D01*
X104583805Y-105005000D02*
X104583805Y-96375000D01*
X103402855Y-105005000D02*
X103402855Y-96375000D01*
X113350000Y-93865000D02*
X113350000Y-93425000D01*
X102930475Y-105005000D02*
X102930475Y-96375000D01*
X103910000Y-93865000D02*
X103910000Y-93485000D01*
X119150000Y-93865000D02*
X119150000Y-93425000D01*
X121690000Y-93865000D02*
X121690000Y-93425000D01*
X103166665Y-105005000D02*
X103166665Y-96375000D01*
X105730000Y-96375000D02*
X105730000Y-95965000D01*
X102220000Y-92375000D02*
X102220000Y-91265000D01*
X104701900Y-105005000D02*
X104701900Y-96375000D01*
X109900000Y-105005000D02*
X109900000Y-96375000D01*
X114070000Y-93865000D02*
X114070000Y-93425000D01*
X114980000Y-105005000D02*
X114980000Y-96375000D01*
X126770000Y-93865000D02*
X126770000Y-93425000D01*
X123510000Y-93865000D02*
X123510000Y-93425000D01*
X103910000Y-96375000D02*
X103910000Y-95965000D01*
X118430000Y-96375000D02*
X118430000Y-95965000D01*
%TO.C,C30*%
X121901252Y-69365000D02*
X121378748Y-69365000D01*
X121901252Y-70835000D02*
X121378748Y-70835000D01*
%TO.C,R5*%
X114020000Y-77253641D02*
X114020000Y-76946359D01*
X113260000Y-77253641D02*
X113260000Y-76946359D01*
%TO.C,R7*%
X121620000Y-78663641D02*
X121620000Y-78356359D01*
X120860000Y-78663641D02*
X120860000Y-78356359D01*
%TO.C,U1*%
X102810000Y-79750000D02*
X102810000Y-80550000D01*
X105930000Y-79750000D02*
X105930000Y-77950000D01*
X102810000Y-79750000D02*
X102810000Y-78950000D01*
X105930000Y-79750000D02*
X105930000Y-80550000D01*
%TO.C,C10*%
X102108748Y-72985000D02*
X102631252Y-72985000D01*
X102108748Y-71515000D02*
X102631252Y-71515000D01*
%TO.C,C29*%
X124778748Y-74835000D02*
X125301252Y-74835000D01*
X124778748Y-73365000D02*
X125301252Y-73365000D01*
%TO.C,C7*%
X92480000Y-67607836D02*
X92480000Y-67392164D01*
X91760000Y-67607836D02*
X91760000Y-67392164D01*
%TO.C,C18*%
X117050000Y-77559420D02*
X117050000Y-77840580D01*
X116030000Y-77559420D02*
X116030000Y-77840580D01*
%TO.C,C25*%
X121378748Y-73365000D02*
X121901252Y-73365000D01*
X121378748Y-74835000D02*
X121901252Y-74835000D01*
%TO.C,C13*%
X98608748Y-70985000D02*
X99131252Y-70985000D01*
X98608748Y-69515000D02*
X99131252Y-69515000D01*
%TO.C,J5*%
X106655000Y-46320000D02*
X105325000Y-46320000D01*
X103145000Y-43750000D02*
X103145000Y-44160000D01*
X105708335Y-35120000D02*
X105708335Y-43750000D01*
X106062620Y-35120000D02*
X106062620Y-43750000D01*
X104055000Y-35120000D02*
X104055000Y-43750000D01*
X95525000Y-43750000D02*
X95525000Y-44160000D01*
X101515000Y-35120000D02*
X101515000Y-43750000D01*
X105590240Y-35120000D02*
X105590240Y-43750000D01*
X98065000Y-43750000D02*
X98065000Y-44160000D01*
X106298810Y-35120000D02*
X106298810Y-43750000D01*
X105472145Y-35120000D02*
X105472145Y-43750000D01*
X104409290Y-35120000D02*
X104409290Y-43750000D01*
X104763575Y-35120000D02*
X104763575Y-43750000D01*
X106655000Y-35120000D02*
X91295000Y-35120000D01*
X98975000Y-35120000D02*
X98975000Y-43750000D01*
X105944525Y-35120000D02*
X105944525Y-43750000D01*
X106655000Y-45210000D02*
X106655000Y-46320000D01*
X99885000Y-43750000D02*
X99885000Y-44160000D01*
X104881670Y-35120000D02*
X104881670Y-43750000D01*
X106655000Y-35120000D02*
X106655000Y-43750000D01*
X92265000Y-43750000D02*
X92265000Y-44160000D01*
X96435000Y-35120000D02*
X96435000Y-43750000D01*
X104965000Y-43750000D02*
X104965000Y-44100000D01*
X104173100Y-35120000D02*
X104173100Y-43750000D01*
X106535000Y-35120000D02*
X106535000Y-43750000D01*
X92985000Y-43750000D02*
X92985000Y-44160000D01*
X91295000Y-35120000D02*
X91295000Y-43750000D01*
X104645480Y-35120000D02*
X104645480Y-43750000D01*
X105117860Y-35120000D02*
X105117860Y-43750000D01*
X105826430Y-35120000D02*
X105826430Y-43750000D01*
X106180715Y-35120000D02*
X106180715Y-43750000D01*
X105235955Y-35120000D02*
X105235955Y-43750000D01*
X106416905Y-35120000D02*
X106416905Y-43750000D01*
X104999765Y-35120000D02*
X104999765Y-43750000D01*
X97345000Y-43750000D02*
X97345000Y-44160000D01*
X105354050Y-35120000D02*
X105354050Y-43750000D01*
X102425000Y-43750000D02*
X102425000Y-44160000D01*
X104291195Y-35120000D02*
X104291195Y-43750000D01*
X93895000Y-35120000D02*
X93895000Y-43750000D01*
X100605000Y-43750000D02*
X100605000Y-44160000D01*
X106655000Y-43750000D02*
X91295000Y-43750000D01*
X94805000Y-43750000D02*
X94805000Y-44160000D01*
X105685000Y-43750000D02*
X105685000Y-44100000D01*
X104527385Y-35120000D02*
X104527385Y-43750000D01*
%TO.C,R10*%
X126880000Y-47403641D02*
X126880000Y-47096359D01*
X126120000Y-47403641D02*
X126120000Y-47096359D01*
%TO.C,R12*%
X107162742Y-68102500D02*
X107637258Y-68102500D01*
X107162742Y-67057500D02*
X107637258Y-67057500D01*
%TO.C,C11*%
X102088748Y-70985000D02*
X102611252Y-70985000D01*
X102088748Y-69515000D02*
X102611252Y-69515000D01*
%TO.C,R4*%
X101920000Y-78250000D02*
X101920000Y-80250000D01*
X99120000Y-80250000D02*
X99120000Y-78250000D01*
%TO.C,C12*%
X99181252Y-75515000D02*
X98658748Y-75515000D01*
X99181252Y-76985000D02*
X98658748Y-76985000D01*
%TO.C,C2*%
X94130000Y-78134420D02*
X94130000Y-78415580D01*
X93110000Y-78134420D02*
X93110000Y-78415580D01*
%TO.C,R8*%
X124840000Y-76100000D02*
X124840000Y-78100000D01*
X122040000Y-78100000D02*
X122040000Y-76100000D01*
%TO.C,C9*%
X102631252Y-75515000D02*
X102108748Y-75515000D01*
X102631252Y-76985000D02*
X102108748Y-76985000D01*
%TO.C,C20*%
X111513252Y-72365000D02*
X110990748Y-72365000D01*
X111513252Y-73835000D02*
X110990748Y-73835000D01*
%TO.C,C15*%
X99131252Y-74985000D02*
X98608748Y-74985000D01*
X99131252Y-73515000D02*
X98608748Y-73515000D01*
%TO.C,R9*%
X137880000Y-47153641D02*
X137880000Y-46846359D01*
X137120000Y-47153641D02*
X137120000Y-46846359D01*
%TO.C,L2*%
X123840000Y-66900000D02*
X123840000Y-68300000D01*
X123840000Y-61500000D02*
X123840000Y-62900000D01*
X123840000Y-68300000D02*
X116640000Y-68300000D01*
X116640000Y-62900000D02*
X116640000Y-61500000D01*
X116640000Y-61500000D02*
X123840000Y-61500000D01*
X116640000Y-68300000D02*
X116640000Y-66900000D01*
%TO.C,J2*%
X123500000Y-41330000D02*
X122170000Y-41330000D01*
X127370000Y-41330000D02*
X127370000Y-38670000D01*
X124770000Y-41330000D02*
X127370000Y-41330000D01*
X124770000Y-41330000D02*
X124770000Y-38670000D01*
X122170000Y-41330000D02*
X122170000Y-40000000D01*
X124770000Y-38670000D02*
X127370000Y-38670000D01*
%TO.C,Q3*%
X111000000Y-42250000D02*
X112950000Y-42250000D01*
X111000000Y-42250000D02*
X111000000Y-42350000D01*
X112950000Y-44550000D02*
X111450000Y-44550000D01*
%TO.C,C21*%
X117680000Y-76992164D02*
X117680000Y-77207836D01*
X118400000Y-76992164D02*
X118400000Y-77207836D01*
%TO.C,U4*%
X118400000Y-72300000D02*
X118400000Y-74250000D01*
X118400000Y-72300000D02*
X118400000Y-70350000D01*
X113280000Y-72300000D02*
X113280000Y-75750000D01*
X113280000Y-72300000D02*
X113280000Y-70350000D01*
%TO.C,C19*%
X127827836Y-79740000D02*
X127612164Y-79740000D01*
X127827836Y-80460000D02*
X127612164Y-80460000D01*
%TO.C,L1*%
X93770000Y-61600000D02*
X100970000Y-61600000D01*
X100970000Y-67000000D02*
X100970000Y-68400000D01*
X100970000Y-61600000D02*
X100970000Y-63000000D01*
X100970000Y-68400000D02*
X93770000Y-68400000D01*
X93770000Y-68400000D02*
X93770000Y-67000000D01*
X93770000Y-63000000D02*
X93770000Y-61600000D01*
%TO.C,C8*%
X96510000Y-78857836D02*
X96510000Y-78642164D01*
X97230000Y-78857836D02*
X97230000Y-78642164D01*
%TO.C,C6*%
X90980000Y-67607836D02*
X90980000Y-67392164D01*
X90260000Y-67607836D02*
X90260000Y-67392164D01*
%TO.C,J3*%
X110880000Y-38670000D02*
X110880000Y-41330000D01*
X116080000Y-38670000D02*
X116080000Y-40000000D01*
X113480000Y-38670000D02*
X110880000Y-38670000D01*
X113480000Y-38670000D02*
X113480000Y-41330000D01*
X114750000Y-38670000D02*
X116080000Y-38670000D01*
X113480000Y-41330000D02*
X110880000Y-41330000D01*
%TO.C,R11*%
X107637258Y-68577500D02*
X107162742Y-68577500D01*
X107637258Y-69622500D02*
X107162742Y-69622500D01*
%TO.C,C17*%
X111501252Y-70365000D02*
X110978748Y-70365000D01*
X111501252Y-71835000D02*
X110978748Y-71835000D01*
%TO.C,C16*%
X102108748Y-74985000D02*
X102631252Y-74985000D01*
X102108748Y-73515000D02*
X102631252Y-73515000D01*
%TO.C,R3*%
X98250000Y-80903641D02*
X98250000Y-80596359D01*
X97490000Y-80903641D02*
X97490000Y-80596359D01*
%TO.C,C28*%
X124778748Y-70835000D02*
X125301252Y-70835000D01*
X124778748Y-69365000D02*
X125301252Y-69365000D01*
%TO.C,R2*%
X98250000Y-78903641D02*
X98250000Y-78596359D01*
X97490000Y-78903641D02*
X97490000Y-78596359D01*
%TO.C,R1*%
X91000000Y-77653641D02*
X91000000Y-77346359D01*
X90240000Y-77653641D02*
X90240000Y-77346359D01*
%TO.C,C24*%
X120500000Y-76507836D02*
X120500000Y-76292164D01*
X119780000Y-76507836D02*
X119780000Y-76292164D01*
%TO.C,C5*%
X95480000Y-77392164D02*
X95480000Y-77607836D01*
X94760000Y-77392164D02*
X94760000Y-77607836D01*
%TO.C,J1*%
X135770000Y-41330000D02*
X135770000Y-38670000D01*
X135770000Y-38670000D02*
X138370000Y-38670000D01*
X134500000Y-41330000D02*
X133170000Y-41330000D01*
X133170000Y-41330000D02*
X133170000Y-40000000D01*
X135770000Y-41330000D02*
X138370000Y-41330000D01*
X138370000Y-41330000D02*
X138370000Y-38670000D01*
%TD*%
M02*
