%TF.GenerationSoftware,KiCad,Pcbnew,(6.0.9)*%
%TF.CreationDate,2022-11-26T14:01:21+01:00*%
%TF.ProjectId,PWR_PCB,5057525f-5043-4422-9e6b-696361645f70,rev?*%
%TF.SameCoordinates,Original*%
%TF.FileFunction,Copper,L2,Bot*%
%TF.FilePolarity,Positive*%
%FSLAX46Y46*%
G04 Gerber Fmt 4.6, Leading zero omitted, Abs format (unit mm)*
G04 Created by KiCad (PCBNEW (6.0.9)) date 2022-11-26 14:01:21*
%MOMM*%
%LPD*%
G01*
G04 APERTURE LIST*
%TA.AperFunction,ComponentPad*%
%ADD10R,1.700000X1.700000*%
%TD*%
%TA.AperFunction,ComponentPad*%
%ADD11O,1.700000X1.700000*%
%TD*%
%TA.AperFunction,ViaPad*%
%ADD12C,0.800000*%
%TD*%
%TA.AperFunction,Conductor*%
%ADD13C,1.000000*%
%TD*%
%TA.AperFunction,Conductor*%
%ADD14C,0.250000*%
%TD*%
G04 APERTURE END LIST*
D10*
%TO.P,J4,1,Pin_1*%
%TO.N,GND*%
X103550000Y-92375000D03*
D11*
%TO.P,J4,2,Pin_2*%
X103550000Y-94915000D03*
%TO.P,J4,3,Pin_3*%
%TO.N,4V*%
X106090000Y-92375000D03*
%TO.P,J4,4,Pin_4*%
X106090000Y-94915000D03*
%TO.P,J4,5,Pin_5*%
%TO.N,unconnected-(J4-Pad5)*%
X108630000Y-92375000D03*
%TO.P,J4,6,Pin_6*%
%TO.N,unconnected-(J4-Pad6)*%
X108630000Y-94915000D03*
%TO.P,J4,7,Pin_7*%
%TO.N,VOLT_SENSE*%
X111170000Y-92375000D03*
%TO.P,J4,8,Pin_8*%
X111170000Y-94915000D03*
%TO.P,J4,9,Pin_9*%
%TO.N,CURR_4V*%
X113710000Y-92375000D03*
%TO.P,J4,10,Pin_10*%
X113710000Y-94915000D03*
%TO.P,J4,11,Pin_11*%
%TO.N,CURR_3V3*%
X116250000Y-92375000D03*
%TO.P,J4,12,Pin_12*%
X116250000Y-94915000D03*
%TO.P,J4,13,Pin_13*%
%TO.N,BURNER*%
X118790000Y-92375000D03*
%TO.P,J4,14,Pin_14*%
X118790000Y-94915000D03*
%TO.P,J4,15,Pin_15*%
%TO.N,BUZZER*%
X121330000Y-92375000D03*
%TO.P,J4,16,Pin_16*%
X121330000Y-94915000D03*
%TO.P,J4,17,Pin_17*%
%TO.N,3V3*%
X123870000Y-92375000D03*
%TO.P,J4,18,Pin_18*%
X123870000Y-94915000D03*
%TO.P,J4,19,Pin_19*%
%TO.N,GND*%
X126410000Y-92375000D03*
%TO.P,J4,20,Pin_20*%
X126410000Y-94915000D03*
%TD*%
D10*
%TO.P,J5,1,Pin_1*%
%TO.N,VDD*%
X105325000Y-45210000D03*
D11*
%TO.P,J5,2,Pin_2*%
%TO.N,BURNER*%
X102785000Y-45210000D03*
%TO.P,J5,3,Pin_3*%
%TO.N,BUZZER*%
X100245000Y-45210000D03*
%TO.P,J5,4,Pin_4*%
%TO.N,3V3*%
X97705000Y-45210000D03*
%TO.P,J5,5,Pin_5*%
%TO.N,4V*%
X95165000Y-45210000D03*
%TO.P,J5,6,Pin_6*%
%TO.N,GND*%
X92625000Y-45210000D03*
%TD*%
D10*
%TO.P,J2,1,Pin_1*%
%TO.N,Net-(J2-Pad1)*%
X123500000Y-40000000D03*
D11*
%TO.P,J2,2,Pin_2*%
%TO.N,VDD*%
X126040000Y-40000000D03*
%TD*%
D10*
%TO.P,J3,1,Pin_1*%
%TO.N,GND*%
X114750000Y-40000000D03*
D11*
%TO.P,J3,2,Pin_2*%
%TO.N,/MISC/BATT*%
X112210000Y-40000000D03*
%TD*%
D10*
%TO.P,J1,1,Pin_1*%
%TO.N,Net-(J1-Pad1)*%
X134500000Y-40000000D03*
D11*
%TO.P,J1,2,Pin_2*%
%TO.N,VDD*%
X137040000Y-40000000D03*
%TD*%
D12*
%TO.N,GND*%
X119000000Y-69000000D03*
X127500000Y-82500000D03*
X90000000Y-95000000D03*
X145000000Y-85000000D03*
X140000000Y-65000000D03*
X122500000Y-55000000D03*
X108000000Y-87500000D03*
X145000000Y-70000000D03*
X140000000Y-75000000D03*
X115000000Y-90000000D03*
X90000000Y-80000000D03*
X105000000Y-85000000D03*
X120240000Y-64900000D03*
X115000000Y-52500000D03*
X105000000Y-75000000D03*
X117500000Y-55000000D03*
X93000000Y-73000000D03*
X115000000Y-50000000D03*
X90000000Y-52500000D03*
X115000000Y-87500000D03*
X125000000Y-100000000D03*
X135000000Y-80000000D03*
X135000000Y-70000000D03*
X140000000Y-55000000D03*
X135000000Y-90000000D03*
X115000000Y-62000000D03*
X117000000Y-81000000D03*
X132500000Y-50000000D03*
X120240000Y-62900000D03*
X132500000Y-87500000D03*
X132080000Y-55372000D03*
X145000000Y-75000000D03*
X92500000Y-52200000D03*
X135000000Y-100000000D03*
X110000000Y-82500000D03*
X115000000Y-42500000D03*
X97500000Y-60000000D03*
X140000000Y-85000000D03*
X90000000Y-85000000D03*
X112500000Y-80000000D03*
X132588000Y-57364000D03*
X95000000Y-100000000D03*
X95000000Y-95000000D03*
X145000000Y-50000000D03*
X87000000Y-62500000D03*
X130000000Y-45000000D03*
X105000000Y-57500000D03*
X132500000Y-77500000D03*
X115750000Y-71750000D03*
X100000000Y-95000000D03*
X87000000Y-60000000D03*
X110000000Y-42500000D03*
X145000000Y-95000000D03*
X105000000Y-60000000D03*
X102500000Y-82500000D03*
X132500000Y-92500000D03*
X130000000Y-100000000D03*
X92500000Y-60000000D03*
X120000000Y-50000000D03*
X95000000Y-90000000D03*
X110000000Y-75000000D03*
X115750000Y-72750000D03*
X95000000Y-79500000D03*
X105000000Y-62500000D03*
X95000000Y-52200000D03*
X145000000Y-47500000D03*
X87000000Y-70000000D03*
X96500000Y-73500000D03*
X135000000Y-65000000D03*
X110000000Y-90000000D03*
X115000000Y-100000000D03*
X85000000Y-100000000D03*
X100000000Y-57500000D03*
X100000000Y-90000000D03*
X115000000Y-81000000D03*
X132588000Y-59864000D03*
X132500000Y-82500000D03*
X96500000Y-71500000D03*
X140000000Y-80000000D03*
X110000000Y-52200000D03*
X93000000Y-72000000D03*
X145000000Y-80000000D03*
X97370000Y-67000000D03*
X120000000Y-42500000D03*
X145000000Y-55000000D03*
X96500000Y-69500000D03*
X145000000Y-90000000D03*
X145000000Y-60000000D03*
X132588000Y-67364000D03*
X119000000Y-73000000D03*
X119000000Y-81000000D03*
X125000000Y-50000000D03*
X120000000Y-55000000D03*
X135000000Y-60000000D03*
X120000000Y-87500000D03*
X145000000Y-100000000D03*
X97500000Y-52200000D03*
X135000000Y-75000000D03*
X116750000Y-71750000D03*
X135000000Y-85000000D03*
X130000000Y-55000000D03*
X140000000Y-42500000D03*
X117500000Y-50000000D03*
X121000000Y-81000000D03*
X87500000Y-80000000D03*
X127500000Y-90000000D03*
X119000000Y-75000000D03*
X96500000Y-77000000D03*
X114750000Y-72750000D03*
X105000000Y-70000000D03*
X120000000Y-85000000D03*
X110000000Y-85000000D03*
X92500000Y-57500000D03*
X110000000Y-50000000D03*
X105000000Y-52200000D03*
X85000000Y-85000000D03*
X87500000Y-75000000D03*
X120240000Y-66900000D03*
X90000000Y-42500000D03*
X85000000Y-47500000D03*
X140000000Y-60000000D03*
X105000000Y-65000000D03*
X115000000Y-57500000D03*
X115000000Y-85000000D03*
X132588000Y-62364000D03*
X107600000Y-52200000D03*
X88800000Y-53600000D03*
X87000000Y-57500000D03*
X107500000Y-77500000D03*
X110000000Y-80000000D03*
X95000000Y-57500000D03*
X94000000Y-73000000D03*
X130000000Y-42500000D03*
X112500000Y-85000000D03*
X110000000Y-47500000D03*
X114750000Y-71750000D03*
X120000000Y-100000000D03*
X110000000Y-100000000D03*
X95000000Y-85000000D03*
X92000000Y-73000000D03*
X140000000Y-100000000D03*
X127500000Y-55000000D03*
X142500000Y-45000000D03*
X96500000Y-75500000D03*
X105000000Y-72500000D03*
X135000000Y-50000000D03*
X97370000Y-63000000D03*
X87500000Y-55000000D03*
X85000000Y-90000000D03*
X117500000Y-85000000D03*
X127500000Y-87500000D03*
X105000000Y-67500000D03*
X125000000Y-55000000D03*
X122500000Y-50000000D03*
X92000000Y-72000000D03*
X102500000Y-57500000D03*
X100000000Y-100000000D03*
X115000000Y-60000000D03*
X110000000Y-87500000D03*
X90000000Y-90000000D03*
X87500000Y-77500000D03*
X127500000Y-42500000D03*
X108000000Y-90000000D03*
X97500000Y-57500000D03*
X82500000Y-50000000D03*
X87500000Y-45000000D03*
X132500000Y-90000000D03*
X120000000Y-45600000D03*
X85000000Y-95000000D03*
X130000000Y-47500000D03*
X132500000Y-80000000D03*
X120000000Y-90000000D03*
X132588000Y-69864000D03*
X132588000Y-72364000D03*
X87000000Y-67500000D03*
X97500000Y-50000000D03*
X127500000Y-85000000D03*
X140000000Y-95000000D03*
X135000000Y-55000000D03*
X105000000Y-100000000D03*
X90000000Y-100000000D03*
X140000000Y-50000000D03*
X119000000Y-71000000D03*
X94000000Y-72000000D03*
X87000000Y-65000000D03*
X132500000Y-75000000D03*
X140000000Y-70000000D03*
X97370000Y-65000000D03*
X116750000Y-72750000D03*
X107500000Y-82500000D03*
X115000000Y-55000000D03*
X140000000Y-90000000D03*
X132588000Y-64864000D03*
X145000000Y-65000000D03*
X132500000Y-85000000D03*
%TO.N,Net-(J1-Pad1)*%
X134000000Y-45500000D03*
X135500000Y-45500000D03*
X134000000Y-43000000D03*
X135500000Y-43000000D03*
%TO.N,Net-(J2-Pad1)*%
X123000000Y-45500000D03*
X123000000Y-43000000D03*
X124500000Y-45500000D03*
X124500000Y-43000000D03*
%TO.N,VOLT_SENSE*%
X106575000Y-71421400D03*
X106575000Y-70564600D03*
%TO.N,BURNER*%
X133000000Y-98000000D03*
X128870000Y-50130000D03*
%TO.N,BUZZER*%
X136500000Y-94750000D03*
X138000000Y-51250000D03*
%TO.N,3V3*%
X108000000Y-81000000D03*
X95250000Y-82550000D03*
X109000000Y-81000000D03*
%TD*%
D13*
%TO.N,VOLT_SENSE*%
X106575000Y-74399200D02*
X111170000Y-78994200D01*
X111170000Y-78994200D02*
X111170000Y-94915000D01*
X106575000Y-70564600D02*
X106575000Y-74399200D01*
D14*
%TO.N,BURNER*%
X118790000Y-96920000D02*
X118790000Y-94915000D01*
X133000000Y-98000000D02*
X119870000Y-98000000D01*
X119870000Y-98000000D02*
X118790000Y-96920000D01*
X106075000Y-48500000D02*
X127240000Y-48500000D01*
X102785000Y-45210000D02*
X106075000Y-48500000D01*
X127240000Y-48500000D02*
X128870000Y-50130000D01*
%TO.N,BUZZER*%
X134500000Y-96750000D02*
X122500000Y-96750000D01*
X136500000Y-94750000D02*
X134500000Y-96750000D01*
X121330000Y-95580000D02*
X121330000Y-94915000D01*
X138000000Y-51250000D02*
X104750000Y-51250000D01*
X100245000Y-46745000D02*
X100245000Y-45210000D01*
X104750000Y-51250000D02*
X100245000Y-46745000D01*
X122500000Y-96750000D02*
X121330000Y-95580000D01*
%TO.N,3V3*%
X96200000Y-83500000D02*
X105000000Y-83500000D01*
X107500000Y-81000000D02*
X108000000Y-81000000D01*
X95250000Y-82550000D02*
X96200000Y-83500000D01*
X108000000Y-81000000D02*
X109000000Y-81000000D01*
X105000000Y-83500000D02*
X107500000Y-81000000D01*
%TD*%
%TA.AperFunction,Conductor*%
%TO.N,GND*%
G36*
X144987103Y-35256921D02*
G01*
X145000000Y-35259486D01*
X145012170Y-35257065D01*
X145022599Y-35257065D01*
X145035735Y-35256060D01*
X145356412Y-35270061D01*
X145408103Y-35272318D01*
X145419051Y-35273276D01*
X145818604Y-35325878D01*
X145829413Y-35327785D01*
X146222854Y-35415008D01*
X146233471Y-35417853D01*
X146617813Y-35539036D01*
X146628128Y-35542789D01*
X147000468Y-35697017D01*
X147010412Y-35701655D01*
X147295219Y-35849916D01*
X147367867Y-35887734D01*
X147377387Y-35893230D01*
X147717262Y-36109755D01*
X147726266Y-36116059D01*
X148045993Y-36361393D01*
X148054397Y-36368445D01*
X148130501Y-36438182D01*
X148351519Y-36640709D01*
X148359291Y-36648481D01*
X148470515Y-36769860D01*
X148631555Y-36945603D01*
X148638607Y-36954007D01*
X148768743Y-37123604D01*
X148883941Y-37273734D01*
X148890245Y-37282738D01*
X149106770Y-37622613D01*
X149112266Y-37632133D01*
X149298341Y-37989579D01*
X149302983Y-37999532D01*
X149433903Y-38315602D01*
X149457208Y-38371865D01*
X149460964Y-38382187D01*
X149579400Y-38757816D01*
X149582147Y-38766528D01*
X149584992Y-38777145D01*
X149663328Y-39130496D01*
X149672214Y-39170579D01*
X149674122Y-39181396D01*
X149717296Y-39509338D01*
X149726724Y-39580948D01*
X149727682Y-39591898D01*
X149743940Y-39964265D01*
X149742935Y-39977401D01*
X149742935Y-39987830D01*
X149740514Y-40000000D01*
X149742935Y-40012170D01*
X149743079Y-40012894D01*
X149745500Y-40037476D01*
X149745500Y-99962524D01*
X149743079Y-99987103D01*
X149740514Y-100000000D01*
X149742935Y-100012170D01*
X149742935Y-100022599D01*
X149743940Y-100035735D01*
X149727682Y-100408102D01*
X149726724Y-100419052D01*
X149674123Y-100818596D01*
X149672214Y-100829421D01*
X149584992Y-101222854D01*
X149582147Y-101233472D01*
X149460967Y-101617806D01*
X149457208Y-101628135D01*
X149302987Y-102000459D01*
X149298341Y-102010421D01*
X149112266Y-102367867D01*
X149106770Y-102377387D01*
X148890245Y-102717262D01*
X148883941Y-102726266D01*
X148638607Y-103045993D01*
X148631555Y-103054397D01*
X148495420Y-103202962D01*
X148359291Y-103351519D01*
X148351519Y-103359291D01*
X148202962Y-103495419D01*
X148054397Y-103631555D01*
X148045993Y-103638607D01*
X147811664Y-103818413D01*
X147726266Y-103883941D01*
X147717262Y-103890245D01*
X147377387Y-104106770D01*
X147367868Y-104112265D01*
X147010412Y-104298345D01*
X147000468Y-104302983D01*
X146628128Y-104457211D01*
X146617813Y-104460964D01*
X146233472Y-104582147D01*
X146222855Y-104584992D01*
X145829413Y-104672215D01*
X145818604Y-104674122D01*
X145419052Y-104726724D01*
X145408103Y-104727682D01*
X145356412Y-104729939D01*
X145035735Y-104743940D01*
X145022599Y-104742935D01*
X145012170Y-104742935D01*
X145000000Y-104740514D01*
X144987103Y-104743079D01*
X144962524Y-104745500D01*
X85037476Y-104745500D01*
X85012897Y-104743079D01*
X85000000Y-104740514D01*
X84987830Y-104742935D01*
X84977401Y-104742935D01*
X84964265Y-104743940D01*
X84643588Y-104729939D01*
X84591897Y-104727682D01*
X84580948Y-104726724D01*
X84181396Y-104674122D01*
X84170587Y-104672215D01*
X83777145Y-104584992D01*
X83766528Y-104582147D01*
X83382187Y-104460964D01*
X83371872Y-104457211D01*
X82999532Y-104302983D01*
X82989588Y-104298345D01*
X82632132Y-104112265D01*
X82622613Y-104106770D01*
X82282738Y-103890245D01*
X82273734Y-103883941D01*
X82188336Y-103818413D01*
X81954007Y-103638607D01*
X81945603Y-103631555D01*
X81797038Y-103495419D01*
X81648481Y-103359291D01*
X81640709Y-103351519D01*
X81504580Y-103202962D01*
X81368445Y-103054397D01*
X81361393Y-103045993D01*
X81116059Y-102726266D01*
X81109755Y-102717262D01*
X80893230Y-102377387D01*
X80887734Y-102367867D01*
X80701659Y-102010421D01*
X80697013Y-102000459D01*
X80542792Y-101628135D01*
X80539033Y-101617806D01*
X80417853Y-101233472D01*
X80415008Y-101222854D01*
X80327786Y-100829421D01*
X80325877Y-100818596D01*
X80273276Y-100419052D01*
X80272318Y-100408102D01*
X80256060Y-100035735D01*
X80257065Y-100022599D01*
X80257065Y-100012170D01*
X80259486Y-100000000D01*
X80256921Y-99987103D01*
X80254500Y-99962524D01*
X80254500Y-95182966D01*
X102218257Y-95182966D01*
X102248565Y-95317446D01*
X102251645Y-95327275D01*
X102331770Y-95524603D01*
X102336413Y-95533794D01*
X102447694Y-95715388D01*
X102453777Y-95723699D01*
X102593213Y-95884667D01*
X102600580Y-95891883D01*
X102764434Y-96027916D01*
X102772881Y-96033831D01*
X102956756Y-96141279D01*
X102966042Y-96145729D01*
X103165001Y-96221703D01*
X103174899Y-96224579D01*
X103278250Y-96245606D01*
X103292299Y-96244410D01*
X103296000Y-96234065D01*
X103296000Y-96233517D01*
X103804000Y-96233517D01*
X103808064Y-96247359D01*
X103821478Y-96249393D01*
X103828184Y-96248534D01*
X103838262Y-96246392D01*
X104042255Y-96185191D01*
X104051842Y-96181433D01*
X104243095Y-96087739D01*
X104251945Y-96082464D01*
X104425328Y-95958792D01*
X104433200Y-95952139D01*
X104584052Y-95801812D01*
X104590730Y-95793965D01*
X104715003Y-95621020D01*
X104720313Y-95612183D01*
X104814670Y-95421267D01*
X104818469Y-95411672D01*
X104835066Y-95357047D01*
X104874007Y-95297683D01*
X104938862Y-95268796D01*
X105009038Y-95279558D01*
X105062256Y-95326551D01*
X105070048Y-95340922D01*
X105129377Y-95469616D01*
X105246533Y-95635389D01*
X105391938Y-95777035D01*
X105560720Y-95889812D01*
X105566023Y-95892090D01*
X105566026Y-95892092D01*
X105741921Y-95967662D01*
X105747228Y-95969942D01*
X105820244Y-95986464D01*
X105939579Y-96013467D01*
X105939584Y-96013468D01*
X105945216Y-96014742D01*
X105950987Y-96014969D01*
X105950989Y-96014969D01*
X106010756Y-96017317D01*
X106148053Y-96022712D01*
X106248499Y-96008148D01*
X106343231Y-95994413D01*
X106343236Y-95994412D01*
X106348945Y-95993584D01*
X106354409Y-95991729D01*
X106354414Y-95991728D01*
X106535693Y-95930192D01*
X106535698Y-95930190D01*
X106541165Y-95928334D01*
X106718276Y-95829147D01*
X106780934Y-95777035D01*
X106852456Y-95717550D01*
X106874345Y-95699345D01*
X107004147Y-95543276D01*
X107082354Y-95403627D01*
X107100510Y-95371208D01*
X107100511Y-95371206D01*
X107103334Y-95366165D01*
X107105190Y-95360698D01*
X107105192Y-95360693D01*
X107166728Y-95179414D01*
X107166729Y-95179409D01*
X107168584Y-95173945D01*
X107169412Y-95168236D01*
X107169413Y-95168231D01*
X107197179Y-94976727D01*
X107197712Y-94973053D01*
X107199232Y-94915000D01*
X107196564Y-94885964D01*
X107521148Y-94885964D01*
X107534424Y-95088522D01*
X107535845Y-95094118D01*
X107535846Y-95094123D01*
X107562187Y-95197837D01*
X107584392Y-95285269D01*
X107586809Y-95290512D01*
X107622032Y-95366916D01*
X107669377Y-95469616D01*
X107786533Y-95635389D01*
X107931938Y-95777035D01*
X108100720Y-95889812D01*
X108106023Y-95892090D01*
X108106026Y-95892092D01*
X108281921Y-95967662D01*
X108287228Y-95969942D01*
X108360244Y-95986464D01*
X108479579Y-96013467D01*
X108479584Y-96013468D01*
X108485216Y-96014742D01*
X108490987Y-96014969D01*
X108490989Y-96014969D01*
X108550756Y-96017317D01*
X108688053Y-96022712D01*
X108788499Y-96008148D01*
X108883231Y-95994413D01*
X108883236Y-95994412D01*
X108888945Y-95993584D01*
X108894409Y-95991729D01*
X108894414Y-95991728D01*
X109075693Y-95930192D01*
X109075698Y-95930190D01*
X109081165Y-95928334D01*
X109258276Y-95829147D01*
X109320934Y-95777035D01*
X109392456Y-95717550D01*
X109414345Y-95699345D01*
X109544147Y-95543276D01*
X109622354Y-95403627D01*
X109640510Y-95371208D01*
X109640511Y-95371206D01*
X109643334Y-95366165D01*
X109645190Y-95360698D01*
X109645192Y-95360693D01*
X109706728Y-95179414D01*
X109706729Y-95179409D01*
X109708584Y-95173945D01*
X109709412Y-95168236D01*
X109709413Y-95168231D01*
X109737179Y-94976727D01*
X109737712Y-94973053D01*
X109739232Y-94915000D01*
X109725715Y-94767891D01*
X109721187Y-94718613D01*
X109721186Y-94718610D01*
X109720658Y-94712859D01*
X109719090Y-94707299D01*
X109667125Y-94523046D01*
X109667124Y-94523044D01*
X109665557Y-94517487D01*
X109654978Y-94496033D01*
X109578331Y-94340609D01*
X109575776Y-94335428D01*
X109560561Y-94315052D01*
X109481077Y-94208611D01*
X109454320Y-94172779D01*
X109305258Y-94034987D01*
X109300375Y-94031906D01*
X109300371Y-94031903D01*
X109138464Y-93929748D01*
X109133581Y-93926667D01*
X108945039Y-93851446D01*
X108939379Y-93850320D01*
X108939375Y-93850319D01*
X108751613Y-93812971D01*
X108751610Y-93812971D01*
X108745946Y-93811844D01*
X108740171Y-93811768D01*
X108740167Y-93811768D01*
X108638793Y-93810441D01*
X108542971Y-93809187D01*
X108537274Y-93810166D01*
X108537273Y-93810166D01*
X108430367Y-93828536D01*
X108342910Y-93843564D01*
X108152463Y-93913824D01*
X107978010Y-94017612D01*
X107973670Y-94021418D01*
X107973666Y-94021421D01*
X107847527Y-94132043D01*
X107825392Y-94151455D01*
X107699720Y-94310869D01*
X107697031Y-94315980D01*
X107697029Y-94315983D01*
X107684073Y-94340609D01*
X107605203Y-94490515D01*
X107545007Y-94684378D01*
X107521148Y-94885964D01*
X107196564Y-94885964D01*
X107185715Y-94767891D01*
X107181187Y-94718613D01*
X107181186Y-94718610D01*
X107180658Y-94712859D01*
X107179090Y-94707299D01*
X107127125Y-94523046D01*
X107127124Y-94523044D01*
X107125557Y-94517487D01*
X107114978Y-94496033D01*
X107038331Y-94340609D01*
X107035776Y-94335428D01*
X107020561Y-94315052D01*
X106941077Y-94208611D01*
X106914320Y-94172779D01*
X106765258Y-94034987D01*
X106760375Y-94031906D01*
X106760371Y-94031903D01*
X106598464Y-93929748D01*
X106593581Y-93926667D01*
X106405039Y-93851446D01*
X106399379Y-93850320D01*
X106399375Y-93850319D01*
X106211613Y-93812971D01*
X106211610Y-93812971D01*
X106205946Y-93811844D01*
X106200171Y-93811768D01*
X106200167Y-93811768D01*
X106098793Y-93810441D01*
X106002971Y-93809187D01*
X105997274Y-93810166D01*
X105997273Y-93810166D01*
X105890367Y-93828536D01*
X105802910Y-93843564D01*
X105612463Y-93913824D01*
X105438010Y-94017612D01*
X105433670Y-94021418D01*
X105433666Y-94021421D01*
X105307527Y-94132043D01*
X105285392Y-94151455D01*
X105159720Y-94310869D01*
X105157031Y-94315980D01*
X105157029Y-94315983D01*
X105067589Y-94485980D01*
X105018170Y-94536952D01*
X104949037Y-94553115D01*
X104882141Y-94529336D01*
X104842003Y-94474973D01*
X104839955Y-94475863D01*
X104752972Y-94275814D01*
X104748105Y-94266739D01*
X104632426Y-94087926D01*
X104626136Y-94079757D01*
X104481931Y-93921279D01*
X104450879Y-93857433D01*
X104459273Y-93786934D01*
X104504450Y-93732166D01*
X104530894Y-93718497D01*
X104638054Y-93678324D01*
X104653649Y-93669786D01*
X104755724Y-93593285D01*
X104768285Y-93580724D01*
X104844786Y-93478649D01*
X104853324Y-93463054D01*
X104898478Y-93342606D01*
X104902105Y-93327351D01*
X104907631Y-93276486D01*
X104908000Y-93269672D01*
X104908000Y-93012976D01*
X104928002Y-92944855D01*
X104981658Y-92898362D01*
X105051932Y-92888258D01*
X105116512Y-92917752D01*
X105136895Y-92940254D01*
X105246533Y-93095389D01*
X105250675Y-93099424D01*
X105307637Y-93154913D01*
X105391938Y-93237035D01*
X105396742Y-93240245D01*
X105450980Y-93276486D01*
X105560720Y-93349812D01*
X105566023Y-93352090D01*
X105566026Y-93352092D01*
X105741921Y-93427662D01*
X105747228Y-93429942D01*
X105820244Y-93446464D01*
X105939579Y-93473467D01*
X105939584Y-93473468D01*
X105945216Y-93474742D01*
X105950987Y-93474969D01*
X105950989Y-93474969D01*
X106010756Y-93477317D01*
X106148053Y-93482712D01*
X106248499Y-93468148D01*
X106343231Y-93454413D01*
X106343236Y-93454412D01*
X106348945Y-93453584D01*
X106354409Y-93451729D01*
X106354414Y-93451728D01*
X106535693Y-93390192D01*
X106535698Y-93390190D01*
X106541165Y-93388334D01*
X106718276Y-93289147D01*
X106733495Y-93276490D01*
X106847038Y-93182056D01*
X106874345Y-93159345D01*
X107004147Y-93003276D01*
X107103334Y-92826165D01*
X107105190Y-92820698D01*
X107105192Y-92820693D01*
X107166728Y-92639414D01*
X107166729Y-92639409D01*
X107168584Y-92633945D01*
X107169412Y-92628236D01*
X107169413Y-92628231D01*
X107197179Y-92436727D01*
X107197712Y-92433053D01*
X107199232Y-92375000D01*
X107196564Y-92345964D01*
X107521148Y-92345964D01*
X107534424Y-92548522D01*
X107535845Y-92554118D01*
X107535846Y-92554123D01*
X107562187Y-92657837D01*
X107584392Y-92745269D01*
X107586809Y-92750512D01*
X107624010Y-92831208D01*
X107669377Y-92929616D01*
X107786533Y-93095389D01*
X107790675Y-93099424D01*
X107847637Y-93154913D01*
X107931938Y-93237035D01*
X107936742Y-93240245D01*
X107990980Y-93276486D01*
X108100720Y-93349812D01*
X108106023Y-93352090D01*
X108106026Y-93352092D01*
X108281921Y-93427662D01*
X108287228Y-93429942D01*
X108360244Y-93446464D01*
X108479579Y-93473467D01*
X108479584Y-93473468D01*
X108485216Y-93474742D01*
X108490987Y-93474969D01*
X108490989Y-93474969D01*
X108550756Y-93477317D01*
X108688053Y-93482712D01*
X108788499Y-93468148D01*
X108883231Y-93454413D01*
X108883236Y-93454412D01*
X108888945Y-93453584D01*
X108894409Y-93451729D01*
X108894414Y-93451728D01*
X109075693Y-93390192D01*
X109075698Y-93390190D01*
X109081165Y-93388334D01*
X109258276Y-93289147D01*
X109273495Y-93276490D01*
X109387038Y-93182056D01*
X109414345Y-93159345D01*
X109544147Y-93003276D01*
X109643334Y-92826165D01*
X109645190Y-92820698D01*
X109645192Y-92820693D01*
X109706728Y-92639414D01*
X109706729Y-92639409D01*
X109708584Y-92633945D01*
X109709412Y-92628236D01*
X109709413Y-92628231D01*
X109737179Y-92436727D01*
X109737712Y-92433053D01*
X109739232Y-92375000D01*
X109720658Y-92172859D01*
X109719090Y-92167299D01*
X109667125Y-91983046D01*
X109667124Y-91983044D01*
X109665557Y-91977487D01*
X109654978Y-91956033D01*
X109578331Y-91800609D01*
X109575776Y-91795428D01*
X109454320Y-91632779D01*
X109305258Y-91494987D01*
X109300375Y-91491906D01*
X109300371Y-91491903D01*
X109138464Y-91389748D01*
X109133581Y-91386667D01*
X108945039Y-91311446D01*
X108939379Y-91310320D01*
X108939375Y-91310319D01*
X108751613Y-91272971D01*
X108751610Y-91272971D01*
X108745946Y-91271844D01*
X108740171Y-91271768D01*
X108740167Y-91271768D01*
X108638793Y-91270441D01*
X108542971Y-91269187D01*
X108537274Y-91270166D01*
X108537273Y-91270166D01*
X108439620Y-91286946D01*
X108342910Y-91303564D01*
X108152463Y-91373824D01*
X107978010Y-91477612D01*
X107973670Y-91481418D01*
X107973666Y-91481421D01*
X107875500Y-91567511D01*
X107825392Y-91611455D01*
X107699720Y-91770869D01*
X107697031Y-91775980D01*
X107697029Y-91775983D01*
X107685507Y-91797883D01*
X107605203Y-91950515D01*
X107545007Y-92144378D01*
X107521148Y-92345964D01*
X107196564Y-92345964D01*
X107180658Y-92172859D01*
X107179090Y-92167299D01*
X107127125Y-91983046D01*
X107127124Y-91983044D01*
X107125557Y-91977487D01*
X107114978Y-91956033D01*
X107038331Y-91800609D01*
X107035776Y-91795428D01*
X106914320Y-91632779D01*
X106765258Y-91494987D01*
X106760375Y-91491906D01*
X106760371Y-91491903D01*
X106598464Y-91389748D01*
X106593581Y-91386667D01*
X106405039Y-91311446D01*
X106399379Y-91310320D01*
X106399375Y-91310319D01*
X106211613Y-91272971D01*
X106211610Y-91272971D01*
X106205946Y-91271844D01*
X106200171Y-91271768D01*
X106200167Y-91271768D01*
X106098793Y-91270441D01*
X106002971Y-91269187D01*
X105997274Y-91270166D01*
X105997273Y-91270166D01*
X105899620Y-91286946D01*
X105802910Y-91303564D01*
X105612463Y-91373824D01*
X105438010Y-91477612D01*
X105433670Y-91481418D01*
X105433666Y-91481421D01*
X105335500Y-91567511D01*
X105285392Y-91611455D01*
X105159720Y-91770869D01*
X105157031Y-91775980D01*
X105157029Y-91775983D01*
X105145507Y-91797883D01*
X105096087Y-91848856D01*
X105026955Y-91865018D01*
X104960059Y-91841239D01*
X104916638Y-91785068D01*
X104907999Y-91739215D01*
X104907999Y-91480331D01*
X104907629Y-91473510D01*
X104902105Y-91422648D01*
X104898479Y-91407396D01*
X104853324Y-91286946D01*
X104844786Y-91271351D01*
X104768285Y-91169276D01*
X104755724Y-91156715D01*
X104653649Y-91080214D01*
X104638054Y-91071676D01*
X104517606Y-91026522D01*
X104502351Y-91022895D01*
X104451486Y-91017369D01*
X104444672Y-91017000D01*
X103822115Y-91017000D01*
X103806876Y-91021475D01*
X103805671Y-91022865D01*
X103804000Y-91030548D01*
X103804000Y-96233517D01*
X103296000Y-96233517D01*
X103296000Y-95187115D01*
X103291525Y-95171876D01*
X103290135Y-95170671D01*
X103282452Y-95169000D01*
X102233225Y-95169000D01*
X102219694Y-95172973D01*
X102218257Y-95182966D01*
X80254500Y-95182966D01*
X80254500Y-93269669D01*
X102192001Y-93269669D01*
X102192371Y-93276490D01*
X102197895Y-93327352D01*
X102201521Y-93342604D01*
X102246676Y-93463054D01*
X102255214Y-93478649D01*
X102331715Y-93580724D01*
X102344276Y-93593285D01*
X102446351Y-93669786D01*
X102461946Y-93678324D01*
X102571337Y-93719333D01*
X102628101Y-93761975D01*
X102652801Y-93828536D01*
X102637594Y-93897885D01*
X102618201Y-93924366D01*
X102494590Y-94053717D01*
X102488104Y-94061727D01*
X102368098Y-94237649D01*
X102363000Y-94246623D01*
X102273338Y-94439783D01*
X102269775Y-94449470D01*
X102214389Y-94649183D01*
X102215912Y-94657607D01*
X102228292Y-94661000D01*
X103277885Y-94661000D01*
X103293124Y-94656525D01*
X103294329Y-94655135D01*
X103296000Y-94647452D01*
X103296000Y-92647115D01*
X103291525Y-92631876D01*
X103290135Y-92630671D01*
X103282452Y-92629000D01*
X102210116Y-92629000D01*
X102194877Y-92633475D01*
X102193672Y-92634865D01*
X102192001Y-92642548D01*
X102192001Y-93269669D01*
X80254500Y-93269669D01*
X80254500Y-92102885D01*
X102192000Y-92102885D01*
X102196475Y-92118124D01*
X102197865Y-92119329D01*
X102205548Y-92121000D01*
X103277885Y-92121000D01*
X103293124Y-92116525D01*
X103294329Y-92115135D01*
X103296000Y-92107452D01*
X103296000Y-91035116D01*
X103291525Y-91019877D01*
X103290135Y-91018672D01*
X103282452Y-91017001D01*
X102655331Y-91017001D01*
X102648510Y-91017371D01*
X102597648Y-91022895D01*
X102582396Y-91026521D01*
X102461946Y-91071676D01*
X102446351Y-91080214D01*
X102344276Y-91156715D01*
X102331715Y-91169276D01*
X102255214Y-91271351D01*
X102246676Y-91286946D01*
X102201522Y-91407394D01*
X102197895Y-91422649D01*
X102192369Y-91473514D01*
X102192000Y-91480328D01*
X102192000Y-92102885D01*
X80254500Y-92102885D01*
X80254500Y-82543096D01*
X94590729Y-82543096D01*
X94593016Y-82563807D01*
X94603518Y-82658930D01*
X94608113Y-82700553D01*
X94662553Y-82849319D01*
X94750908Y-82980805D01*
X94868076Y-83087419D01*
X95007293Y-83163008D01*
X95160522Y-83203207D01*
X95257138Y-83204725D01*
X95318772Y-83205693D01*
X95386570Y-83226762D01*
X95405888Y-83242582D01*
X95893522Y-83730216D01*
X95908664Y-83748964D01*
X95909779Y-83750189D01*
X95915429Y-83758940D01*
X95923607Y-83765387D01*
X95923609Y-83765389D01*
X95941800Y-83779729D01*
X95946241Y-83783675D01*
X95946303Y-83783602D01*
X95950267Y-83786961D01*
X95953944Y-83790638D01*
X95969692Y-83801892D01*
X95974362Y-83805398D01*
X96014647Y-83837156D01*
X96023281Y-83840188D01*
X96030734Y-83845514D01*
X96079850Y-83860203D01*
X96085492Y-83862036D01*
X96126199Y-83876331D01*
X96133851Y-83879018D01*
X96139416Y-83879500D01*
X96142124Y-83879500D01*
X96144758Y-83879614D01*
X96144856Y-83879643D01*
X96144849Y-83879807D01*
X96145553Y-83879851D01*
X96151778Y-83881713D01*
X96205635Y-83879597D01*
X96210582Y-83879500D01*
X104946080Y-83879500D01*
X104970028Y-83882049D01*
X104971693Y-83882128D01*
X104981876Y-83884320D01*
X104992217Y-83883096D01*
X105015223Y-83880373D01*
X105021154Y-83880023D01*
X105021146Y-83879928D01*
X105026324Y-83879500D01*
X105031524Y-83879500D01*
X105036653Y-83878646D01*
X105036656Y-83878646D01*
X105050565Y-83876331D01*
X105056443Y-83875494D01*
X105097001Y-83870694D01*
X105097002Y-83870694D01*
X105107341Y-83869470D01*
X105115593Y-83865507D01*
X105124626Y-83864004D01*
X105133795Y-83859057D01*
X105133797Y-83859056D01*
X105169732Y-83839666D01*
X105175025Y-83836969D01*
X105214082Y-83818215D01*
X105214086Y-83818212D01*
X105221232Y-83814781D01*
X105225508Y-83811186D01*
X105227431Y-83809263D01*
X105229363Y-83807491D01*
X105229442Y-83807448D01*
X105229555Y-83807572D01*
X105230095Y-83807096D01*
X105235814Y-83804010D01*
X105272417Y-83764413D01*
X105275846Y-83760848D01*
X107474549Y-81562145D01*
X107536861Y-81528119D01*
X107607676Y-81533184D01*
X107623766Y-81540509D01*
X107663615Y-81562145D01*
X107757293Y-81613008D01*
X107910522Y-81653207D01*
X107994477Y-81654526D01*
X108061319Y-81655576D01*
X108061322Y-81655576D01*
X108068916Y-81655695D01*
X108223332Y-81620329D01*
X108293742Y-81584917D01*
X108358072Y-81552563D01*
X108358075Y-81552561D01*
X108364855Y-81549151D01*
X108417656Y-81504055D01*
X108482445Y-81475024D01*
X108552645Y-81485629D01*
X108584285Y-81506672D01*
X108618076Y-81537419D01*
X108757293Y-81613008D01*
X108910522Y-81653207D01*
X108994477Y-81654526D01*
X109061319Y-81655576D01*
X109061322Y-81655576D01*
X109068916Y-81655695D01*
X109223332Y-81620329D01*
X109293742Y-81584917D01*
X109358072Y-81552563D01*
X109358075Y-81552561D01*
X109364855Y-81549151D01*
X109370626Y-81544222D01*
X109370629Y-81544220D01*
X109479536Y-81451204D01*
X109479536Y-81451203D01*
X109485314Y-81446269D01*
X109577755Y-81317624D01*
X109636842Y-81170641D01*
X109659162Y-81013807D01*
X109659307Y-81000000D01*
X109640276Y-80842733D01*
X109584280Y-80694546D01*
X109560767Y-80660334D01*
X109498855Y-80570251D01*
X109498854Y-80570249D01*
X109494553Y-80563992D01*
X109483167Y-80553847D01*
X109439595Y-80515027D01*
X109376275Y-80458611D01*
X109368889Y-80454700D01*
X109242988Y-80388039D01*
X109242989Y-80388039D01*
X109236274Y-80384484D01*
X109082633Y-80345892D01*
X109075034Y-80345852D01*
X109075033Y-80345852D01*
X109009181Y-80345507D01*
X108924221Y-80345062D01*
X108916841Y-80346834D01*
X108916839Y-80346834D01*
X108777563Y-80380271D01*
X108777560Y-80380272D01*
X108770184Y-80382043D01*
X108629414Y-80454700D01*
X108623695Y-80459689D01*
X108582999Y-80495190D01*
X108518516Y-80524897D01*
X108448209Y-80515027D01*
X108416352Y-80494317D01*
X108381951Y-80463667D01*
X108381945Y-80463663D01*
X108376275Y-80458611D01*
X108368889Y-80454700D01*
X108242988Y-80388039D01*
X108242989Y-80388039D01*
X108236274Y-80384484D01*
X108082633Y-80345892D01*
X108075034Y-80345852D01*
X108075033Y-80345852D01*
X108009181Y-80345507D01*
X107924221Y-80345062D01*
X107916841Y-80346834D01*
X107916839Y-80346834D01*
X107777563Y-80380271D01*
X107777560Y-80380272D01*
X107770184Y-80382043D01*
X107629414Y-80454700D01*
X107510039Y-80558838D01*
X107505674Y-80565049D01*
X107498102Y-80575823D01*
X107442566Y-80620054D01*
X107409828Y-80628497D01*
X107403005Y-80629305D01*
X107403002Y-80629306D01*
X107392659Y-80630530D01*
X107384407Y-80634493D01*
X107375374Y-80635996D01*
X107366205Y-80640943D01*
X107366203Y-80640944D01*
X107330268Y-80660334D01*
X107324975Y-80663031D01*
X107285918Y-80681785D01*
X107285914Y-80681788D01*
X107278768Y-80685219D01*
X107274492Y-80688814D01*
X107272569Y-80690737D01*
X107270637Y-80692509D01*
X107270558Y-80692552D01*
X107270445Y-80692428D01*
X107269905Y-80692904D01*
X107264186Y-80695990D01*
X107257119Y-80703635D01*
X107227584Y-80735586D01*
X107224154Y-80739152D01*
X104879711Y-83083595D01*
X104817399Y-83117621D01*
X104790616Y-83120500D01*
X96409384Y-83120500D01*
X96341263Y-83100498D01*
X96320289Y-83083595D01*
X95940143Y-82703449D01*
X95906117Y-82641137D01*
X95904495Y-82596601D01*
X95908581Y-82567892D01*
X95908581Y-82567886D01*
X95909162Y-82563807D01*
X95909307Y-82550000D01*
X95890276Y-82392733D01*
X95834280Y-82244546D01*
X95744553Y-82113992D01*
X95626275Y-82008611D01*
X95618889Y-82004700D01*
X95492988Y-81938039D01*
X95492989Y-81938039D01*
X95486274Y-81934484D01*
X95332633Y-81895892D01*
X95325034Y-81895852D01*
X95325033Y-81895852D01*
X95259181Y-81895507D01*
X95174221Y-81895062D01*
X95166841Y-81896834D01*
X95166839Y-81896834D01*
X95027563Y-81930271D01*
X95027560Y-81930272D01*
X95020184Y-81932043D01*
X94879414Y-82004700D01*
X94760039Y-82108838D01*
X94668950Y-82238444D01*
X94611406Y-82386037D01*
X94590729Y-82543096D01*
X80254500Y-82543096D01*
X80254500Y-74372689D01*
X105815826Y-74372689D01*
X105816419Y-74379980D01*
X105816419Y-74379983D01*
X105820085Y-74425048D01*
X105820500Y-74435263D01*
X105820500Y-74443253D01*
X105820925Y-74446897D01*
X105823771Y-74471313D01*
X105824204Y-74475687D01*
X105830090Y-74548047D01*
X105832345Y-74555009D01*
X105833518Y-74560877D01*
X105834890Y-74566684D01*
X105835738Y-74573954D01*
X105860532Y-74642260D01*
X105861940Y-74646363D01*
X105884312Y-74715422D01*
X105888109Y-74721679D01*
X105890602Y-74727126D01*
X105893270Y-74732454D01*
X105895768Y-74739334D01*
X105899782Y-74745456D01*
X105935568Y-74800039D01*
X105937915Y-74803759D01*
X105975583Y-74865833D01*
X105979295Y-74870036D01*
X105982949Y-74874174D01*
X105982924Y-74874196D01*
X105985624Y-74877241D01*
X105988220Y-74880346D01*
X105992234Y-74886468D01*
X105997547Y-74891501D01*
X106048126Y-74939415D01*
X106050568Y-74941793D01*
X110378595Y-79269819D01*
X110412621Y-79332131D01*
X110415500Y-79358914D01*
X110415500Y-91510422D01*
X110395498Y-91578543D01*
X110372582Y-91605150D01*
X110365392Y-91611455D01*
X110239720Y-91770869D01*
X110237031Y-91775980D01*
X110237029Y-91775983D01*
X110225507Y-91797883D01*
X110145203Y-91950515D01*
X110085007Y-92144378D01*
X110061148Y-92345964D01*
X110074424Y-92548522D01*
X110075845Y-92554118D01*
X110075846Y-92554123D01*
X110102187Y-92657837D01*
X110124392Y-92745269D01*
X110126809Y-92750512D01*
X110164010Y-92831208D01*
X110209377Y-92929616D01*
X110326533Y-93095389D01*
X110377423Y-93144963D01*
X110412259Y-93206821D01*
X110415500Y-93235215D01*
X110415500Y-94050422D01*
X110395498Y-94118543D01*
X110372582Y-94145150D01*
X110365392Y-94151455D01*
X110239720Y-94310869D01*
X110237031Y-94315980D01*
X110237029Y-94315983D01*
X110224073Y-94340609D01*
X110145203Y-94490515D01*
X110085007Y-94684378D01*
X110061148Y-94885964D01*
X110074424Y-95088522D01*
X110075845Y-95094118D01*
X110075846Y-95094123D01*
X110102187Y-95197837D01*
X110124392Y-95285269D01*
X110126809Y-95290512D01*
X110162032Y-95366916D01*
X110209377Y-95469616D01*
X110326533Y-95635389D01*
X110471938Y-95777035D01*
X110640720Y-95889812D01*
X110646023Y-95892090D01*
X110646026Y-95892092D01*
X110821921Y-95967662D01*
X110827228Y-95969942D01*
X110900244Y-95986464D01*
X111019579Y-96013467D01*
X111019584Y-96013468D01*
X111025216Y-96014742D01*
X111030987Y-96014969D01*
X111030989Y-96014969D01*
X111090756Y-96017317D01*
X111228053Y-96022712D01*
X111328499Y-96008148D01*
X111423231Y-95994413D01*
X111423236Y-95994412D01*
X111428945Y-95993584D01*
X111434409Y-95991729D01*
X111434414Y-95991728D01*
X111615693Y-95930192D01*
X111615698Y-95930190D01*
X111621165Y-95928334D01*
X111798276Y-95829147D01*
X111860934Y-95777035D01*
X111932456Y-95717550D01*
X111954345Y-95699345D01*
X112084147Y-95543276D01*
X112162354Y-95403627D01*
X112180510Y-95371208D01*
X112180511Y-95371206D01*
X112183334Y-95366165D01*
X112185190Y-95360698D01*
X112185192Y-95360693D01*
X112246728Y-95179414D01*
X112246729Y-95179409D01*
X112248584Y-95173945D01*
X112249412Y-95168236D01*
X112249413Y-95168231D01*
X112277179Y-94976727D01*
X112277712Y-94973053D01*
X112279232Y-94915000D01*
X112276564Y-94885964D01*
X112601148Y-94885964D01*
X112614424Y-95088522D01*
X112615845Y-95094118D01*
X112615846Y-95094123D01*
X112642187Y-95197837D01*
X112664392Y-95285269D01*
X112666809Y-95290512D01*
X112702032Y-95366916D01*
X112749377Y-95469616D01*
X112866533Y-95635389D01*
X113011938Y-95777035D01*
X113180720Y-95889812D01*
X113186023Y-95892090D01*
X113186026Y-95892092D01*
X113361921Y-95967662D01*
X113367228Y-95969942D01*
X113440244Y-95986464D01*
X113559579Y-96013467D01*
X113559584Y-96013468D01*
X113565216Y-96014742D01*
X113570987Y-96014969D01*
X113570989Y-96014969D01*
X113630756Y-96017317D01*
X113768053Y-96022712D01*
X113868499Y-96008148D01*
X113963231Y-95994413D01*
X113963236Y-95994412D01*
X113968945Y-95993584D01*
X113974409Y-95991729D01*
X113974414Y-95991728D01*
X114155693Y-95930192D01*
X114155698Y-95930190D01*
X114161165Y-95928334D01*
X114338276Y-95829147D01*
X114400934Y-95777035D01*
X114472456Y-95717550D01*
X114494345Y-95699345D01*
X114624147Y-95543276D01*
X114702354Y-95403627D01*
X114720510Y-95371208D01*
X114720511Y-95371206D01*
X114723334Y-95366165D01*
X114725190Y-95360698D01*
X114725192Y-95360693D01*
X114786728Y-95179414D01*
X114786729Y-95179409D01*
X114788584Y-95173945D01*
X114789412Y-95168236D01*
X114789413Y-95168231D01*
X114817179Y-94976727D01*
X114817712Y-94973053D01*
X114819232Y-94915000D01*
X114816564Y-94885964D01*
X115141148Y-94885964D01*
X115154424Y-95088522D01*
X115155845Y-95094118D01*
X115155846Y-95094123D01*
X115182187Y-95197837D01*
X115204392Y-95285269D01*
X115206809Y-95290512D01*
X115242032Y-95366916D01*
X115289377Y-95469616D01*
X115406533Y-95635389D01*
X115551938Y-95777035D01*
X115720720Y-95889812D01*
X115726023Y-95892090D01*
X115726026Y-95892092D01*
X115901921Y-95967662D01*
X115907228Y-95969942D01*
X115980244Y-95986464D01*
X116099579Y-96013467D01*
X116099584Y-96013468D01*
X116105216Y-96014742D01*
X116110987Y-96014969D01*
X116110989Y-96014969D01*
X116170756Y-96017317D01*
X116308053Y-96022712D01*
X116408499Y-96008148D01*
X116503231Y-95994413D01*
X116503236Y-95994412D01*
X116508945Y-95993584D01*
X116514409Y-95991729D01*
X116514414Y-95991728D01*
X116695693Y-95930192D01*
X116695698Y-95930190D01*
X116701165Y-95928334D01*
X116878276Y-95829147D01*
X116940934Y-95777035D01*
X117012456Y-95717550D01*
X117034345Y-95699345D01*
X117164147Y-95543276D01*
X117242354Y-95403627D01*
X117260510Y-95371208D01*
X117260511Y-95371206D01*
X117263334Y-95366165D01*
X117265190Y-95360698D01*
X117265192Y-95360693D01*
X117326728Y-95179414D01*
X117326729Y-95179409D01*
X117328584Y-95173945D01*
X117329412Y-95168236D01*
X117329413Y-95168231D01*
X117357179Y-94976727D01*
X117357712Y-94973053D01*
X117359232Y-94915000D01*
X117356564Y-94885964D01*
X117681148Y-94885964D01*
X117694424Y-95088522D01*
X117695845Y-95094118D01*
X117695846Y-95094123D01*
X117722187Y-95197837D01*
X117744392Y-95285269D01*
X117746809Y-95290512D01*
X117782032Y-95366916D01*
X117829377Y-95469616D01*
X117946533Y-95635389D01*
X118091938Y-95777035D01*
X118260720Y-95889812D01*
X118266023Y-95892090D01*
X118266028Y-95892093D01*
X118334237Y-95921397D01*
X118388930Y-95966665D01*
X118410500Y-96037165D01*
X118410500Y-96866080D01*
X118407951Y-96890028D01*
X118407872Y-96891693D01*
X118405680Y-96901876D01*
X118406904Y-96912217D01*
X118409627Y-96935223D01*
X118409977Y-96941154D01*
X118410072Y-96941146D01*
X118410500Y-96946324D01*
X118410500Y-96951524D01*
X118411354Y-96956653D01*
X118411354Y-96956656D01*
X118413669Y-96970565D01*
X118414506Y-96976443D01*
X118417172Y-96998964D01*
X118420530Y-97027341D01*
X118424493Y-97035593D01*
X118425996Y-97044626D01*
X118430943Y-97053795D01*
X118430944Y-97053797D01*
X118450334Y-97089732D01*
X118453031Y-97095025D01*
X118471785Y-97134082D01*
X118471788Y-97134086D01*
X118475219Y-97141232D01*
X118478814Y-97145508D01*
X118480737Y-97147431D01*
X118482509Y-97149363D01*
X118482552Y-97149442D01*
X118482428Y-97149555D01*
X118482904Y-97150095D01*
X118485990Y-97155814D01*
X118493635Y-97162881D01*
X118525586Y-97192416D01*
X118529152Y-97195846D01*
X119563522Y-98230216D01*
X119578664Y-98248964D01*
X119579779Y-98250189D01*
X119585429Y-98258940D01*
X119593607Y-98265387D01*
X119593609Y-98265389D01*
X119611800Y-98279729D01*
X119616241Y-98283675D01*
X119616303Y-98283602D01*
X119620267Y-98286961D01*
X119623944Y-98290638D01*
X119639692Y-98301892D01*
X119644362Y-98305398D01*
X119684647Y-98337156D01*
X119693281Y-98340188D01*
X119700734Y-98345514D01*
X119749850Y-98360203D01*
X119755492Y-98362036D01*
X119796367Y-98376390D01*
X119803851Y-98379018D01*
X119809416Y-98379500D01*
X119812124Y-98379500D01*
X119814758Y-98379614D01*
X119814856Y-98379643D01*
X119814849Y-98379807D01*
X119815553Y-98379851D01*
X119821778Y-98381713D01*
X119875635Y-98379597D01*
X119880582Y-98379500D01*
X132400141Y-98379500D01*
X132468262Y-98399502D01*
X132495522Y-98423169D01*
X132496672Y-98424501D01*
X132500908Y-98430805D01*
X132618076Y-98537419D01*
X132757293Y-98613008D01*
X132910522Y-98653207D01*
X132994477Y-98654526D01*
X133061319Y-98655576D01*
X133061322Y-98655576D01*
X133068916Y-98655695D01*
X133223332Y-98620329D01*
X133293742Y-98584917D01*
X133358072Y-98552563D01*
X133358075Y-98552561D01*
X133364855Y-98549151D01*
X133370626Y-98544222D01*
X133370629Y-98544220D01*
X133479536Y-98451204D01*
X133479536Y-98451203D01*
X133485314Y-98446269D01*
X133577755Y-98317624D01*
X133636842Y-98170641D01*
X133659162Y-98013807D01*
X133659307Y-98000000D01*
X133640276Y-97842733D01*
X133584280Y-97694546D01*
X133533390Y-97620500D01*
X133498855Y-97570251D01*
X133498854Y-97570249D01*
X133494553Y-97563992D01*
X133376275Y-97458611D01*
X133368889Y-97454700D01*
X133242988Y-97388039D01*
X133242989Y-97388039D01*
X133236274Y-97384484D01*
X133209282Y-97377704D01*
X133148087Y-97341709D01*
X133116066Y-97278343D01*
X133123387Y-97207725D01*
X133167724Y-97152275D01*
X133239978Y-97129500D01*
X134446080Y-97129500D01*
X134470028Y-97132049D01*
X134471693Y-97132128D01*
X134481876Y-97134320D01*
X134492217Y-97133096D01*
X134515223Y-97130373D01*
X134521154Y-97130023D01*
X134521146Y-97129928D01*
X134526324Y-97129500D01*
X134531524Y-97129500D01*
X134536653Y-97128646D01*
X134536656Y-97128646D01*
X134550565Y-97126331D01*
X134556443Y-97125494D01*
X134597001Y-97120694D01*
X134597002Y-97120694D01*
X134607341Y-97119470D01*
X134615593Y-97115507D01*
X134624626Y-97114004D01*
X134633795Y-97109057D01*
X134633797Y-97109056D01*
X134669732Y-97089666D01*
X134675025Y-97086969D01*
X134714082Y-97068215D01*
X134714086Y-97068212D01*
X134721232Y-97064781D01*
X134725508Y-97061186D01*
X134727431Y-97059263D01*
X134729363Y-97057491D01*
X134729442Y-97057448D01*
X134729555Y-97057572D01*
X134730095Y-97057096D01*
X134735814Y-97054010D01*
X134744489Y-97044626D01*
X134772416Y-97014414D01*
X134775846Y-97010848D01*
X136346178Y-95440516D01*
X136408490Y-95406490D01*
X136437252Y-95403627D01*
X136561318Y-95405576D01*
X136561321Y-95405576D01*
X136568916Y-95405695D01*
X136723332Y-95370329D01*
X136810376Y-95326551D01*
X136858072Y-95302563D01*
X136858075Y-95302561D01*
X136864855Y-95299151D01*
X136870626Y-95294222D01*
X136870629Y-95294220D01*
X136979536Y-95201204D01*
X136979536Y-95201203D01*
X136985314Y-95196269D01*
X137077755Y-95067624D01*
X137136842Y-94920641D01*
X137159162Y-94763807D01*
X137159307Y-94750000D01*
X137140276Y-94592733D01*
X137084280Y-94444546D01*
X137075814Y-94432228D01*
X136998855Y-94320251D01*
X136998854Y-94320249D01*
X136994553Y-94313992D01*
X136876275Y-94208611D01*
X136868889Y-94204700D01*
X136776893Y-94155991D01*
X136736274Y-94134484D01*
X136582633Y-94095892D01*
X136575034Y-94095852D01*
X136575033Y-94095852D01*
X136509181Y-94095507D01*
X136424221Y-94095062D01*
X136416841Y-94096834D01*
X136416839Y-94096834D01*
X136277563Y-94130271D01*
X136277560Y-94130272D01*
X136270184Y-94132043D01*
X136129414Y-94204700D01*
X136010039Y-94308838D01*
X135918950Y-94438444D01*
X135896497Y-94496033D01*
X135876486Y-94547360D01*
X135861406Y-94586037D01*
X135860414Y-94593570D01*
X135860414Y-94593571D01*
X135844710Y-94712859D01*
X135840729Y-94743096D01*
X135843544Y-94768591D01*
X135846963Y-94799566D01*
X135834557Y-94869470D01*
X135810819Y-94902487D01*
X134379711Y-96333595D01*
X134317399Y-96367621D01*
X134290616Y-96370500D01*
X127069510Y-96370500D01*
X127001389Y-96350498D01*
X126954896Y-96296842D01*
X126944792Y-96226568D01*
X126974286Y-96161988D01*
X127014077Y-96131349D01*
X127103095Y-96087739D01*
X127111945Y-96082464D01*
X127285328Y-95958792D01*
X127293200Y-95952139D01*
X127444052Y-95801812D01*
X127450730Y-95793965D01*
X127575003Y-95621020D01*
X127580313Y-95612183D01*
X127674670Y-95421267D01*
X127678469Y-95411672D01*
X127740377Y-95207910D01*
X127742555Y-95197837D01*
X127743986Y-95186962D01*
X127741775Y-95172778D01*
X127728617Y-95169000D01*
X126282000Y-95169000D01*
X126213879Y-95148998D01*
X126167386Y-95095342D01*
X126156000Y-95043000D01*
X126156000Y-94642885D01*
X126664000Y-94642885D01*
X126668475Y-94658124D01*
X126669865Y-94659329D01*
X126677548Y-94661000D01*
X127728344Y-94661000D01*
X127741875Y-94657027D01*
X127743180Y-94647947D01*
X127701214Y-94480875D01*
X127697894Y-94471124D01*
X127612972Y-94275814D01*
X127608105Y-94266739D01*
X127492426Y-94087926D01*
X127486136Y-94079757D01*
X127342806Y-93922240D01*
X127335273Y-93915215D01*
X127168139Y-93783222D01*
X127159552Y-93777517D01*
X127122116Y-93756851D01*
X127072146Y-93706419D01*
X127057374Y-93636976D01*
X127082490Y-93570571D01*
X127109842Y-93543964D01*
X127285327Y-93418792D01*
X127293200Y-93412139D01*
X127444052Y-93261812D01*
X127450730Y-93253965D01*
X127575003Y-93081020D01*
X127580313Y-93072183D01*
X127674670Y-92881267D01*
X127678469Y-92871672D01*
X127740377Y-92667910D01*
X127742555Y-92657837D01*
X127743986Y-92646962D01*
X127741775Y-92632778D01*
X127728617Y-92629000D01*
X126682115Y-92629000D01*
X126666876Y-92633475D01*
X126665671Y-92634865D01*
X126664000Y-92642548D01*
X126664000Y-94642885D01*
X126156000Y-94642885D01*
X126156000Y-92102885D01*
X126664000Y-92102885D01*
X126668475Y-92118124D01*
X126669865Y-92119329D01*
X126677548Y-92121000D01*
X127728344Y-92121000D01*
X127741875Y-92117027D01*
X127743180Y-92107947D01*
X127701214Y-91940875D01*
X127697894Y-91931124D01*
X127612972Y-91735814D01*
X127608105Y-91726739D01*
X127492426Y-91547926D01*
X127486136Y-91539757D01*
X127342806Y-91382240D01*
X127335273Y-91375215D01*
X127168139Y-91243222D01*
X127159552Y-91237517D01*
X126973117Y-91134599D01*
X126963705Y-91130369D01*
X126762959Y-91059280D01*
X126752988Y-91056646D01*
X126681837Y-91043972D01*
X126668540Y-91045432D01*
X126664000Y-91059989D01*
X126664000Y-92102885D01*
X126156000Y-92102885D01*
X126156000Y-91058102D01*
X126152082Y-91044758D01*
X126137806Y-91042771D01*
X126099324Y-91048660D01*
X126089288Y-91051051D01*
X125886868Y-91117212D01*
X125877359Y-91121209D01*
X125688463Y-91219542D01*
X125679738Y-91225036D01*
X125509433Y-91352905D01*
X125501726Y-91359748D01*
X125354590Y-91513717D01*
X125348104Y-91521727D01*
X125228098Y-91697649D01*
X125223000Y-91706623D01*
X125133338Y-91899783D01*
X125129777Y-91909464D01*
X125125291Y-91925640D01*
X125087813Y-91985939D01*
X125023684Y-92016403D01*
X124953266Y-92007360D01*
X124898915Y-91961682D01*
X124890867Y-91947698D01*
X124818331Y-91800609D01*
X124815776Y-91795428D01*
X124694320Y-91632779D01*
X124545258Y-91494987D01*
X124540375Y-91491906D01*
X124540371Y-91491903D01*
X124378464Y-91389748D01*
X124373581Y-91386667D01*
X124185039Y-91311446D01*
X124179379Y-91310320D01*
X124179375Y-91310319D01*
X123991613Y-91272971D01*
X123991610Y-91272971D01*
X123985946Y-91271844D01*
X123980171Y-91271768D01*
X123980167Y-91271768D01*
X123878793Y-91270441D01*
X123782971Y-91269187D01*
X123777274Y-91270166D01*
X123777273Y-91270166D01*
X123679620Y-91286946D01*
X123582910Y-91303564D01*
X123392463Y-91373824D01*
X123218010Y-91477612D01*
X123213670Y-91481418D01*
X123213666Y-91481421D01*
X123115500Y-91567511D01*
X123065392Y-91611455D01*
X122939720Y-91770869D01*
X122937031Y-91775980D01*
X122937029Y-91775983D01*
X122925507Y-91797883D01*
X122845203Y-91950515D01*
X122785007Y-92144378D01*
X122761148Y-92345964D01*
X122774424Y-92548522D01*
X122775845Y-92554118D01*
X122775846Y-92554123D01*
X122802187Y-92657837D01*
X122824392Y-92745269D01*
X122826809Y-92750512D01*
X122864010Y-92831208D01*
X122909377Y-92929616D01*
X123026533Y-93095389D01*
X123030675Y-93099424D01*
X123087637Y-93154913D01*
X123171938Y-93237035D01*
X123176742Y-93240245D01*
X123230980Y-93276486D01*
X123340720Y-93349812D01*
X123346023Y-93352090D01*
X123346026Y-93352092D01*
X123521921Y-93427662D01*
X123527228Y-93429942D01*
X123600244Y-93446464D01*
X123719579Y-93473467D01*
X123719584Y-93473468D01*
X123725216Y-93474742D01*
X123730987Y-93474969D01*
X123730989Y-93474969D01*
X123790756Y-93477317D01*
X123928053Y-93482712D01*
X124028499Y-93468148D01*
X124123231Y-93454413D01*
X124123236Y-93454412D01*
X124128945Y-93453584D01*
X124134409Y-93451729D01*
X124134414Y-93451728D01*
X124315693Y-93390192D01*
X124315698Y-93390190D01*
X124321165Y-93388334D01*
X124498276Y-93289147D01*
X124513495Y-93276490D01*
X124627038Y-93182056D01*
X124654345Y-93159345D01*
X124784147Y-93003276D01*
X124883334Y-92826165D01*
X124885720Y-92819135D01*
X124886170Y-92818496D01*
X124887541Y-92815416D01*
X124888146Y-92815685D01*
X124926553Y-92761059D01*
X124992305Y-92734278D01*
X125062098Y-92747295D01*
X125113773Y-92795980D01*
X125121777Y-92812229D01*
X125191770Y-92984603D01*
X125196413Y-92993794D01*
X125307694Y-93175388D01*
X125313777Y-93183699D01*
X125453213Y-93344667D01*
X125460580Y-93351883D01*
X125624434Y-93487916D01*
X125632881Y-93493831D01*
X125702479Y-93534501D01*
X125751203Y-93586140D01*
X125764274Y-93655923D01*
X125737543Y-93721694D01*
X125697087Y-93755053D01*
X125688462Y-93759542D01*
X125679738Y-93765036D01*
X125509433Y-93892905D01*
X125501726Y-93899748D01*
X125354590Y-94053717D01*
X125348104Y-94061727D01*
X125228098Y-94237649D01*
X125223000Y-94246623D01*
X125133338Y-94439783D01*
X125129777Y-94449464D01*
X125125291Y-94465640D01*
X125087813Y-94525939D01*
X125023684Y-94556403D01*
X124953266Y-94547360D01*
X124898915Y-94501682D01*
X124890867Y-94487698D01*
X124818331Y-94340609D01*
X124815776Y-94335428D01*
X124800561Y-94315052D01*
X124721077Y-94208611D01*
X124694320Y-94172779D01*
X124545258Y-94034987D01*
X124540375Y-94031906D01*
X124540371Y-94031903D01*
X124378464Y-93929748D01*
X124373581Y-93926667D01*
X124185039Y-93851446D01*
X124179379Y-93850320D01*
X124179375Y-93850319D01*
X123991613Y-93812971D01*
X123991610Y-93812971D01*
X123985946Y-93811844D01*
X123980171Y-93811768D01*
X123980167Y-93811768D01*
X123878793Y-93810441D01*
X123782971Y-93809187D01*
X123777274Y-93810166D01*
X123777273Y-93810166D01*
X123670367Y-93828536D01*
X123582910Y-93843564D01*
X123392463Y-93913824D01*
X123218010Y-94017612D01*
X123213670Y-94021418D01*
X123213666Y-94021421D01*
X123087527Y-94132043D01*
X123065392Y-94151455D01*
X122939720Y-94310869D01*
X122937031Y-94315980D01*
X122937029Y-94315983D01*
X122924073Y-94340609D01*
X122845203Y-94490515D01*
X122785007Y-94684378D01*
X122761148Y-94885964D01*
X122774424Y-95088522D01*
X122775845Y-95094118D01*
X122775846Y-95094123D01*
X122802187Y-95197837D01*
X122824392Y-95285269D01*
X122826809Y-95290512D01*
X122862032Y-95366916D01*
X122909377Y-95469616D01*
X123026533Y-95635389D01*
X123171938Y-95777035D01*
X123340720Y-95889812D01*
X123346023Y-95892090D01*
X123346026Y-95892092D01*
X123521921Y-95967662D01*
X123527228Y-95969942D01*
X123600244Y-95986464D01*
X123719579Y-96013467D01*
X123719584Y-96013468D01*
X123725216Y-96014742D01*
X123730987Y-96014969D01*
X123730989Y-96014969D01*
X123790756Y-96017317D01*
X123928053Y-96022712D01*
X124028499Y-96008148D01*
X124123231Y-95994413D01*
X124123236Y-95994412D01*
X124128945Y-95993584D01*
X124134409Y-95991729D01*
X124134414Y-95991728D01*
X124315693Y-95930192D01*
X124315698Y-95930190D01*
X124321165Y-95928334D01*
X124498276Y-95829147D01*
X124560934Y-95777035D01*
X124632456Y-95717550D01*
X124654345Y-95699345D01*
X124784147Y-95543276D01*
X124862354Y-95403627D01*
X124880510Y-95371208D01*
X124880511Y-95371206D01*
X124883334Y-95366165D01*
X124885720Y-95359135D01*
X124886170Y-95358496D01*
X124887541Y-95355416D01*
X124888146Y-95355685D01*
X124926553Y-95301059D01*
X124992305Y-95274278D01*
X125062098Y-95287295D01*
X125113773Y-95335980D01*
X125121777Y-95352229D01*
X125191770Y-95524603D01*
X125196413Y-95533794D01*
X125307694Y-95715388D01*
X125313777Y-95723699D01*
X125453213Y-95884667D01*
X125460580Y-95891883D01*
X125624434Y-96027916D01*
X125632881Y-96033831D01*
X125807229Y-96135712D01*
X125855953Y-96187351D01*
X125869024Y-96257134D01*
X125842293Y-96322906D01*
X125784246Y-96363784D01*
X125743659Y-96370500D01*
X122709384Y-96370500D01*
X122641263Y-96350498D01*
X122620289Y-96333595D01*
X122137371Y-95850677D01*
X122103345Y-95788365D01*
X122108410Y-95717550D01*
X122129592Y-95681012D01*
X122171463Y-95630669D01*
X122244147Y-95543276D01*
X122322354Y-95403627D01*
X122340510Y-95371208D01*
X122340511Y-95371206D01*
X122343334Y-95366165D01*
X122345190Y-95360698D01*
X122345192Y-95360693D01*
X122406728Y-95179414D01*
X122406729Y-95179409D01*
X122408584Y-95173945D01*
X122409412Y-95168236D01*
X122409413Y-95168231D01*
X122437179Y-94976727D01*
X122437712Y-94973053D01*
X122439232Y-94915000D01*
X122425715Y-94767891D01*
X122421187Y-94718613D01*
X122421186Y-94718610D01*
X122420658Y-94712859D01*
X122419090Y-94707299D01*
X122367125Y-94523046D01*
X122367124Y-94523044D01*
X122365557Y-94517487D01*
X122354978Y-94496033D01*
X122278331Y-94340609D01*
X122275776Y-94335428D01*
X122260561Y-94315052D01*
X122181077Y-94208611D01*
X122154320Y-94172779D01*
X122005258Y-94034987D01*
X122000375Y-94031906D01*
X122000371Y-94031903D01*
X121838464Y-93929748D01*
X121833581Y-93926667D01*
X121645039Y-93851446D01*
X121639379Y-93850320D01*
X121639375Y-93850319D01*
X121451613Y-93812971D01*
X121451610Y-93812971D01*
X121445946Y-93811844D01*
X121440171Y-93811768D01*
X121440167Y-93811768D01*
X121338793Y-93810441D01*
X121242971Y-93809187D01*
X121237274Y-93810166D01*
X121237273Y-93810166D01*
X121130367Y-93828536D01*
X121042910Y-93843564D01*
X120852463Y-93913824D01*
X120678010Y-94017612D01*
X120673670Y-94021418D01*
X120673666Y-94021421D01*
X120547527Y-94132043D01*
X120525392Y-94151455D01*
X120399720Y-94310869D01*
X120397031Y-94315980D01*
X120397029Y-94315983D01*
X120384073Y-94340609D01*
X120305203Y-94490515D01*
X120245007Y-94684378D01*
X120221148Y-94885964D01*
X120234424Y-95088522D01*
X120235845Y-95094118D01*
X120235846Y-95094123D01*
X120262187Y-95197837D01*
X120284392Y-95285269D01*
X120286809Y-95290512D01*
X120322032Y-95366916D01*
X120369377Y-95469616D01*
X120486533Y-95635389D01*
X120631938Y-95777035D01*
X120800720Y-95889812D01*
X120806023Y-95892090D01*
X120806026Y-95892092D01*
X120981921Y-95967662D01*
X120987228Y-95969942D01*
X121185216Y-96014742D01*
X121190978Y-96014968D01*
X121191529Y-96015041D01*
X121256455Y-96043766D01*
X121264173Y-96050867D01*
X122193522Y-96980216D01*
X122208664Y-96998964D01*
X122209779Y-97000189D01*
X122215429Y-97008940D01*
X122223607Y-97015387D01*
X122223609Y-97015389D01*
X122241800Y-97029729D01*
X122246241Y-97033675D01*
X122246303Y-97033602D01*
X122250267Y-97036961D01*
X122253944Y-97040638D01*
X122269692Y-97051892D01*
X122274362Y-97055398D01*
X122314647Y-97087156D01*
X122323281Y-97090188D01*
X122330734Y-97095514D01*
X122379850Y-97110203D01*
X122385492Y-97112036D01*
X122426199Y-97126331D01*
X122433851Y-97129018D01*
X122439416Y-97129500D01*
X122442124Y-97129500D01*
X122444758Y-97129614D01*
X122444856Y-97129643D01*
X122444849Y-97129807D01*
X122445553Y-97129851D01*
X122451778Y-97131713D01*
X122505635Y-97129597D01*
X122510582Y-97129500D01*
X132757531Y-97129500D01*
X132825652Y-97149502D01*
X132872145Y-97203158D01*
X132882249Y-97273432D01*
X132852755Y-97338012D01*
X132786945Y-97378019D01*
X132777564Y-97380271D01*
X132777562Y-97380272D01*
X132770184Y-97382043D01*
X132629414Y-97454700D01*
X132510039Y-97558838D01*
X132505672Y-97565051D01*
X132505667Y-97565057D01*
X132504336Y-97566951D01*
X132503013Y-97568005D01*
X132500589Y-97570697D01*
X132500140Y-97570293D01*
X132448802Y-97611183D01*
X132401250Y-97620500D01*
X120079384Y-97620500D01*
X120011263Y-97600498D01*
X119990289Y-97583595D01*
X119206405Y-96799711D01*
X119172379Y-96737399D01*
X119169500Y-96710616D01*
X119169500Y-96041488D01*
X119189502Y-95973367D01*
X119241427Y-95928802D01*
X119241165Y-95928334D01*
X119243491Y-95927032D01*
X119243493Y-95927030D01*
X119418276Y-95829147D01*
X119480934Y-95777035D01*
X119552456Y-95717550D01*
X119574345Y-95699345D01*
X119704147Y-95543276D01*
X119782354Y-95403627D01*
X119800510Y-95371208D01*
X119800511Y-95371206D01*
X119803334Y-95366165D01*
X119805190Y-95360698D01*
X119805192Y-95360693D01*
X119866728Y-95179414D01*
X119866729Y-95179409D01*
X119868584Y-95173945D01*
X119869412Y-95168236D01*
X119869413Y-95168231D01*
X119897179Y-94976727D01*
X119897712Y-94973053D01*
X119899232Y-94915000D01*
X119885715Y-94767891D01*
X119881187Y-94718613D01*
X119881186Y-94718610D01*
X119880658Y-94712859D01*
X119879090Y-94707299D01*
X119827125Y-94523046D01*
X119827124Y-94523044D01*
X119825557Y-94517487D01*
X119814978Y-94496033D01*
X119738331Y-94340609D01*
X119735776Y-94335428D01*
X119720561Y-94315052D01*
X119641077Y-94208611D01*
X119614320Y-94172779D01*
X119465258Y-94034987D01*
X119460375Y-94031906D01*
X119460371Y-94031903D01*
X119298464Y-93929748D01*
X119293581Y-93926667D01*
X119105039Y-93851446D01*
X119099379Y-93850320D01*
X119099375Y-93850319D01*
X118911613Y-93812971D01*
X118911610Y-93812971D01*
X118905946Y-93811844D01*
X118900171Y-93811768D01*
X118900167Y-93811768D01*
X118798793Y-93810441D01*
X118702971Y-93809187D01*
X118697274Y-93810166D01*
X118697273Y-93810166D01*
X118590367Y-93828536D01*
X118502910Y-93843564D01*
X118312463Y-93913824D01*
X118138010Y-94017612D01*
X118133670Y-94021418D01*
X118133666Y-94021421D01*
X118007527Y-94132043D01*
X117985392Y-94151455D01*
X117859720Y-94310869D01*
X117857031Y-94315980D01*
X117857029Y-94315983D01*
X117844073Y-94340609D01*
X117765203Y-94490515D01*
X117705007Y-94684378D01*
X117681148Y-94885964D01*
X117356564Y-94885964D01*
X117345715Y-94767891D01*
X117341187Y-94718613D01*
X117341186Y-94718610D01*
X117340658Y-94712859D01*
X117339090Y-94707299D01*
X117287125Y-94523046D01*
X117287124Y-94523044D01*
X117285557Y-94517487D01*
X117274978Y-94496033D01*
X117198331Y-94340609D01*
X117195776Y-94335428D01*
X117180561Y-94315052D01*
X117101077Y-94208611D01*
X117074320Y-94172779D01*
X116925258Y-94034987D01*
X116920375Y-94031906D01*
X116920371Y-94031903D01*
X116758464Y-93929748D01*
X116753581Y-93926667D01*
X116565039Y-93851446D01*
X116559379Y-93850320D01*
X116559375Y-93850319D01*
X116371613Y-93812971D01*
X116371610Y-93812971D01*
X116365946Y-93811844D01*
X116360171Y-93811768D01*
X116360167Y-93811768D01*
X116258793Y-93810441D01*
X116162971Y-93809187D01*
X116157274Y-93810166D01*
X116157273Y-93810166D01*
X116050367Y-93828536D01*
X115962910Y-93843564D01*
X115772463Y-93913824D01*
X115598010Y-94017612D01*
X115593670Y-94021418D01*
X115593666Y-94021421D01*
X115467527Y-94132043D01*
X115445392Y-94151455D01*
X115319720Y-94310869D01*
X115317031Y-94315980D01*
X115317029Y-94315983D01*
X115304073Y-94340609D01*
X115225203Y-94490515D01*
X115165007Y-94684378D01*
X115141148Y-94885964D01*
X114816564Y-94885964D01*
X114805715Y-94767891D01*
X114801187Y-94718613D01*
X114801186Y-94718610D01*
X114800658Y-94712859D01*
X114799090Y-94707299D01*
X114747125Y-94523046D01*
X114747124Y-94523044D01*
X114745557Y-94517487D01*
X114734978Y-94496033D01*
X114658331Y-94340609D01*
X114655776Y-94335428D01*
X114640561Y-94315052D01*
X114561077Y-94208611D01*
X114534320Y-94172779D01*
X114385258Y-94034987D01*
X114380375Y-94031906D01*
X114380371Y-94031903D01*
X114218464Y-93929748D01*
X114213581Y-93926667D01*
X114025039Y-93851446D01*
X114019379Y-93850320D01*
X114019375Y-93850319D01*
X113831613Y-93812971D01*
X113831610Y-93812971D01*
X113825946Y-93811844D01*
X113820171Y-93811768D01*
X113820167Y-93811768D01*
X113718793Y-93810441D01*
X113622971Y-93809187D01*
X113617274Y-93810166D01*
X113617273Y-93810166D01*
X113510367Y-93828536D01*
X113422910Y-93843564D01*
X113232463Y-93913824D01*
X113058010Y-94017612D01*
X113053670Y-94021418D01*
X113053666Y-94021421D01*
X112927527Y-94132043D01*
X112905392Y-94151455D01*
X112779720Y-94310869D01*
X112777031Y-94315980D01*
X112777029Y-94315983D01*
X112764073Y-94340609D01*
X112685203Y-94490515D01*
X112625007Y-94684378D01*
X112601148Y-94885964D01*
X112276564Y-94885964D01*
X112265715Y-94767891D01*
X112261187Y-94718613D01*
X112261186Y-94718610D01*
X112260658Y-94712859D01*
X112259090Y-94707299D01*
X112207125Y-94523046D01*
X112207124Y-94523044D01*
X112205557Y-94517487D01*
X112194978Y-94496033D01*
X112118331Y-94340609D01*
X112115776Y-94335428D01*
X112100561Y-94315052D01*
X111997773Y-94177403D01*
X111997772Y-94177402D01*
X111994320Y-94172779D01*
X111964971Y-94145649D01*
X111928526Y-94084720D01*
X111924500Y-94053124D01*
X111924500Y-93240634D01*
X111944502Y-93172513D01*
X111954805Y-93159728D01*
X111954345Y-93159345D01*
X112080453Y-93007718D01*
X112080455Y-93007715D01*
X112084147Y-93003276D01*
X112183334Y-92826165D01*
X112185190Y-92820698D01*
X112185192Y-92820693D01*
X112246728Y-92639414D01*
X112246729Y-92639409D01*
X112248584Y-92633945D01*
X112249412Y-92628236D01*
X112249413Y-92628231D01*
X112277179Y-92436727D01*
X112277712Y-92433053D01*
X112279232Y-92375000D01*
X112276564Y-92345964D01*
X112601148Y-92345964D01*
X112614424Y-92548522D01*
X112615845Y-92554118D01*
X112615846Y-92554123D01*
X112642187Y-92657837D01*
X112664392Y-92745269D01*
X112666809Y-92750512D01*
X112704010Y-92831208D01*
X112749377Y-92929616D01*
X112866533Y-93095389D01*
X112870675Y-93099424D01*
X112927637Y-93154913D01*
X113011938Y-93237035D01*
X113016742Y-93240245D01*
X113070980Y-93276486D01*
X113180720Y-93349812D01*
X113186023Y-93352090D01*
X113186026Y-93352092D01*
X113361921Y-93427662D01*
X113367228Y-93429942D01*
X113440244Y-93446464D01*
X113559579Y-93473467D01*
X113559584Y-93473468D01*
X113565216Y-93474742D01*
X113570987Y-93474969D01*
X113570989Y-93474969D01*
X113630756Y-93477317D01*
X113768053Y-93482712D01*
X113868499Y-93468148D01*
X113963231Y-93454413D01*
X113963236Y-93454412D01*
X113968945Y-93453584D01*
X113974409Y-93451729D01*
X113974414Y-93451728D01*
X114155693Y-93390192D01*
X114155698Y-93390190D01*
X114161165Y-93388334D01*
X114338276Y-93289147D01*
X114353495Y-93276490D01*
X114467038Y-93182056D01*
X114494345Y-93159345D01*
X114624147Y-93003276D01*
X114723334Y-92826165D01*
X114725190Y-92820698D01*
X114725192Y-92820693D01*
X114786728Y-92639414D01*
X114786729Y-92639409D01*
X114788584Y-92633945D01*
X114789412Y-92628236D01*
X114789413Y-92628231D01*
X114817179Y-92436727D01*
X114817712Y-92433053D01*
X114819232Y-92375000D01*
X114816564Y-92345964D01*
X115141148Y-92345964D01*
X115154424Y-92548522D01*
X115155845Y-92554118D01*
X115155846Y-92554123D01*
X115182187Y-92657837D01*
X115204392Y-92745269D01*
X115206809Y-92750512D01*
X115244010Y-92831208D01*
X115289377Y-92929616D01*
X115406533Y-93095389D01*
X115410675Y-93099424D01*
X115467637Y-93154913D01*
X115551938Y-93237035D01*
X115556742Y-93240245D01*
X115610980Y-93276486D01*
X115720720Y-93349812D01*
X115726023Y-93352090D01*
X115726026Y-93352092D01*
X115901921Y-93427662D01*
X115907228Y-93429942D01*
X115980244Y-93446464D01*
X116099579Y-93473467D01*
X116099584Y-93473468D01*
X116105216Y-93474742D01*
X116110987Y-93474969D01*
X116110989Y-93474969D01*
X116170756Y-93477317D01*
X116308053Y-93482712D01*
X116408499Y-93468148D01*
X116503231Y-93454413D01*
X116503236Y-93454412D01*
X116508945Y-93453584D01*
X116514409Y-93451729D01*
X116514414Y-93451728D01*
X116695693Y-93390192D01*
X116695698Y-93390190D01*
X116701165Y-93388334D01*
X116878276Y-93289147D01*
X116893495Y-93276490D01*
X117007038Y-93182056D01*
X117034345Y-93159345D01*
X117164147Y-93003276D01*
X117263334Y-92826165D01*
X117265190Y-92820698D01*
X117265192Y-92820693D01*
X117326728Y-92639414D01*
X117326729Y-92639409D01*
X117328584Y-92633945D01*
X117329412Y-92628236D01*
X117329413Y-92628231D01*
X117357179Y-92436727D01*
X117357712Y-92433053D01*
X117359232Y-92375000D01*
X117356564Y-92345964D01*
X117681148Y-92345964D01*
X117694424Y-92548522D01*
X117695845Y-92554118D01*
X117695846Y-92554123D01*
X117722187Y-92657837D01*
X117744392Y-92745269D01*
X117746809Y-92750512D01*
X117784010Y-92831208D01*
X117829377Y-92929616D01*
X117946533Y-93095389D01*
X117950675Y-93099424D01*
X118007637Y-93154913D01*
X118091938Y-93237035D01*
X118096742Y-93240245D01*
X118150980Y-93276486D01*
X118260720Y-93349812D01*
X118266023Y-93352090D01*
X118266026Y-93352092D01*
X118441921Y-93427662D01*
X118447228Y-93429942D01*
X118520244Y-93446464D01*
X118639579Y-93473467D01*
X118639584Y-93473468D01*
X118645216Y-93474742D01*
X118650987Y-93474969D01*
X118650989Y-93474969D01*
X118710756Y-93477317D01*
X118848053Y-93482712D01*
X118948499Y-93468148D01*
X119043231Y-93454413D01*
X119043236Y-93454412D01*
X119048945Y-93453584D01*
X119054409Y-93451729D01*
X119054414Y-93451728D01*
X119235693Y-93390192D01*
X119235698Y-93390190D01*
X119241165Y-93388334D01*
X119418276Y-93289147D01*
X119433495Y-93276490D01*
X119547038Y-93182056D01*
X119574345Y-93159345D01*
X119704147Y-93003276D01*
X119803334Y-92826165D01*
X119805190Y-92820698D01*
X119805192Y-92820693D01*
X119866728Y-92639414D01*
X119866729Y-92639409D01*
X119868584Y-92633945D01*
X119869412Y-92628236D01*
X119869413Y-92628231D01*
X119897179Y-92436727D01*
X119897712Y-92433053D01*
X119899232Y-92375000D01*
X119896564Y-92345964D01*
X120221148Y-92345964D01*
X120234424Y-92548522D01*
X120235845Y-92554118D01*
X120235846Y-92554123D01*
X120262187Y-92657837D01*
X120284392Y-92745269D01*
X120286809Y-92750512D01*
X120324010Y-92831208D01*
X120369377Y-92929616D01*
X120486533Y-93095389D01*
X120490675Y-93099424D01*
X120547637Y-93154913D01*
X120631938Y-93237035D01*
X120636742Y-93240245D01*
X120690980Y-93276486D01*
X120800720Y-93349812D01*
X120806023Y-93352090D01*
X120806026Y-93352092D01*
X120981921Y-93427662D01*
X120987228Y-93429942D01*
X121060244Y-93446464D01*
X121179579Y-93473467D01*
X121179584Y-93473468D01*
X121185216Y-93474742D01*
X121190987Y-93474969D01*
X121190989Y-93474969D01*
X121250756Y-93477317D01*
X121388053Y-93482712D01*
X121488499Y-93468148D01*
X121583231Y-93454413D01*
X121583236Y-93454412D01*
X121588945Y-93453584D01*
X121594409Y-93451729D01*
X121594414Y-93451728D01*
X121775693Y-93390192D01*
X121775698Y-93390190D01*
X121781165Y-93388334D01*
X121958276Y-93289147D01*
X121973495Y-93276490D01*
X122087038Y-93182056D01*
X122114345Y-93159345D01*
X122244147Y-93003276D01*
X122343334Y-92826165D01*
X122345190Y-92820698D01*
X122345192Y-92820693D01*
X122406728Y-92639414D01*
X122406729Y-92639409D01*
X122408584Y-92633945D01*
X122409412Y-92628236D01*
X122409413Y-92628231D01*
X122437179Y-92436727D01*
X122437712Y-92433053D01*
X122439232Y-92375000D01*
X122420658Y-92172859D01*
X122419090Y-92167299D01*
X122367125Y-91983046D01*
X122367124Y-91983044D01*
X122365557Y-91977487D01*
X122354978Y-91956033D01*
X122278331Y-91800609D01*
X122275776Y-91795428D01*
X122154320Y-91632779D01*
X122005258Y-91494987D01*
X122000375Y-91491906D01*
X122000371Y-91491903D01*
X121838464Y-91389748D01*
X121833581Y-91386667D01*
X121645039Y-91311446D01*
X121639379Y-91310320D01*
X121639375Y-91310319D01*
X121451613Y-91272971D01*
X121451610Y-91272971D01*
X121445946Y-91271844D01*
X121440171Y-91271768D01*
X121440167Y-91271768D01*
X121338793Y-91270441D01*
X121242971Y-91269187D01*
X121237274Y-91270166D01*
X121237273Y-91270166D01*
X121139620Y-91286946D01*
X121042910Y-91303564D01*
X120852463Y-91373824D01*
X120678010Y-91477612D01*
X120673670Y-91481418D01*
X120673666Y-91481421D01*
X120575500Y-91567511D01*
X120525392Y-91611455D01*
X120399720Y-91770869D01*
X120397031Y-91775980D01*
X120397029Y-91775983D01*
X120385507Y-91797883D01*
X120305203Y-91950515D01*
X120245007Y-92144378D01*
X120221148Y-92345964D01*
X119896564Y-92345964D01*
X119880658Y-92172859D01*
X119879090Y-92167299D01*
X119827125Y-91983046D01*
X119827124Y-91983044D01*
X119825557Y-91977487D01*
X119814978Y-91956033D01*
X119738331Y-91800609D01*
X119735776Y-91795428D01*
X119614320Y-91632779D01*
X119465258Y-91494987D01*
X119460375Y-91491906D01*
X119460371Y-91491903D01*
X119298464Y-91389748D01*
X119293581Y-91386667D01*
X119105039Y-91311446D01*
X119099379Y-91310320D01*
X119099375Y-91310319D01*
X118911613Y-91272971D01*
X118911610Y-91272971D01*
X118905946Y-91271844D01*
X118900171Y-91271768D01*
X118900167Y-91271768D01*
X118798793Y-91270441D01*
X118702971Y-91269187D01*
X118697274Y-91270166D01*
X118697273Y-91270166D01*
X118599620Y-91286946D01*
X118502910Y-91303564D01*
X118312463Y-91373824D01*
X118138010Y-91477612D01*
X118133670Y-91481418D01*
X118133666Y-91481421D01*
X118035500Y-91567511D01*
X117985392Y-91611455D01*
X117859720Y-91770869D01*
X117857031Y-91775980D01*
X117857029Y-91775983D01*
X117845507Y-91797883D01*
X117765203Y-91950515D01*
X117705007Y-92144378D01*
X117681148Y-92345964D01*
X117356564Y-92345964D01*
X117340658Y-92172859D01*
X117339090Y-92167299D01*
X117287125Y-91983046D01*
X117287124Y-91983044D01*
X117285557Y-91977487D01*
X117274978Y-91956033D01*
X117198331Y-91800609D01*
X117195776Y-91795428D01*
X117074320Y-91632779D01*
X116925258Y-91494987D01*
X116920375Y-91491906D01*
X116920371Y-91491903D01*
X116758464Y-91389748D01*
X116753581Y-91386667D01*
X116565039Y-91311446D01*
X116559379Y-91310320D01*
X116559375Y-91310319D01*
X116371613Y-91272971D01*
X116371610Y-91272971D01*
X116365946Y-91271844D01*
X116360171Y-91271768D01*
X116360167Y-91271768D01*
X116258793Y-91270441D01*
X116162971Y-91269187D01*
X116157274Y-91270166D01*
X116157273Y-91270166D01*
X116059620Y-91286946D01*
X115962910Y-91303564D01*
X115772463Y-91373824D01*
X115598010Y-91477612D01*
X115593670Y-91481418D01*
X115593666Y-91481421D01*
X115495500Y-91567511D01*
X115445392Y-91611455D01*
X115319720Y-91770869D01*
X115317031Y-91775980D01*
X115317029Y-91775983D01*
X115305507Y-91797883D01*
X115225203Y-91950515D01*
X115165007Y-92144378D01*
X115141148Y-92345964D01*
X114816564Y-92345964D01*
X114800658Y-92172859D01*
X114799090Y-92167299D01*
X114747125Y-91983046D01*
X114747124Y-91983044D01*
X114745557Y-91977487D01*
X114734978Y-91956033D01*
X114658331Y-91800609D01*
X114655776Y-91795428D01*
X114534320Y-91632779D01*
X114385258Y-91494987D01*
X114380375Y-91491906D01*
X114380371Y-91491903D01*
X114218464Y-91389748D01*
X114213581Y-91386667D01*
X114025039Y-91311446D01*
X114019379Y-91310320D01*
X114019375Y-91310319D01*
X113831613Y-91272971D01*
X113831610Y-91272971D01*
X113825946Y-91271844D01*
X113820171Y-91271768D01*
X113820167Y-91271768D01*
X113718793Y-91270441D01*
X113622971Y-91269187D01*
X113617274Y-91270166D01*
X113617273Y-91270166D01*
X113519620Y-91286946D01*
X113422910Y-91303564D01*
X113232463Y-91373824D01*
X113058010Y-91477612D01*
X113053670Y-91481418D01*
X113053666Y-91481421D01*
X112955500Y-91567511D01*
X112905392Y-91611455D01*
X112779720Y-91770869D01*
X112777031Y-91775980D01*
X112777029Y-91775983D01*
X112765507Y-91797883D01*
X112685203Y-91950515D01*
X112625007Y-92144378D01*
X112601148Y-92345964D01*
X112276564Y-92345964D01*
X112260658Y-92172859D01*
X112259090Y-92167299D01*
X112207125Y-91983046D01*
X112207124Y-91983044D01*
X112205557Y-91977487D01*
X112194978Y-91956033D01*
X112118331Y-91800609D01*
X112115776Y-91795428D01*
X112064484Y-91726739D01*
X111997773Y-91637403D01*
X111997772Y-91637402D01*
X111994320Y-91632779D01*
X111964971Y-91605649D01*
X111928526Y-91544720D01*
X111924500Y-91513124D01*
X111924500Y-79060966D01*
X111925933Y-79042016D01*
X111928074Y-79027946D01*
X111928074Y-79027940D01*
X111929174Y-79020711D01*
X111924915Y-78968352D01*
X111924500Y-78958137D01*
X111924500Y-78950147D01*
X111921226Y-78922065D01*
X111920795Y-78917709D01*
X111915503Y-78852648D01*
X111914910Y-78845352D01*
X111912653Y-78838386D01*
X111911481Y-78832518D01*
X111910110Y-78826717D01*
X111909262Y-78819446D01*
X111884477Y-78751165D01*
X111883051Y-78747010D01*
X111862945Y-78684944D01*
X111862944Y-78684941D01*
X111860688Y-78677978D01*
X111856889Y-78671718D01*
X111854390Y-78666259D01*
X111851729Y-78660944D01*
X111849232Y-78654066D01*
X111845224Y-78647952D01*
X111845220Y-78647945D01*
X111809408Y-78593324D01*
X111807061Y-78589604D01*
X111772324Y-78532360D01*
X111769416Y-78527567D01*
X111762050Y-78519226D01*
X111762075Y-78519204D01*
X111759385Y-78516170D01*
X111756781Y-78513055D01*
X111752766Y-78506932D01*
X111696854Y-78453966D01*
X111694413Y-78451589D01*
X107366405Y-74123581D01*
X107332379Y-74061269D01*
X107329500Y-74034486D01*
X107329500Y-70520547D01*
X107314262Y-70389846D01*
X107254232Y-70224466D01*
X107157766Y-70077332D01*
X107030040Y-69956336D01*
X106877904Y-69867968D01*
X106709520Y-69816970D01*
X106533920Y-69806076D01*
X106526704Y-69807316D01*
X106526702Y-69807316D01*
X106367738Y-69834631D01*
X106367736Y-69834632D01*
X106360523Y-69835871D01*
X106198632Y-69904756D01*
X106056929Y-70009037D01*
X105943018Y-70143120D01*
X105939690Y-70149638D01*
X105866334Y-70293295D01*
X105866332Y-70293300D01*
X105863007Y-70299812D01*
X105821189Y-70470708D01*
X105820500Y-70481814D01*
X105820500Y-74332435D01*
X105819067Y-74351384D01*
X105815826Y-74372689D01*
X80254500Y-74372689D01*
X80254500Y-45477966D01*
X91293257Y-45477966D01*
X91323565Y-45612446D01*
X91326645Y-45622275D01*
X91406770Y-45819603D01*
X91411413Y-45828794D01*
X91522694Y-46010388D01*
X91528777Y-46018699D01*
X91668213Y-46179667D01*
X91675580Y-46186883D01*
X91839434Y-46322916D01*
X91847881Y-46328831D01*
X92031756Y-46436279D01*
X92041042Y-46440729D01*
X92240001Y-46516703D01*
X92249899Y-46519579D01*
X92353250Y-46540606D01*
X92367299Y-46539410D01*
X92371000Y-46529065D01*
X92371000Y-46528517D01*
X92879000Y-46528517D01*
X92883064Y-46542359D01*
X92896478Y-46544393D01*
X92903184Y-46543534D01*
X92913262Y-46541392D01*
X93117255Y-46480191D01*
X93126842Y-46476433D01*
X93318095Y-46382739D01*
X93326945Y-46377464D01*
X93500328Y-46253792D01*
X93508200Y-46247139D01*
X93659052Y-46096812D01*
X93665730Y-46088965D01*
X93790003Y-45916020D01*
X93795313Y-45907183D01*
X93889670Y-45716267D01*
X93893469Y-45706672D01*
X93910066Y-45652047D01*
X93949007Y-45592683D01*
X94013862Y-45563796D01*
X94084038Y-45574558D01*
X94137256Y-45621551D01*
X94145048Y-45635922D01*
X94204377Y-45764616D01*
X94207710Y-45769332D01*
X94299945Y-45899842D01*
X94321533Y-45930389D01*
X94466938Y-46072035D01*
X94635720Y-46184812D01*
X94641023Y-46187090D01*
X94641026Y-46187092D01*
X94816921Y-46262662D01*
X94822228Y-46264942D01*
X94895244Y-46281464D01*
X95014579Y-46308467D01*
X95014584Y-46308468D01*
X95020216Y-46309742D01*
X95025987Y-46309969D01*
X95025989Y-46309969D01*
X95085756Y-46312317D01*
X95223053Y-46317712D01*
X95330341Y-46302156D01*
X95418231Y-46289413D01*
X95418236Y-46289412D01*
X95423945Y-46288584D01*
X95429409Y-46286729D01*
X95429414Y-46286728D01*
X95610693Y-46225192D01*
X95610698Y-46225190D01*
X95616165Y-46223334D01*
X95793276Y-46124147D01*
X95832969Y-46091135D01*
X95920696Y-46018172D01*
X95949345Y-45994345D01*
X96079147Y-45838276D01*
X96178334Y-45661165D01*
X96180190Y-45655698D01*
X96180192Y-45655693D01*
X96241728Y-45474414D01*
X96241729Y-45474409D01*
X96243584Y-45468945D01*
X96244412Y-45463236D01*
X96244413Y-45463231D01*
X96272179Y-45271727D01*
X96272712Y-45268053D01*
X96274232Y-45210000D01*
X96271564Y-45180964D01*
X96596148Y-45180964D01*
X96609424Y-45383522D01*
X96610845Y-45389118D01*
X96610846Y-45389123D01*
X96655208Y-45563796D01*
X96659392Y-45580269D01*
X96661809Y-45585512D01*
X96699010Y-45666208D01*
X96744377Y-45764616D01*
X96747710Y-45769332D01*
X96839945Y-45899842D01*
X96861533Y-45930389D01*
X97006938Y-46072035D01*
X97175720Y-46184812D01*
X97181023Y-46187090D01*
X97181026Y-46187092D01*
X97356921Y-46262662D01*
X97362228Y-46264942D01*
X97435244Y-46281464D01*
X97554579Y-46308467D01*
X97554584Y-46308468D01*
X97560216Y-46309742D01*
X97565987Y-46309969D01*
X97565989Y-46309969D01*
X97625756Y-46312317D01*
X97763053Y-46317712D01*
X97870341Y-46302156D01*
X97958231Y-46289413D01*
X97958236Y-46289412D01*
X97963945Y-46288584D01*
X97969409Y-46286729D01*
X97969414Y-46286728D01*
X98150693Y-46225192D01*
X98150698Y-46225190D01*
X98156165Y-46223334D01*
X98333276Y-46124147D01*
X98372969Y-46091135D01*
X98460696Y-46018172D01*
X98489345Y-45994345D01*
X98619147Y-45838276D01*
X98718334Y-45661165D01*
X98720190Y-45655698D01*
X98720192Y-45655693D01*
X98781728Y-45474414D01*
X98781729Y-45474409D01*
X98783584Y-45468945D01*
X98784412Y-45463236D01*
X98784413Y-45463231D01*
X98812179Y-45271727D01*
X98812712Y-45268053D01*
X98814232Y-45210000D01*
X98811564Y-45180964D01*
X99136148Y-45180964D01*
X99149424Y-45383522D01*
X99150845Y-45389118D01*
X99150846Y-45389123D01*
X99195208Y-45563796D01*
X99199392Y-45580269D01*
X99201809Y-45585512D01*
X99239010Y-45666208D01*
X99284377Y-45764616D01*
X99287710Y-45769332D01*
X99379945Y-45899842D01*
X99401533Y-45930389D01*
X99546938Y-46072035D01*
X99715720Y-46184812D01*
X99721023Y-46187090D01*
X99721028Y-46187093D01*
X99744342Y-46197109D01*
X99784098Y-46214189D01*
X99789237Y-46216397D01*
X99843930Y-46261665D01*
X99865500Y-46332165D01*
X99865500Y-46691080D01*
X99862951Y-46715028D01*
X99862872Y-46716693D01*
X99860680Y-46726876D01*
X99861904Y-46737217D01*
X99864627Y-46760223D01*
X99864977Y-46766154D01*
X99865072Y-46766146D01*
X99865500Y-46771324D01*
X99865500Y-46776524D01*
X99866354Y-46781653D01*
X99866354Y-46781656D01*
X99868669Y-46795565D01*
X99869506Y-46801443D01*
X99875530Y-46852341D01*
X99879493Y-46860593D01*
X99880996Y-46869626D01*
X99885943Y-46878795D01*
X99885944Y-46878797D01*
X99905334Y-46914732D01*
X99908031Y-46920025D01*
X99926785Y-46959082D01*
X99926788Y-46959086D01*
X99930219Y-46966232D01*
X99933814Y-46970508D01*
X99935737Y-46972431D01*
X99937509Y-46974363D01*
X99937552Y-46974442D01*
X99937428Y-46974555D01*
X99937904Y-46975095D01*
X99940990Y-46980814D01*
X99948635Y-46987881D01*
X99980586Y-47017416D01*
X99984152Y-47020846D01*
X104443522Y-51480216D01*
X104458664Y-51498964D01*
X104459779Y-51500189D01*
X104465429Y-51508940D01*
X104473607Y-51515387D01*
X104473609Y-51515389D01*
X104491800Y-51529729D01*
X104496241Y-51533675D01*
X104496303Y-51533602D01*
X104500267Y-51536961D01*
X104503944Y-51540638D01*
X104519692Y-51551892D01*
X104524362Y-51555398D01*
X104564647Y-51587156D01*
X104573281Y-51590188D01*
X104580734Y-51595514D01*
X104629850Y-51610203D01*
X104635492Y-51612036D01*
X104676367Y-51626390D01*
X104683851Y-51629018D01*
X104689416Y-51629500D01*
X104692124Y-51629500D01*
X104694758Y-51629614D01*
X104694856Y-51629643D01*
X104694849Y-51629807D01*
X104695553Y-51629851D01*
X104701778Y-51631713D01*
X104755635Y-51629597D01*
X104760582Y-51629500D01*
X137400141Y-51629500D01*
X137468262Y-51649502D01*
X137495522Y-51673169D01*
X137496672Y-51674501D01*
X137500908Y-51680805D01*
X137618076Y-51787419D01*
X137757293Y-51863008D01*
X137910522Y-51903207D01*
X137994477Y-51904526D01*
X138061319Y-51905576D01*
X138061322Y-51905576D01*
X138068916Y-51905695D01*
X138223332Y-51870329D01*
X138293742Y-51834917D01*
X138358072Y-51802563D01*
X138358075Y-51802561D01*
X138364855Y-51799151D01*
X138370626Y-51794222D01*
X138370629Y-51794220D01*
X138479536Y-51701204D01*
X138479536Y-51701203D01*
X138485314Y-51696269D01*
X138577755Y-51567624D01*
X138636842Y-51420641D01*
X138659162Y-51263807D01*
X138659307Y-51250000D01*
X138640276Y-51092733D01*
X138584280Y-50944546D01*
X138532782Y-50869616D01*
X138498855Y-50820251D01*
X138498854Y-50820249D01*
X138494553Y-50813992D01*
X138376275Y-50708611D01*
X138368889Y-50704700D01*
X138242988Y-50638039D01*
X138242989Y-50638039D01*
X138236274Y-50634484D01*
X138082633Y-50595892D01*
X138075034Y-50595852D01*
X138075033Y-50595852D01*
X138009181Y-50595507D01*
X137924221Y-50595062D01*
X137916841Y-50596834D01*
X137916839Y-50596834D01*
X137777563Y-50630271D01*
X137777560Y-50630272D01*
X137770184Y-50632043D01*
X137629414Y-50704700D01*
X137510039Y-50808838D01*
X137505672Y-50815051D01*
X137505667Y-50815057D01*
X137504336Y-50816951D01*
X137503013Y-50818005D01*
X137500589Y-50820697D01*
X137500140Y-50820293D01*
X137448802Y-50861183D01*
X137401250Y-50870500D01*
X129352352Y-50870500D01*
X129284231Y-50850498D01*
X129237738Y-50796842D01*
X129227634Y-50726568D01*
X129257128Y-50661988D01*
X129270522Y-50648689D01*
X129349532Y-50581208D01*
X129349535Y-50581205D01*
X129355314Y-50576269D01*
X129447755Y-50447624D01*
X129506842Y-50300641D01*
X129529162Y-50143807D01*
X129529307Y-50130000D01*
X129527561Y-50115567D01*
X129511188Y-49980273D01*
X129510276Y-49972733D01*
X129454280Y-49824546D01*
X129364553Y-49693992D01*
X129246275Y-49588611D01*
X129106274Y-49514484D01*
X128952633Y-49475892D01*
X128945034Y-49475852D01*
X128945033Y-49475852D01*
X128884626Y-49475536D01*
X128803335Y-49475110D01*
X128735321Y-49454752D01*
X128714901Y-49438207D01*
X127546478Y-48269784D01*
X127531336Y-48251036D01*
X127530221Y-48249811D01*
X127524571Y-48241060D01*
X127516393Y-48234613D01*
X127516391Y-48234611D01*
X127498200Y-48220271D01*
X127493759Y-48216325D01*
X127493697Y-48216398D01*
X127489733Y-48213039D01*
X127486056Y-48209362D01*
X127470308Y-48198108D01*
X127465638Y-48194602D01*
X127425353Y-48162844D01*
X127416719Y-48159812D01*
X127409266Y-48154486D01*
X127360150Y-48139797D01*
X127354508Y-48137964D01*
X127313633Y-48123610D01*
X127313632Y-48123610D01*
X127306149Y-48120982D01*
X127300584Y-48120500D01*
X127297876Y-48120500D01*
X127295242Y-48120386D01*
X127295144Y-48120357D01*
X127295151Y-48120193D01*
X127294447Y-48120149D01*
X127288222Y-48118287D01*
X127234365Y-48120403D01*
X127229418Y-48120500D01*
X106284384Y-48120500D01*
X106216263Y-48100498D01*
X106195289Y-48083595D01*
X104641289Y-46529595D01*
X104607263Y-46467283D01*
X104612328Y-46396468D01*
X104629147Y-46374000D01*
X121490500Y-46374000D01*
X121490860Y-46377346D01*
X121490860Y-46377351D01*
X121496068Y-46425795D01*
X121496069Y-46425801D01*
X121496430Y-46429159D01*
X121507816Y-46481501D01*
X121508261Y-46483123D01*
X121508262Y-46483127D01*
X121510747Y-46492184D01*
X121515166Y-46508291D01*
X121519067Y-46515142D01*
X121519068Y-46515144D01*
X121535724Y-46544393D01*
X121565269Y-46596278D01*
X121578402Y-46611434D01*
X121603222Y-46640078D01*
X121611762Y-46649934D01*
X121645051Y-46682056D01*
X121734770Y-46728987D01*
X121740706Y-46730730D01*
X121798568Y-46747720D01*
X121798572Y-46747721D01*
X121802891Y-46748989D01*
X121807339Y-46749629D01*
X121807346Y-46749630D01*
X121871552Y-46758861D01*
X121871559Y-46758861D01*
X121876000Y-46759500D01*
X125374000Y-46759500D01*
X125377346Y-46759140D01*
X125377351Y-46759140D01*
X125425795Y-46753932D01*
X125425801Y-46753931D01*
X125429159Y-46753570D01*
X125481501Y-46742184D01*
X125508291Y-46734834D01*
X125515142Y-46730933D01*
X125515144Y-46730932D01*
X125590899Y-46687794D01*
X125596278Y-46684731D01*
X125649934Y-46638238D01*
X125682056Y-46604949D01*
X125728987Y-46515230D01*
X125730857Y-46508861D01*
X125747720Y-46451432D01*
X125747721Y-46451428D01*
X125748989Y-46447109D01*
X125749907Y-46440729D01*
X125758861Y-46378448D01*
X125758861Y-46378441D01*
X125759500Y-46374000D01*
X125759500Y-46124000D01*
X131990500Y-46124000D01*
X131996430Y-46179159D01*
X132007816Y-46231501D01*
X132015166Y-46258291D01*
X132019067Y-46265142D01*
X132019068Y-46265144D01*
X132022238Y-46270710D01*
X132065269Y-46346278D01*
X132078402Y-46361434D01*
X132108759Y-46396468D01*
X132111762Y-46399934D01*
X132145051Y-46432056D01*
X132234770Y-46478987D01*
X132240706Y-46480730D01*
X132298568Y-46497720D01*
X132298572Y-46497721D01*
X132302891Y-46498989D01*
X132307339Y-46499629D01*
X132307346Y-46499630D01*
X132371552Y-46508861D01*
X132371559Y-46508861D01*
X132376000Y-46509500D01*
X136374000Y-46509500D01*
X136377346Y-46509140D01*
X136377351Y-46509140D01*
X136425795Y-46503932D01*
X136425801Y-46503931D01*
X136429159Y-46503570D01*
X136481501Y-46492184D01*
X136508291Y-46484834D01*
X136515142Y-46480933D01*
X136515144Y-46480932D01*
X136590899Y-46437794D01*
X136596278Y-46434731D01*
X136649934Y-46388238D01*
X136682056Y-46354949D01*
X136728987Y-46265230D01*
X136730730Y-46259294D01*
X136747720Y-46201432D01*
X136747721Y-46201428D01*
X136748989Y-46197109D01*
X136750430Y-46187093D01*
X136758861Y-46128448D01*
X136758861Y-46128441D01*
X136759500Y-46124000D01*
X136759500Y-41626000D01*
X136756940Y-41602189D01*
X136753932Y-41574205D01*
X136753931Y-41574199D01*
X136753570Y-41570841D01*
X136742184Y-41518499D01*
X136734834Y-41491709D01*
X136709440Y-41447113D01*
X136687794Y-41409101D01*
X136684731Y-41403722D01*
X136644793Y-41357631D01*
X136640078Y-41352189D01*
X136640073Y-41352184D01*
X136638238Y-41350066D01*
X136604949Y-41317944D01*
X136515230Y-41271013D01*
X136499901Y-41266512D01*
X136451432Y-41252280D01*
X136451428Y-41252279D01*
X136447109Y-41251011D01*
X136442661Y-41250371D01*
X136442654Y-41250370D01*
X136378448Y-41241139D01*
X136378441Y-41241139D01*
X136374000Y-41240500D01*
X135885500Y-41240500D01*
X135817379Y-41220498D01*
X135770886Y-41166842D01*
X135759500Y-41114500D01*
X135759500Y-40435024D01*
X135779502Y-40366903D01*
X135833158Y-40320410D01*
X135903432Y-40310306D01*
X135968012Y-40339800D01*
X135999926Y-40382273D01*
X136079377Y-40554616D01*
X136196533Y-40720389D01*
X136341938Y-40862035D01*
X136346742Y-40865245D01*
X136400980Y-40901486D01*
X136510720Y-40974812D01*
X136516023Y-40977090D01*
X136516026Y-40977092D01*
X136604707Y-41015192D01*
X136697228Y-41054942D01*
X136770244Y-41071464D01*
X136889579Y-41098467D01*
X136889584Y-41098468D01*
X136895216Y-41099742D01*
X136900987Y-41099969D01*
X136900989Y-41099969D01*
X136960756Y-41102317D01*
X137098053Y-41107712D01*
X137198499Y-41093148D01*
X137293231Y-41079413D01*
X137293236Y-41079412D01*
X137298945Y-41078584D01*
X137304409Y-41076729D01*
X137304414Y-41076728D01*
X137485693Y-41015192D01*
X137485698Y-41015190D01*
X137491165Y-41013334D01*
X137553250Y-40978565D01*
X137600058Y-40952351D01*
X137668276Y-40914147D01*
X137683495Y-40901490D01*
X137819913Y-40788031D01*
X137824345Y-40784345D01*
X137954147Y-40628276D01*
X138053334Y-40451165D01*
X138055190Y-40445698D01*
X138055192Y-40445693D01*
X138116728Y-40264414D01*
X138116729Y-40264409D01*
X138118584Y-40258945D01*
X138119412Y-40253236D01*
X138119413Y-40253231D01*
X138147179Y-40061727D01*
X138147712Y-40058053D01*
X138148127Y-40042186D01*
X143141018Y-40042186D01*
X143166579Y-40310100D01*
X143167664Y-40314534D01*
X143167665Y-40314540D01*
X143173846Y-40339800D01*
X143230547Y-40571518D01*
X143331583Y-40820963D01*
X143467569Y-41053210D01*
X143516584Y-41114500D01*
X143625242Y-41250370D01*
X143635658Y-41263395D01*
X143832327Y-41447113D01*
X144053457Y-41600516D01*
X144294416Y-41720391D01*
X144298750Y-41721812D01*
X144298753Y-41721813D01*
X144545823Y-41802807D01*
X144545829Y-41802808D01*
X144550156Y-41804227D01*
X144554647Y-41805007D01*
X144554648Y-41805007D01*
X144811538Y-41849611D01*
X144811546Y-41849612D01*
X144815319Y-41850267D01*
X144819156Y-41850458D01*
X144898777Y-41854422D01*
X144898785Y-41854422D01*
X144900348Y-41854500D01*
X145068374Y-41854500D01*
X145070642Y-41854335D01*
X145070654Y-41854335D01*
X145201457Y-41844844D01*
X145268425Y-41839985D01*
X145272880Y-41839001D01*
X145272883Y-41839001D01*
X145526770Y-41782947D01*
X145526772Y-41782946D01*
X145531226Y-41781963D01*
X145782900Y-41686613D01*
X145850534Y-41649046D01*
X146014179Y-41558149D01*
X146014180Y-41558148D01*
X146018172Y-41555931D01*
X146164842Y-41443996D01*
X146228491Y-41395421D01*
X146228495Y-41395417D01*
X146232116Y-41392654D01*
X146265993Y-41358000D01*
X146417063Y-41203462D01*
X146420249Y-41200203D01*
X146487571Y-41107712D01*
X146575942Y-40986304D01*
X146575947Y-40986297D01*
X146578630Y-40982610D01*
X146703941Y-40744433D01*
X146793557Y-40490662D01*
X146823292Y-40339800D01*
X146844720Y-40231083D01*
X146844721Y-40231077D01*
X146845601Y-40226611D01*
X146854782Y-40042186D01*
X146858755Y-39962383D01*
X146858755Y-39962377D01*
X146858982Y-39957814D01*
X146833421Y-39689900D01*
X146827284Y-39664817D01*
X146770539Y-39432920D01*
X146769453Y-39428482D01*
X146668417Y-39179037D01*
X146532431Y-38946790D01*
X146400417Y-38781715D01*
X146367194Y-38740171D01*
X146367193Y-38740169D01*
X146364342Y-38736605D01*
X146167673Y-38552887D01*
X145946543Y-38399484D01*
X145705584Y-38279609D01*
X145701250Y-38278188D01*
X145701247Y-38278187D01*
X145454177Y-38197193D01*
X145454171Y-38197192D01*
X145449844Y-38195773D01*
X145445352Y-38194993D01*
X145188462Y-38150389D01*
X145188454Y-38150388D01*
X145184681Y-38149733D01*
X145174718Y-38149237D01*
X145101223Y-38145578D01*
X145101215Y-38145578D01*
X145099652Y-38145500D01*
X144931626Y-38145500D01*
X144929358Y-38145665D01*
X144929346Y-38145665D01*
X144798543Y-38155156D01*
X144731575Y-38160015D01*
X144727120Y-38160999D01*
X144727117Y-38160999D01*
X144473230Y-38217053D01*
X144473228Y-38217054D01*
X144468774Y-38218037D01*
X144217100Y-38313387D01*
X144213114Y-38315601D01*
X144213112Y-38315602D01*
X144093224Y-38382194D01*
X143981828Y-38444069D01*
X143978196Y-38446841D01*
X143771509Y-38604579D01*
X143771505Y-38604583D01*
X143767884Y-38607346D01*
X143764699Y-38610604D01*
X143764698Y-38610605D01*
X143717290Y-38659101D01*
X143579751Y-38799797D01*
X143577066Y-38803486D01*
X143424058Y-39013696D01*
X143424053Y-39013703D01*
X143421370Y-39017390D01*
X143296059Y-39255567D01*
X143206443Y-39509338D01*
X143187452Y-39605692D01*
X143160127Y-39744329D01*
X143154399Y-39773389D01*
X143154172Y-39777942D01*
X143154172Y-39777945D01*
X143142934Y-40003704D01*
X143141018Y-40042186D01*
X138148127Y-40042186D01*
X138149232Y-40000000D01*
X138130658Y-39797859D01*
X138125042Y-39777945D01*
X138077125Y-39608046D01*
X138077124Y-39608044D01*
X138075557Y-39602487D01*
X138070336Y-39591898D01*
X137988331Y-39425609D01*
X137985776Y-39420428D01*
X137864320Y-39257779D01*
X137715258Y-39119987D01*
X137710375Y-39116906D01*
X137710371Y-39116903D01*
X137548464Y-39014748D01*
X137543581Y-39011667D01*
X137355039Y-38936446D01*
X137349379Y-38935320D01*
X137349375Y-38935319D01*
X137161613Y-38897971D01*
X137161610Y-38897971D01*
X137155946Y-38896844D01*
X137150171Y-38896768D01*
X137150167Y-38896768D01*
X137048793Y-38895441D01*
X136952971Y-38894187D01*
X136947274Y-38895166D01*
X136947273Y-38895166D01*
X136866177Y-38909101D01*
X136752910Y-38928564D01*
X136562463Y-38998824D01*
X136388010Y-39102612D01*
X136383670Y-39106418D01*
X136383666Y-39106421D01*
X136305360Y-39175094D01*
X136235392Y-39236455D01*
X136109720Y-39395869D01*
X136107031Y-39400980D01*
X136107029Y-39400983D01*
X136094787Y-39424251D01*
X136015203Y-39575515D01*
X136013490Y-39581033D01*
X136013487Y-39581040D01*
X136005832Y-39605692D01*
X135966529Y-39664817D01*
X135901500Y-39693307D01*
X135831391Y-39682117D01*
X135778461Y-39634800D01*
X135759500Y-39568327D01*
X135759500Y-39126000D01*
X135753570Y-39070841D01*
X135742184Y-39018499D01*
X135739723Y-39009527D01*
X135736920Y-38999312D01*
X135736920Y-38999311D01*
X135734834Y-38991709D01*
X135709256Y-38946790D01*
X135687794Y-38909101D01*
X135684731Y-38903722D01*
X135648373Y-38861762D01*
X135640078Y-38852189D01*
X135640073Y-38852184D01*
X135638238Y-38850066D01*
X135604949Y-38817944D01*
X135515230Y-38771013D01*
X135506668Y-38768499D01*
X135451432Y-38752280D01*
X135451428Y-38752279D01*
X135447109Y-38751011D01*
X135442661Y-38750371D01*
X135442654Y-38750370D01*
X135378448Y-38741139D01*
X135378441Y-38741139D01*
X135374000Y-38740500D01*
X132376000Y-38740500D01*
X132372654Y-38740860D01*
X132372649Y-38740860D01*
X132324205Y-38746068D01*
X132324199Y-38746069D01*
X132320841Y-38746430D01*
X132268499Y-38757816D01*
X132241709Y-38765166D01*
X132234858Y-38769067D01*
X132234856Y-38769068D01*
X132190588Y-38794276D01*
X132153722Y-38815269D01*
X132100066Y-38861762D01*
X132067944Y-38895051D01*
X132021013Y-38984770D01*
X132019270Y-38990706D01*
X132012520Y-39013696D01*
X132001011Y-39052891D01*
X132000371Y-39057339D01*
X132000370Y-39057346D01*
X131991364Y-39119987D01*
X131990500Y-39126000D01*
X131990500Y-46124000D01*
X125759500Y-46124000D01*
X125759500Y-41876000D01*
X125755628Y-41839985D01*
X125753932Y-41824205D01*
X125753931Y-41824199D01*
X125753570Y-41820841D01*
X125742184Y-41768499D01*
X125734834Y-41741709D01*
X125723505Y-41721813D01*
X125687794Y-41659101D01*
X125684731Y-41653722D01*
X125638238Y-41600066D01*
X125604949Y-41567944D01*
X125515230Y-41521013D01*
X125506668Y-41518499D01*
X125451432Y-41502280D01*
X125451428Y-41502279D01*
X125447109Y-41501011D01*
X125442661Y-41500371D01*
X125442654Y-41500370D01*
X125378448Y-41491139D01*
X125378441Y-41491139D01*
X125374000Y-41490500D01*
X124885500Y-41490500D01*
X124817379Y-41470498D01*
X124770886Y-41416842D01*
X124759500Y-41364500D01*
X124759500Y-40435024D01*
X124779502Y-40366903D01*
X124833158Y-40320410D01*
X124903432Y-40310306D01*
X124968012Y-40339800D01*
X124999926Y-40382273D01*
X125079377Y-40554616D01*
X125196533Y-40720389D01*
X125341938Y-40862035D01*
X125346742Y-40865245D01*
X125400980Y-40901486D01*
X125510720Y-40974812D01*
X125516023Y-40977090D01*
X125516026Y-40977092D01*
X125604707Y-41015192D01*
X125697228Y-41054942D01*
X125770244Y-41071464D01*
X125889579Y-41098467D01*
X125889584Y-41098468D01*
X125895216Y-41099742D01*
X125900987Y-41099969D01*
X125900989Y-41099969D01*
X125960756Y-41102317D01*
X126098053Y-41107712D01*
X126198499Y-41093148D01*
X126293231Y-41079413D01*
X126293236Y-41079412D01*
X126298945Y-41078584D01*
X126304409Y-41076729D01*
X126304414Y-41076728D01*
X126485693Y-41015192D01*
X126485698Y-41015190D01*
X126491165Y-41013334D01*
X126553250Y-40978565D01*
X126600058Y-40952351D01*
X126668276Y-40914147D01*
X126683495Y-40901490D01*
X126819913Y-40788031D01*
X126824345Y-40784345D01*
X126954147Y-40628276D01*
X127053334Y-40451165D01*
X127055190Y-40445698D01*
X127055192Y-40445693D01*
X127116728Y-40264414D01*
X127116729Y-40264409D01*
X127118584Y-40258945D01*
X127119412Y-40253236D01*
X127119413Y-40253231D01*
X127147179Y-40061727D01*
X127147712Y-40058053D01*
X127149232Y-40000000D01*
X127130658Y-39797859D01*
X127125042Y-39777945D01*
X127077125Y-39608046D01*
X127077124Y-39608044D01*
X127075557Y-39602487D01*
X127070336Y-39591898D01*
X126988331Y-39425609D01*
X126985776Y-39420428D01*
X126864320Y-39257779D01*
X126715258Y-39119987D01*
X126710375Y-39116906D01*
X126710371Y-39116903D01*
X126548464Y-39014748D01*
X126543581Y-39011667D01*
X126355039Y-38936446D01*
X126349379Y-38935320D01*
X126349375Y-38935319D01*
X126161613Y-38897971D01*
X126161610Y-38897971D01*
X126155946Y-38896844D01*
X126150171Y-38896768D01*
X126150167Y-38896768D01*
X126048793Y-38895441D01*
X125952971Y-38894187D01*
X125947274Y-38895166D01*
X125947273Y-38895166D01*
X125866177Y-38909101D01*
X125752910Y-38928564D01*
X125562463Y-38998824D01*
X125388010Y-39102612D01*
X125383670Y-39106418D01*
X125383666Y-39106421D01*
X125305360Y-39175094D01*
X125235392Y-39236455D01*
X125109720Y-39395869D01*
X125107031Y-39400980D01*
X125107029Y-39400983D01*
X125094787Y-39424251D01*
X125015203Y-39575515D01*
X125013490Y-39581033D01*
X125013487Y-39581040D01*
X125005832Y-39605692D01*
X124966529Y-39664817D01*
X124901500Y-39693307D01*
X124831391Y-39682117D01*
X124778461Y-39634800D01*
X124759500Y-39568327D01*
X124759500Y-38876000D01*
X124759022Y-38871552D01*
X124753932Y-38824205D01*
X124753931Y-38824199D01*
X124753570Y-38820841D01*
X124742184Y-38768499D01*
X124739376Y-38758262D01*
X124736920Y-38749312D01*
X124736920Y-38749311D01*
X124734834Y-38741709D01*
X124714053Y-38705214D01*
X124687794Y-38659101D01*
X124684731Y-38653722D01*
X124647370Y-38610605D01*
X124640078Y-38602189D01*
X124640073Y-38602184D01*
X124638238Y-38600066D01*
X124604949Y-38567944D01*
X124515230Y-38521013D01*
X124488213Y-38513080D01*
X124451432Y-38502280D01*
X124451428Y-38502279D01*
X124447109Y-38501011D01*
X124442661Y-38500371D01*
X124442654Y-38500370D01*
X124378448Y-38491139D01*
X124378441Y-38491139D01*
X124374000Y-38490500D01*
X121876000Y-38490500D01*
X121872654Y-38490860D01*
X121872649Y-38490860D01*
X121824205Y-38496068D01*
X121824199Y-38496069D01*
X121820841Y-38496430D01*
X121768499Y-38507816D01*
X121741709Y-38515166D01*
X121734858Y-38519067D01*
X121734856Y-38519068D01*
X121726406Y-38523880D01*
X121653722Y-38565269D01*
X121649046Y-38569321D01*
X121608356Y-38604579D01*
X121600066Y-38611762D01*
X121567944Y-38645051D01*
X121521013Y-38734770D01*
X121519270Y-38740706D01*
X121503541Y-38794276D01*
X121501011Y-38802891D01*
X121500371Y-38807339D01*
X121500370Y-38807346D01*
X121491139Y-38871552D01*
X121490500Y-38876000D01*
X121490500Y-46374000D01*
X104629147Y-46374000D01*
X104654875Y-46339632D01*
X104721395Y-46314821D01*
X104730384Y-46314500D01*
X106162278Y-46314499D01*
X106200066Y-46314499D01*
X106235818Y-46307388D01*
X106262126Y-46302156D01*
X106262128Y-46302155D01*
X106274301Y-46299734D01*
X106284621Y-46292839D01*
X106284622Y-46292838D01*
X106348168Y-46250377D01*
X106358484Y-46243484D01*
X106414734Y-46159301D01*
X106429500Y-46085067D01*
X106429499Y-44334934D01*
X106414734Y-44260699D01*
X106388654Y-44221667D01*
X106365377Y-44186832D01*
X106358484Y-44176516D01*
X106274301Y-44120266D01*
X106200067Y-44105500D01*
X105325142Y-44105500D01*
X104449934Y-44105501D01*
X104414182Y-44112612D01*
X104387874Y-44117844D01*
X104387872Y-44117845D01*
X104375699Y-44120266D01*
X104365379Y-44127161D01*
X104365378Y-44127162D01*
X104304985Y-44167516D01*
X104291516Y-44176516D01*
X104235266Y-44260699D01*
X104220500Y-44334933D01*
X104220501Y-45206305D01*
X104220501Y-45804617D01*
X104200499Y-45872738D01*
X104146843Y-45919231D01*
X104076569Y-45929335D01*
X104011989Y-45899842D01*
X104005406Y-45893712D01*
X103847281Y-45735587D01*
X103813255Y-45673275D01*
X103817063Y-45605991D01*
X103821581Y-45592683D01*
X103833219Y-45558396D01*
X103861728Y-45474413D01*
X103861728Y-45474412D01*
X103863584Y-45468945D01*
X103864412Y-45463236D01*
X103864413Y-45463231D01*
X103892179Y-45271727D01*
X103892712Y-45268053D01*
X103894232Y-45210000D01*
X103875658Y-45007859D01*
X103874090Y-45002299D01*
X103822125Y-44818046D01*
X103822124Y-44818044D01*
X103820557Y-44812487D01*
X103809978Y-44791033D01*
X103733331Y-44635609D01*
X103730776Y-44630428D01*
X103609320Y-44467779D01*
X103460258Y-44329987D01*
X103455375Y-44326906D01*
X103455371Y-44326903D01*
X103293464Y-44224748D01*
X103288581Y-44221667D01*
X103100039Y-44146446D01*
X103094379Y-44145320D01*
X103094375Y-44145319D01*
X102906613Y-44107971D01*
X102906610Y-44107971D01*
X102900946Y-44106844D01*
X102895171Y-44106768D01*
X102895167Y-44106768D01*
X102793793Y-44105441D01*
X102697971Y-44104187D01*
X102692274Y-44105166D01*
X102692273Y-44105166D01*
X102604397Y-44120266D01*
X102497910Y-44138564D01*
X102307463Y-44208824D01*
X102133010Y-44312612D01*
X102128670Y-44316418D01*
X102128666Y-44316421D01*
X101984733Y-44442648D01*
X101980392Y-44446455D01*
X101854720Y-44605869D01*
X101852031Y-44610980D01*
X101852029Y-44610983D01*
X101839073Y-44635609D01*
X101760203Y-44785515D01*
X101700007Y-44979378D01*
X101676148Y-45180964D01*
X101689424Y-45383522D01*
X101690845Y-45389118D01*
X101690846Y-45389123D01*
X101735208Y-45563796D01*
X101739392Y-45580269D01*
X101741809Y-45585512D01*
X101779010Y-45666208D01*
X101824377Y-45764616D01*
X101827710Y-45769332D01*
X101919945Y-45899842D01*
X101941533Y-45930389D01*
X102086938Y-46072035D01*
X102255720Y-46184812D01*
X102261023Y-46187090D01*
X102261026Y-46187092D01*
X102436921Y-46262662D01*
X102442228Y-46264942D01*
X102515244Y-46281464D01*
X102634579Y-46308467D01*
X102634584Y-46308468D01*
X102640216Y-46309742D01*
X102645987Y-46309969D01*
X102645989Y-46309969D01*
X102705756Y-46312317D01*
X102843053Y-46317712D01*
X102950341Y-46302156D01*
X103038231Y-46289413D01*
X103038236Y-46289412D01*
X103043945Y-46288584D01*
X103180991Y-46242063D01*
X103251926Y-46239107D01*
X103310587Y-46272281D01*
X105768522Y-48730216D01*
X105783664Y-48748964D01*
X105784779Y-48750189D01*
X105790429Y-48758940D01*
X105798607Y-48765387D01*
X105798609Y-48765389D01*
X105816800Y-48779729D01*
X105821241Y-48783675D01*
X105821303Y-48783602D01*
X105825267Y-48786961D01*
X105828944Y-48790638D01*
X105844692Y-48801892D01*
X105849362Y-48805398D01*
X105889647Y-48837156D01*
X105898281Y-48840188D01*
X105905734Y-48845514D01*
X105954850Y-48860203D01*
X105960492Y-48862036D01*
X106001367Y-48876390D01*
X106008851Y-48879018D01*
X106014416Y-48879500D01*
X106017124Y-48879500D01*
X106019758Y-48879614D01*
X106019856Y-48879643D01*
X106019849Y-48879807D01*
X106020553Y-48879851D01*
X106026778Y-48881713D01*
X106080635Y-48879597D01*
X106085582Y-48879500D01*
X127030616Y-48879500D01*
X127098737Y-48899502D01*
X127119711Y-48916405D01*
X128180249Y-49976943D01*
X128214275Y-50039255D01*
X128216076Y-50082482D01*
X128210729Y-50123096D01*
X128228113Y-50280553D01*
X128282553Y-50429319D01*
X128370908Y-50560805D01*
X128376527Y-50565918D01*
X128376528Y-50565919D01*
X128470368Y-50651306D01*
X128507291Y-50711946D01*
X128505568Y-50782922D01*
X128465746Y-50841699D01*
X128400468Y-50869616D01*
X128385569Y-50870500D01*
X104959384Y-50870500D01*
X104891263Y-50850498D01*
X104870289Y-50833595D01*
X100661405Y-46624711D01*
X100627379Y-46562399D01*
X100624500Y-46535616D01*
X100624500Y-46336488D01*
X100644502Y-46268367D01*
X100696427Y-46223802D01*
X100696165Y-46223334D01*
X100698491Y-46222032D01*
X100698493Y-46222030D01*
X100873276Y-46124147D01*
X100912969Y-46091135D01*
X101000696Y-46018172D01*
X101029345Y-45994345D01*
X101159147Y-45838276D01*
X101258334Y-45661165D01*
X101260190Y-45655698D01*
X101260192Y-45655693D01*
X101321728Y-45474414D01*
X101321729Y-45474409D01*
X101323584Y-45468945D01*
X101324412Y-45463236D01*
X101324413Y-45463231D01*
X101352179Y-45271727D01*
X101352712Y-45268053D01*
X101354232Y-45210000D01*
X101335658Y-45007859D01*
X101334090Y-45002299D01*
X101282125Y-44818046D01*
X101282124Y-44818044D01*
X101280557Y-44812487D01*
X101269978Y-44791033D01*
X101193331Y-44635609D01*
X101190776Y-44630428D01*
X101069320Y-44467779D01*
X100920258Y-44329987D01*
X100915375Y-44326906D01*
X100915371Y-44326903D01*
X100753464Y-44224748D01*
X100748581Y-44221667D01*
X100560039Y-44146446D01*
X100554379Y-44145320D01*
X100554375Y-44145319D01*
X100366613Y-44107971D01*
X100366610Y-44107971D01*
X100360946Y-44106844D01*
X100355171Y-44106768D01*
X100355167Y-44106768D01*
X100253793Y-44105441D01*
X100157971Y-44104187D01*
X100152274Y-44105166D01*
X100152273Y-44105166D01*
X100064397Y-44120266D01*
X99957910Y-44138564D01*
X99767463Y-44208824D01*
X99593010Y-44312612D01*
X99588670Y-44316418D01*
X99588666Y-44316421D01*
X99444733Y-44442648D01*
X99440392Y-44446455D01*
X99314720Y-44605869D01*
X99312031Y-44610980D01*
X99312029Y-44610983D01*
X99299073Y-44635609D01*
X99220203Y-44785515D01*
X99160007Y-44979378D01*
X99136148Y-45180964D01*
X98811564Y-45180964D01*
X98795658Y-45007859D01*
X98794090Y-45002299D01*
X98742125Y-44818046D01*
X98742124Y-44818044D01*
X98740557Y-44812487D01*
X98729978Y-44791033D01*
X98653331Y-44635609D01*
X98650776Y-44630428D01*
X98529320Y-44467779D01*
X98380258Y-44329987D01*
X98375375Y-44326906D01*
X98375371Y-44326903D01*
X98213464Y-44224748D01*
X98208581Y-44221667D01*
X98020039Y-44146446D01*
X98014379Y-44145320D01*
X98014375Y-44145319D01*
X97826613Y-44107971D01*
X97826610Y-44107971D01*
X97820946Y-44106844D01*
X97815171Y-44106768D01*
X97815167Y-44106768D01*
X97713793Y-44105441D01*
X97617971Y-44104187D01*
X97612274Y-44105166D01*
X97612273Y-44105166D01*
X97524397Y-44120266D01*
X97417910Y-44138564D01*
X97227463Y-44208824D01*
X97053010Y-44312612D01*
X97048670Y-44316418D01*
X97048666Y-44316421D01*
X96904733Y-44442648D01*
X96900392Y-44446455D01*
X96774720Y-44605869D01*
X96772031Y-44610980D01*
X96772029Y-44610983D01*
X96759073Y-44635609D01*
X96680203Y-44785515D01*
X96620007Y-44979378D01*
X96596148Y-45180964D01*
X96271564Y-45180964D01*
X96255658Y-45007859D01*
X96254090Y-45002299D01*
X96202125Y-44818046D01*
X96202124Y-44818044D01*
X96200557Y-44812487D01*
X96189978Y-44791033D01*
X96113331Y-44635609D01*
X96110776Y-44630428D01*
X95989320Y-44467779D01*
X95840258Y-44329987D01*
X95835375Y-44326906D01*
X95835371Y-44326903D01*
X95673464Y-44224748D01*
X95668581Y-44221667D01*
X95480039Y-44146446D01*
X95474379Y-44145320D01*
X95474375Y-44145319D01*
X95286613Y-44107971D01*
X95286610Y-44107971D01*
X95280946Y-44106844D01*
X95275171Y-44106768D01*
X95275167Y-44106768D01*
X95173793Y-44105441D01*
X95077971Y-44104187D01*
X95072274Y-44105166D01*
X95072273Y-44105166D01*
X94984397Y-44120266D01*
X94877910Y-44138564D01*
X94687463Y-44208824D01*
X94513010Y-44312612D01*
X94508670Y-44316418D01*
X94508666Y-44316421D01*
X94364733Y-44442648D01*
X94360392Y-44446455D01*
X94234720Y-44605869D01*
X94232031Y-44610980D01*
X94232029Y-44610983D01*
X94142589Y-44780980D01*
X94093170Y-44831952D01*
X94024037Y-44848115D01*
X93957141Y-44824336D01*
X93917003Y-44769973D01*
X93914955Y-44770863D01*
X93827972Y-44570814D01*
X93823105Y-44561739D01*
X93707426Y-44382926D01*
X93701136Y-44374757D01*
X93557806Y-44217240D01*
X93550273Y-44210215D01*
X93383139Y-44078222D01*
X93374552Y-44072517D01*
X93188117Y-43969599D01*
X93178705Y-43965369D01*
X92977959Y-43894280D01*
X92967988Y-43891646D01*
X92896837Y-43878972D01*
X92883540Y-43880432D01*
X92879000Y-43894989D01*
X92879000Y-46528517D01*
X92371000Y-46528517D01*
X92371000Y-45482115D01*
X92366525Y-45466876D01*
X92365135Y-45465671D01*
X92357452Y-45464000D01*
X91308225Y-45464000D01*
X91294694Y-45467973D01*
X91293257Y-45477966D01*
X80254500Y-45477966D01*
X80254500Y-44944183D01*
X91289389Y-44944183D01*
X91290912Y-44952607D01*
X91303292Y-44956000D01*
X92352885Y-44956000D01*
X92368124Y-44951525D01*
X92369329Y-44950135D01*
X92371000Y-44942452D01*
X92371000Y-43893102D01*
X92367082Y-43879758D01*
X92352806Y-43877771D01*
X92314324Y-43883660D01*
X92304288Y-43886051D01*
X92101868Y-43952212D01*
X92092359Y-43956209D01*
X91903463Y-44054542D01*
X91894738Y-44060036D01*
X91724433Y-44187905D01*
X91716726Y-44194748D01*
X91569590Y-44348717D01*
X91563104Y-44356727D01*
X91443098Y-44532649D01*
X91438000Y-44541623D01*
X91348338Y-44734783D01*
X91344775Y-44744470D01*
X91289389Y-44944183D01*
X80254500Y-44944183D01*
X80254500Y-40042186D01*
X83141018Y-40042186D01*
X83166579Y-40310100D01*
X83167664Y-40314534D01*
X83167665Y-40314540D01*
X83173846Y-40339800D01*
X83230547Y-40571518D01*
X83331583Y-40820963D01*
X83467569Y-41053210D01*
X83516584Y-41114500D01*
X83625242Y-41250370D01*
X83635658Y-41263395D01*
X83832327Y-41447113D01*
X84053457Y-41600516D01*
X84294416Y-41720391D01*
X84298750Y-41721812D01*
X84298753Y-41721813D01*
X84545823Y-41802807D01*
X84545829Y-41802808D01*
X84550156Y-41804227D01*
X84554647Y-41805007D01*
X84554648Y-41805007D01*
X84811538Y-41849611D01*
X84811546Y-41849612D01*
X84815319Y-41850267D01*
X84819156Y-41850458D01*
X84898777Y-41854422D01*
X84898785Y-41854422D01*
X84900348Y-41854500D01*
X85068374Y-41854500D01*
X85070642Y-41854335D01*
X85070654Y-41854335D01*
X85201457Y-41844844D01*
X85268425Y-41839985D01*
X85272880Y-41839001D01*
X85272883Y-41839001D01*
X85526770Y-41782947D01*
X85526772Y-41782946D01*
X85531226Y-41781963D01*
X85782900Y-41686613D01*
X85850534Y-41649046D01*
X86014179Y-41558149D01*
X86014180Y-41558148D01*
X86018172Y-41555931D01*
X86164842Y-41443996D01*
X86228491Y-41395421D01*
X86228495Y-41395417D01*
X86232116Y-41392654D01*
X86265993Y-41358000D01*
X86417063Y-41203462D01*
X86420249Y-41200203D01*
X86487571Y-41107712D01*
X86575942Y-40986304D01*
X86575947Y-40986297D01*
X86578630Y-40982610D01*
X86703941Y-40744433D01*
X86793557Y-40490662D01*
X86823292Y-40339800D01*
X86844720Y-40231083D01*
X86844721Y-40231077D01*
X86845601Y-40226611D01*
X86854782Y-40042186D01*
X86858328Y-39970964D01*
X111101148Y-39970964D01*
X111114424Y-40173522D01*
X111115845Y-40179118D01*
X111115846Y-40179123D01*
X111147955Y-40305548D01*
X111164392Y-40370269D01*
X111166809Y-40375512D01*
X111204010Y-40456208D01*
X111249377Y-40554616D01*
X111366533Y-40720389D01*
X111511938Y-40862035D01*
X111516742Y-40865245D01*
X111570980Y-40901486D01*
X111680720Y-40974812D01*
X111686023Y-40977090D01*
X111686026Y-40977092D01*
X111774707Y-41015192D01*
X111867228Y-41054942D01*
X111940244Y-41071464D01*
X112059579Y-41098467D01*
X112059584Y-41098468D01*
X112065216Y-41099742D01*
X112070987Y-41099969D01*
X112070989Y-41099969D01*
X112130756Y-41102317D01*
X112268053Y-41107712D01*
X112368499Y-41093148D01*
X112463231Y-41079413D01*
X112463236Y-41079412D01*
X112468945Y-41078584D01*
X112474409Y-41076729D01*
X112474414Y-41076728D01*
X112655693Y-41015192D01*
X112655698Y-41015190D01*
X112661165Y-41013334D01*
X112723250Y-40978565D01*
X112770058Y-40952351D01*
X112838276Y-40914147D01*
X112853495Y-40901490D01*
X112989913Y-40788031D01*
X112994345Y-40784345D01*
X113124147Y-40628276D01*
X113126969Y-40623236D01*
X113126973Y-40623231D01*
X113156067Y-40571279D01*
X113206804Y-40521617D01*
X113276335Y-40507270D01*
X113342586Y-40532791D01*
X113384522Y-40590080D01*
X113392001Y-40632845D01*
X113392001Y-40894669D01*
X113392371Y-40901490D01*
X113397895Y-40952352D01*
X113401521Y-40967604D01*
X113446676Y-41088054D01*
X113455214Y-41103649D01*
X113531715Y-41205724D01*
X113544276Y-41218285D01*
X113646351Y-41294786D01*
X113661946Y-41303324D01*
X113782394Y-41348478D01*
X113797649Y-41352105D01*
X113848514Y-41357631D01*
X113855328Y-41358000D01*
X114477885Y-41358000D01*
X114493124Y-41353525D01*
X114494329Y-41352135D01*
X114496000Y-41344452D01*
X114496000Y-41339884D01*
X115004000Y-41339884D01*
X115008475Y-41355123D01*
X115009865Y-41356328D01*
X115017548Y-41357999D01*
X115644669Y-41357999D01*
X115651490Y-41357629D01*
X115702352Y-41352105D01*
X115717604Y-41348479D01*
X115838054Y-41303324D01*
X115853649Y-41294786D01*
X115955724Y-41218285D01*
X115968285Y-41205724D01*
X116044786Y-41103649D01*
X116053324Y-41088054D01*
X116098478Y-40967606D01*
X116102105Y-40952351D01*
X116107631Y-40901486D01*
X116108000Y-40894672D01*
X116108000Y-40272115D01*
X116103525Y-40256876D01*
X116102135Y-40255671D01*
X116094452Y-40254000D01*
X115022115Y-40254000D01*
X115006876Y-40258475D01*
X115005671Y-40259865D01*
X115004000Y-40267548D01*
X115004000Y-41339884D01*
X114496000Y-41339884D01*
X114496000Y-39727885D01*
X115004000Y-39727885D01*
X115008475Y-39743124D01*
X115009865Y-39744329D01*
X115017548Y-39746000D01*
X116089884Y-39746000D01*
X116105123Y-39741525D01*
X116106328Y-39740135D01*
X116107999Y-39732452D01*
X116107999Y-39105331D01*
X116107629Y-39098510D01*
X116102105Y-39047648D01*
X116098479Y-39032396D01*
X116053324Y-38911946D01*
X116044786Y-38896351D01*
X115968285Y-38794276D01*
X115955724Y-38781715D01*
X115853649Y-38705214D01*
X115838054Y-38696676D01*
X115717606Y-38651522D01*
X115702351Y-38647895D01*
X115651486Y-38642369D01*
X115644672Y-38642000D01*
X115022115Y-38642000D01*
X115006876Y-38646475D01*
X115005671Y-38647865D01*
X115004000Y-38655548D01*
X115004000Y-39727885D01*
X114496000Y-39727885D01*
X114496000Y-38660116D01*
X114491525Y-38644877D01*
X114490135Y-38643672D01*
X114482452Y-38642001D01*
X113855331Y-38642001D01*
X113848510Y-38642371D01*
X113797648Y-38647895D01*
X113782396Y-38651521D01*
X113661946Y-38696676D01*
X113646351Y-38705214D01*
X113544276Y-38781715D01*
X113531715Y-38794276D01*
X113455214Y-38896351D01*
X113446676Y-38911946D01*
X113401522Y-39032394D01*
X113397895Y-39047649D01*
X113392369Y-39098514D01*
X113392000Y-39105328D01*
X113392000Y-39360160D01*
X113371998Y-39428281D01*
X113318342Y-39474774D01*
X113248068Y-39484878D01*
X113183488Y-39455384D01*
X113158567Y-39425994D01*
X113158331Y-39425608D01*
X113155776Y-39420428D01*
X113034320Y-39257779D01*
X112885258Y-39119987D01*
X112880375Y-39116906D01*
X112880371Y-39116903D01*
X112718464Y-39014748D01*
X112713581Y-39011667D01*
X112525039Y-38936446D01*
X112519379Y-38935320D01*
X112519375Y-38935319D01*
X112331613Y-38897971D01*
X112331610Y-38897971D01*
X112325946Y-38896844D01*
X112320171Y-38896768D01*
X112320167Y-38896768D01*
X112218793Y-38895441D01*
X112122971Y-38894187D01*
X112117274Y-38895166D01*
X112117273Y-38895166D01*
X112036177Y-38909101D01*
X111922910Y-38928564D01*
X111732463Y-38998824D01*
X111558010Y-39102612D01*
X111553670Y-39106418D01*
X111553666Y-39106421D01*
X111475360Y-39175094D01*
X111405392Y-39236455D01*
X111279720Y-39395869D01*
X111277031Y-39400980D01*
X111277029Y-39400983D01*
X111264787Y-39424251D01*
X111185203Y-39575515D01*
X111125007Y-39769378D01*
X111101148Y-39970964D01*
X86858328Y-39970964D01*
X86858755Y-39962383D01*
X86858755Y-39962377D01*
X86858982Y-39957814D01*
X86833421Y-39689900D01*
X86827284Y-39664817D01*
X86770539Y-39432920D01*
X86769453Y-39428482D01*
X86668417Y-39179037D01*
X86532431Y-38946790D01*
X86400417Y-38781715D01*
X86367194Y-38740171D01*
X86367193Y-38740169D01*
X86364342Y-38736605D01*
X86167673Y-38552887D01*
X85946543Y-38399484D01*
X85705584Y-38279609D01*
X85701250Y-38278188D01*
X85701247Y-38278187D01*
X85454177Y-38197193D01*
X85454171Y-38197192D01*
X85449844Y-38195773D01*
X85445352Y-38194993D01*
X85188462Y-38150389D01*
X85188454Y-38150388D01*
X85184681Y-38149733D01*
X85174718Y-38149237D01*
X85101223Y-38145578D01*
X85101215Y-38145578D01*
X85099652Y-38145500D01*
X84931626Y-38145500D01*
X84929358Y-38145665D01*
X84929346Y-38145665D01*
X84798543Y-38155156D01*
X84731575Y-38160015D01*
X84727120Y-38160999D01*
X84727117Y-38160999D01*
X84473230Y-38217053D01*
X84473228Y-38217054D01*
X84468774Y-38218037D01*
X84217100Y-38313387D01*
X84213114Y-38315601D01*
X84213112Y-38315602D01*
X84093224Y-38382194D01*
X83981828Y-38444069D01*
X83978196Y-38446841D01*
X83771509Y-38604579D01*
X83771505Y-38604583D01*
X83767884Y-38607346D01*
X83764699Y-38610604D01*
X83764698Y-38610605D01*
X83717290Y-38659101D01*
X83579751Y-38799797D01*
X83577066Y-38803486D01*
X83424058Y-39013696D01*
X83424053Y-39013703D01*
X83421370Y-39017390D01*
X83296059Y-39255567D01*
X83206443Y-39509338D01*
X83187452Y-39605692D01*
X83160127Y-39744329D01*
X83154399Y-39773389D01*
X83154172Y-39777942D01*
X83154172Y-39777945D01*
X83142934Y-40003704D01*
X83141018Y-40042186D01*
X80254500Y-40042186D01*
X80254500Y-40037476D01*
X80256921Y-40012894D01*
X80257065Y-40012170D01*
X80259486Y-40000000D01*
X80257065Y-39987830D01*
X80257065Y-39977401D01*
X80256060Y-39964265D01*
X80272318Y-39591898D01*
X80273276Y-39580948D01*
X80282704Y-39509338D01*
X80325878Y-39181396D01*
X80327786Y-39170579D01*
X80336673Y-39130496D01*
X80415008Y-38777145D01*
X80417853Y-38766528D01*
X80420600Y-38757816D01*
X80539036Y-38382187D01*
X80542792Y-38371865D01*
X80566097Y-38315602D01*
X80697017Y-37999532D01*
X80701659Y-37989579D01*
X80887734Y-37632133D01*
X80893230Y-37622613D01*
X81109755Y-37282738D01*
X81116059Y-37273734D01*
X81231257Y-37123604D01*
X81361393Y-36954007D01*
X81368445Y-36945603D01*
X81529485Y-36769860D01*
X81640709Y-36648481D01*
X81648481Y-36640709D01*
X81869499Y-36438182D01*
X81945603Y-36368445D01*
X81954007Y-36361393D01*
X82273734Y-36116059D01*
X82282738Y-36109755D01*
X82622613Y-35893230D01*
X82632133Y-35887734D01*
X82704781Y-35849916D01*
X82989588Y-35701655D01*
X82999532Y-35697017D01*
X83371872Y-35542789D01*
X83382187Y-35539036D01*
X83766529Y-35417853D01*
X83777146Y-35415008D01*
X84170587Y-35327785D01*
X84181396Y-35325878D01*
X84580949Y-35273276D01*
X84591897Y-35272318D01*
X84643588Y-35270061D01*
X84964265Y-35256060D01*
X84977401Y-35257065D01*
X84987830Y-35257065D01*
X85000000Y-35259486D01*
X85012897Y-35256921D01*
X85037476Y-35254500D01*
X144962524Y-35254500D01*
X144987103Y-35256921D01*
G37*
%TD.AperFunction*%
%TD*%
%TA.AperFunction,Conductor*%
%TO.N,Net-(J1-Pad1)*%
G36*
X135442121Y-39020002D02*
G01*
X135488614Y-39073658D01*
X135500000Y-39126000D01*
X135500000Y-41500000D01*
X136374000Y-41500000D01*
X136442121Y-41520002D01*
X136488614Y-41573658D01*
X136500000Y-41626000D01*
X136500000Y-46124000D01*
X136479998Y-46192121D01*
X136426342Y-46238614D01*
X136374000Y-46250000D01*
X132376000Y-46250000D01*
X132307879Y-46229998D01*
X132261386Y-46176342D01*
X132250000Y-46124000D01*
X132250000Y-39126000D01*
X132270002Y-39057879D01*
X132323658Y-39011386D01*
X132376000Y-39000000D01*
X135374000Y-39000000D01*
X135442121Y-39020002D01*
G37*
%TD.AperFunction*%
%TD*%
%TA.AperFunction,Conductor*%
%TO.N,Net-(J2-Pad1)*%
G36*
X124442121Y-38770002D02*
G01*
X124488614Y-38823658D01*
X124500000Y-38876000D01*
X124500000Y-41750000D01*
X125374000Y-41750000D01*
X125442121Y-41770002D01*
X125488614Y-41823658D01*
X125500000Y-41876000D01*
X125500000Y-46374000D01*
X125479998Y-46442121D01*
X125426342Y-46488614D01*
X125374000Y-46500000D01*
X121876000Y-46500000D01*
X121807879Y-46479998D01*
X121761386Y-46426342D01*
X121750000Y-46374000D01*
X121750000Y-38876000D01*
X121770002Y-38807879D01*
X121823658Y-38761386D01*
X121876000Y-38750000D01*
X124374000Y-38750000D01*
X124442121Y-38770002D01*
G37*
%TD.AperFunction*%
%TD*%
M02*
