%TF.GenerationSoftware,KiCad,Pcbnew,(6.0.9)*%
%TF.CreationDate,2022-11-26T14:01:21+01:00*%
%TF.ProjectId,PWR_PCB,5057525f-5043-4422-9e6b-696361645f70,rev?*%
%TF.SameCoordinates,Original*%
%TF.FileFunction,Legend,Bot*%
%TF.FilePolarity,Positive*%
%FSLAX46Y46*%
G04 Gerber Fmt 4.6, Leading zero omitted, Abs format (unit mm)*
G04 Created by KiCad (PCBNEW (6.0.9)) date 2022-11-26 14:01:21*
%MOMM*%
%LPD*%
G01*
G04 APERTURE LIST*
%ADD10C,0.450000*%
%ADD11C,0.150000*%
G04 APERTURE END LIST*
D10*
X136571428Y-64112142D02*
X136571428Y-61112142D01*
X135571428Y-63255000D01*
X134571428Y-61112142D01*
X134571428Y-64112142D01*
X133285714Y-63255000D02*
X131857142Y-63255000D01*
X133571428Y-64112142D02*
X132571428Y-61112142D01*
X131571428Y-64112142D01*
X130571428Y-64112142D02*
X130571428Y-61112142D01*
X129857142Y-61112142D01*
X129428571Y-61255000D01*
X129142857Y-61540714D01*
X129000000Y-61826428D01*
X128857142Y-62397857D01*
X128857142Y-62826428D01*
X129000000Y-63397857D01*
X129142857Y-63683571D01*
X129428571Y-63969285D01*
X129857142Y-64112142D01*
X130571428Y-64112142D01*
X127571428Y-62540714D02*
X126571428Y-62540714D01*
X126142857Y-64112142D02*
X127571428Y-64112142D01*
X127571428Y-61112142D01*
X126142857Y-61112142D01*
X121571428Y-62540714D02*
X121142857Y-62683571D01*
X121000000Y-62826428D01*
X120857142Y-63112142D01*
X120857142Y-63540714D01*
X121000000Y-63826428D01*
X121142857Y-63969285D01*
X121428571Y-64112142D01*
X122571428Y-64112142D01*
X122571428Y-61112142D01*
X121571428Y-61112142D01*
X121285714Y-61255000D01*
X121142857Y-61397857D01*
X121000000Y-61683571D01*
X121000000Y-61969285D01*
X121142857Y-62255000D01*
X121285714Y-62397857D01*
X121571428Y-62540714D01*
X122571428Y-62540714D01*
X119000000Y-62683571D02*
X119000000Y-64112142D01*
X120000000Y-61112142D02*
X119000000Y-62683571D01*
X118000000Y-61112142D01*
X113714285Y-62540714D02*
X113285714Y-62683571D01*
X113142857Y-62826428D01*
X113000000Y-63112142D01*
X113000000Y-63540714D01*
X113142857Y-63826428D01*
X113285714Y-63969285D01*
X113571428Y-64112142D01*
X114714285Y-64112142D01*
X114714285Y-61112142D01*
X113714285Y-61112142D01*
X113428571Y-61255000D01*
X113285714Y-61397857D01*
X113142857Y-61683571D01*
X113142857Y-61969285D01*
X113285714Y-62255000D01*
X113428571Y-62397857D01*
X113714285Y-62540714D01*
X114714285Y-62540714D01*
X111857142Y-63255000D02*
X110428571Y-63255000D01*
X112142857Y-64112142D02*
X111142857Y-61112142D01*
X110142857Y-64112142D01*
X109285714Y-63969285D02*
X108857142Y-64112142D01*
X108142857Y-64112142D01*
X107857142Y-63969285D01*
X107714285Y-63826428D01*
X107571428Y-63540714D01*
X107571428Y-63255000D01*
X107714285Y-62969285D01*
X107857142Y-62826428D01*
X108142857Y-62683571D01*
X108714285Y-62540714D01*
X109000000Y-62397857D01*
X109142857Y-62255000D01*
X109285714Y-61969285D01*
X109285714Y-61683571D01*
X109142857Y-61397857D01*
X109000000Y-61255000D01*
X108714285Y-61112142D01*
X108000000Y-61112142D01*
X107571428Y-61255000D01*
X106285714Y-62540714D02*
X105285714Y-62540714D01*
X104857142Y-64112142D02*
X106285714Y-64112142D01*
X106285714Y-61112142D01*
X104857142Y-61112142D01*
X103571428Y-64112142D02*
X103571428Y-61112142D01*
X102571428Y-63255000D01*
X101571428Y-61112142D01*
X101571428Y-64112142D01*
X100142857Y-62540714D02*
X99142857Y-62540714D01*
X98714285Y-64112142D02*
X100142857Y-64112142D01*
X100142857Y-61112142D01*
X98714285Y-61112142D01*
X97428571Y-64112142D02*
X97428571Y-61112142D01*
X95714285Y-64112142D01*
X95714285Y-61112142D01*
X94714285Y-61112142D02*
X93000000Y-61112142D01*
X93857142Y-64112142D02*
X93857142Y-61112142D01*
X134071428Y-68942142D02*
X134071428Y-65942142D01*
X132928571Y-65942142D01*
X132642857Y-66085000D01*
X132500000Y-66227857D01*
X132357142Y-66513571D01*
X132357142Y-66942142D01*
X132500000Y-67227857D01*
X132642857Y-67370714D01*
X132928571Y-67513571D01*
X134071428Y-67513571D01*
X129357142Y-68942142D02*
X130357142Y-67513571D01*
X131071428Y-68942142D02*
X131071428Y-65942142D01*
X129928571Y-65942142D01*
X129642857Y-66085000D01*
X129500000Y-66227857D01*
X129357142Y-66513571D01*
X129357142Y-66942142D01*
X129500000Y-67227857D01*
X129642857Y-67370714D01*
X129928571Y-67513571D01*
X131071428Y-67513571D01*
X127500000Y-65942142D02*
X126928571Y-65942142D01*
X126642857Y-66085000D01*
X126357142Y-66370714D01*
X126214285Y-66942142D01*
X126214285Y-67942142D01*
X126357142Y-68513571D01*
X126642857Y-68799285D01*
X126928571Y-68942142D01*
X127500000Y-68942142D01*
X127785714Y-68799285D01*
X128071428Y-68513571D01*
X128214285Y-67942142D01*
X128214285Y-66942142D01*
X128071428Y-66370714D01*
X127785714Y-66085000D01*
X127500000Y-65942142D01*
X124071428Y-65942142D02*
X124071428Y-68085000D01*
X124214285Y-68513571D01*
X124500000Y-68799285D01*
X124928571Y-68942142D01*
X125214285Y-68942142D01*
X122642857Y-67370714D02*
X121642857Y-67370714D01*
X121214285Y-68942142D02*
X122642857Y-68942142D01*
X122642857Y-65942142D01*
X121214285Y-65942142D01*
X118214285Y-68656428D02*
X118357142Y-68799285D01*
X118785714Y-68942142D01*
X119071428Y-68942142D01*
X119500000Y-68799285D01*
X119785714Y-68513571D01*
X119928571Y-68227857D01*
X120071428Y-67656428D01*
X120071428Y-67227857D01*
X119928571Y-66656428D01*
X119785714Y-66370714D01*
X119500000Y-66085000D01*
X119071428Y-65942142D01*
X118785714Y-65942142D01*
X118357142Y-66085000D01*
X118214285Y-66227857D01*
X117357142Y-65942142D02*
X115642857Y-65942142D01*
X116500000Y-68942142D02*
X116500000Y-65942142D01*
X112642857Y-65942142D02*
X111928571Y-68942142D01*
X111357142Y-66799285D01*
X110785714Y-68942142D01*
X110071428Y-65942142D01*
X109071428Y-68085000D02*
X107642857Y-68085000D01*
X109357142Y-68942142D02*
X108357142Y-65942142D01*
X107357142Y-68942142D01*
X106500000Y-68799285D02*
X106071428Y-68942142D01*
X105357142Y-68942142D01*
X105071428Y-68799285D01*
X104928571Y-68656428D01*
X104785714Y-68370714D01*
X104785714Y-68085000D01*
X104928571Y-67799285D01*
X105071428Y-67656428D01*
X105357142Y-67513571D01*
X105928571Y-67370714D01*
X106214285Y-67227857D01*
X106357142Y-67085000D01*
X106500000Y-66799285D01*
X106500000Y-66513571D01*
X106357142Y-66227857D01*
X106214285Y-66085000D01*
X105928571Y-65942142D01*
X105214285Y-65942142D01*
X104785714Y-66085000D01*
X103642857Y-68799285D02*
X103214285Y-68942142D01*
X102500000Y-68942142D01*
X102214285Y-68799285D01*
X102071428Y-68656428D01*
X101928571Y-68370714D01*
X101928571Y-68085000D01*
X102071428Y-67799285D01*
X102214285Y-67656428D01*
X102500000Y-67513571D01*
X103071428Y-67370714D01*
X103357142Y-67227857D01*
X103500000Y-67085000D01*
X103642857Y-66799285D01*
X103642857Y-66513571D01*
X103500000Y-66227857D01*
X103357142Y-66085000D01*
X103071428Y-65942142D01*
X102357142Y-65942142D01*
X101928571Y-66085000D01*
X100642857Y-65942142D02*
X100642857Y-68370714D01*
X100500000Y-68656428D01*
X100357142Y-68799285D01*
X100071428Y-68942142D01*
X99500000Y-68942142D01*
X99214285Y-68799285D01*
X99071428Y-68656428D01*
X98928571Y-68370714D01*
X98928571Y-65942142D01*
X97500000Y-68942142D02*
X97500000Y-65942142D01*
X96357142Y-65942142D01*
X96071428Y-66085000D01*
X95928571Y-66227857D01*
X95785714Y-66513571D01*
X95785714Y-66942142D01*
X95928571Y-67227857D01*
X96071428Y-67370714D01*
X96357142Y-67513571D01*
X97500000Y-67513571D01*
X127500000Y-73772142D02*
X127500000Y-70772142D01*
X126357142Y-70772142D01*
X126071428Y-70915000D01*
X125928571Y-71057857D01*
X125785714Y-71343571D01*
X125785714Y-71772142D01*
X125928571Y-72057857D01*
X126071428Y-72200714D01*
X126357142Y-72343571D01*
X127500000Y-72343571D01*
X124785714Y-70772142D02*
X124071428Y-73772142D01*
X123500000Y-71629285D01*
X122928571Y-73772142D01*
X122214285Y-70772142D01*
X119357142Y-73772142D02*
X120357142Y-72343571D01*
X121071428Y-73772142D02*
X121071428Y-70772142D01*
X119928571Y-70772142D01*
X119642857Y-70915000D01*
X119500000Y-71057857D01*
X119357142Y-71343571D01*
X119357142Y-71772142D01*
X119500000Y-72057857D01*
X119642857Y-72200714D01*
X119928571Y-72343571D01*
X121071428Y-72343571D01*
X114785714Y-72200714D02*
X114357142Y-72343571D01*
X114214285Y-72486428D01*
X114071428Y-72772142D01*
X114071428Y-73200714D01*
X114214285Y-73486428D01*
X114357142Y-73629285D01*
X114642857Y-73772142D01*
X115785714Y-73772142D01*
X115785714Y-70772142D01*
X114785714Y-70772142D01*
X114500000Y-70915000D01*
X114357142Y-71057857D01*
X114214285Y-71343571D01*
X114214285Y-71629285D01*
X114357142Y-71915000D01*
X114500000Y-72057857D01*
X114785714Y-72200714D01*
X115785714Y-72200714D01*
X112214285Y-70772142D02*
X111642857Y-70772142D01*
X111357142Y-70915000D01*
X111071428Y-71200714D01*
X110928571Y-71772142D01*
X110928571Y-72772142D01*
X111071428Y-73343571D01*
X111357142Y-73629285D01*
X111642857Y-73772142D01*
X112214285Y-73772142D01*
X112500000Y-73629285D01*
X112785714Y-73343571D01*
X112928571Y-72772142D01*
X112928571Y-71772142D01*
X112785714Y-71200714D01*
X112500000Y-70915000D01*
X112214285Y-70772142D01*
X109785714Y-72915000D02*
X108357142Y-72915000D01*
X110071428Y-73772142D02*
X109071428Y-70772142D01*
X108071428Y-73772142D01*
X105357142Y-73772142D02*
X106357142Y-72343571D01*
X107071428Y-73772142D02*
X107071428Y-70772142D01*
X105928571Y-70772142D01*
X105642857Y-70915000D01*
X105500000Y-71057857D01*
X105357142Y-71343571D01*
X105357142Y-71772142D01*
X105500000Y-72057857D01*
X105642857Y-72200714D01*
X105928571Y-72343571D01*
X107071428Y-72343571D01*
X104071428Y-73772142D02*
X104071428Y-70772142D01*
X103357142Y-70772142D01*
X102928571Y-70915000D01*
X102642857Y-71200714D01*
X102500000Y-71486428D01*
X102357142Y-72057857D01*
X102357142Y-72486428D01*
X102500000Y-73057857D01*
X102642857Y-73343571D01*
X102928571Y-73629285D01*
X103357142Y-73772142D01*
X104071428Y-73772142D01*
X117428571Y-75602142D02*
X116428571Y-78602142D01*
X115428571Y-75602142D01*
X112857142Y-78602142D02*
X114571428Y-78602142D01*
X113714285Y-78602142D02*
X113714285Y-75602142D01*
X114000000Y-76030714D01*
X114285714Y-76316428D01*
X114571428Y-76459285D01*
D11*
X104000000Y-89261904D02*
X104047619Y-89357142D01*
X104047619Y-89500000D01*
X104000000Y-89642857D01*
X103904761Y-89738095D01*
X103809523Y-89785714D01*
X103619047Y-89833333D01*
X103476190Y-89833333D01*
X103285714Y-89785714D01*
X103190476Y-89738095D01*
X103095238Y-89642857D01*
X103047619Y-89500000D01*
X103047619Y-89404761D01*
X103095238Y-89261904D01*
X103142857Y-89214285D01*
X103476190Y-89214285D01*
X103476190Y-89404761D01*
X103047619Y-88785714D02*
X104047619Y-88785714D01*
X103047619Y-88214285D01*
X104047619Y-88214285D01*
X103047619Y-87738095D02*
X104047619Y-87738095D01*
X104047619Y-87500000D01*
X104000000Y-87357142D01*
X103904761Y-87261904D01*
X103809523Y-87214285D01*
X103619047Y-87166666D01*
X103476190Y-87166666D01*
X103285714Y-87214285D01*
X103190476Y-87261904D01*
X103095238Y-87357142D01*
X103047619Y-87500000D01*
X103047619Y-87738095D01*
X100021428Y-52087142D02*
X99973809Y-51944285D01*
X99926190Y-51896666D01*
X99830952Y-51849047D01*
X99688095Y-51849047D01*
X99592857Y-51896666D01*
X99545238Y-51944285D01*
X99497619Y-52039523D01*
X99497619Y-52420476D01*
X100497619Y-52420476D01*
X100497619Y-52087142D01*
X100450000Y-51991904D01*
X100402380Y-51944285D01*
X100307142Y-51896666D01*
X100211904Y-51896666D01*
X100116666Y-51944285D01*
X100069047Y-51991904D01*
X100021428Y-52087142D01*
X100021428Y-52420476D01*
X100497619Y-51420476D02*
X99688095Y-51420476D01*
X99592857Y-51372857D01*
X99545238Y-51325238D01*
X99497619Y-51230000D01*
X99497619Y-51039523D01*
X99545238Y-50944285D01*
X99592857Y-50896666D01*
X99688095Y-50849047D01*
X100497619Y-50849047D01*
X100497619Y-50468095D02*
X100497619Y-49801428D01*
X99497619Y-50468095D01*
X99497619Y-49801428D01*
X100497619Y-49515714D02*
X100497619Y-48849047D01*
X99497619Y-49515714D01*
X99497619Y-48849047D01*
X100021428Y-48468095D02*
X100021428Y-48134761D01*
X99497619Y-47991904D02*
X99497619Y-48468095D01*
X100497619Y-48468095D01*
X100497619Y-47991904D01*
X99497619Y-46991904D02*
X99973809Y-47325238D01*
X99497619Y-47563333D02*
X100497619Y-47563333D01*
X100497619Y-47182380D01*
X100450000Y-47087142D01*
X100402380Y-47039523D01*
X100307142Y-46991904D01*
X100164285Y-46991904D01*
X100069047Y-47039523D01*
X100021428Y-47087142D01*
X99973809Y-47182380D01*
X99973809Y-47563333D01*
X115892857Y-88976190D02*
X115845238Y-89023809D01*
X115797619Y-89166666D01*
X115797619Y-89261904D01*
X115845238Y-89404761D01*
X115940476Y-89500000D01*
X116035714Y-89547619D01*
X116226190Y-89595238D01*
X116369047Y-89595238D01*
X116559523Y-89547619D01*
X116654761Y-89500000D01*
X116750000Y-89404761D01*
X116797619Y-89261904D01*
X116797619Y-89166666D01*
X116750000Y-89023809D01*
X116702380Y-88976190D01*
X116797619Y-88547619D02*
X115988095Y-88547619D01*
X115892857Y-88500000D01*
X115845238Y-88452380D01*
X115797619Y-88357142D01*
X115797619Y-88166666D01*
X115845238Y-88071428D01*
X115892857Y-88023809D01*
X115988095Y-87976190D01*
X116797619Y-87976190D01*
X115797619Y-86928571D02*
X116273809Y-87261904D01*
X115797619Y-87500000D02*
X116797619Y-87500000D01*
X116797619Y-87119047D01*
X116750000Y-87023809D01*
X116702380Y-86976190D01*
X116607142Y-86928571D01*
X116464285Y-86928571D01*
X116369047Y-86976190D01*
X116321428Y-87023809D01*
X116273809Y-87119047D01*
X116273809Y-87500000D01*
X115797619Y-85928571D02*
X116273809Y-86261904D01*
X115797619Y-86500000D02*
X116797619Y-86500000D01*
X116797619Y-86119047D01*
X116750000Y-86023809D01*
X116702380Y-85976190D01*
X116607142Y-85928571D01*
X116464285Y-85928571D01*
X116369047Y-85976190D01*
X116321428Y-86023809D01*
X116273809Y-86119047D01*
X116273809Y-86500000D01*
X115702380Y-85738095D02*
X115702380Y-84976190D01*
X116797619Y-84833333D02*
X116797619Y-84214285D01*
X116416666Y-84547619D01*
X116416666Y-84404761D01*
X116369047Y-84309523D01*
X116321428Y-84261904D01*
X116226190Y-84214285D01*
X115988095Y-84214285D01*
X115892857Y-84261904D01*
X115845238Y-84309523D01*
X115797619Y-84404761D01*
X115797619Y-84690476D01*
X115845238Y-84785714D01*
X115892857Y-84833333D01*
X116797619Y-83928571D02*
X115797619Y-83595238D01*
X116797619Y-83261904D01*
X116797619Y-83023809D02*
X116797619Y-82404761D01*
X116416666Y-82738095D01*
X116416666Y-82595238D01*
X116369047Y-82500000D01*
X116321428Y-82452380D01*
X116226190Y-82404761D01*
X115988095Y-82404761D01*
X115892857Y-82452380D01*
X115845238Y-82500000D01*
X115797619Y-82595238D01*
X115797619Y-82880952D01*
X115845238Y-82976190D01*
X115892857Y-83023809D01*
X114619047Y-37428571D02*
X114476190Y-37476190D01*
X114428571Y-37523809D01*
X114380952Y-37619047D01*
X114380952Y-37761904D01*
X114428571Y-37857142D01*
X114476190Y-37904761D01*
X114571428Y-37952380D01*
X114952380Y-37952380D01*
X114952380Y-36952380D01*
X114619047Y-36952380D01*
X114523809Y-37000000D01*
X114476190Y-37047619D01*
X114428571Y-37142857D01*
X114428571Y-37238095D01*
X114476190Y-37333333D01*
X114523809Y-37380952D01*
X114619047Y-37428571D01*
X114952380Y-37428571D01*
X114000000Y-37666666D02*
X113523809Y-37666666D01*
X114095238Y-37952380D02*
X113761904Y-36952380D01*
X113428571Y-37952380D01*
X113238095Y-36952380D02*
X112666666Y-36952380D01*
X112952380Y-37952380D02*
X112952380Y-36952380D01*
X112476190Y-36952380D02*
X111904761Y-36952380D01*
X112190476Y-37952380D02*
X112190476Y-36952380D01*
X137357142Y-37428571D02*
X137214285Y-37476190D01*
X137166666Y-37523809D01*
X137119047Y-37619047D01*
X137119047Y-37761904D01*
X137166666Y-37857142D01*
X137214285Y-37904761D01*
X137309523Y-37952380D01*
X137690476Y-37952380D01*
X137690476Y-36952380D01*
X137357142Y-36952380D01*
X137261904Y-37000000D01*
X137214285Y-37047619D01*
X137166666Y-37142857D01*
X137166666Y-37238095D01*
X137214285Y-37333333D01*
X137261904Y-37380952D01*
X137357142Y-37428571D01*
X137690476Y-37428571D01*
X136690476Y-36952380D02*
X136690476Y-37761904D01*
X136642857Y-37857142D01*
X136595238Y-37904761D01*
X136500000Y-37952380D01*
X136309523Y-37952380D01*
X136214285Y-37904761D01*
X136166666Y-37857142D01*
X136119047Y-37761904D01*
X136119047Y-36952380D01*
X135738095Y-36952380D02*
X135071428Y-36952380D01*
X135738095Y-37952380D01*
X135071428Y-37952380D01*
X134785714Y-36952380D02*
X134119047Y-36952380D01*
X134785714Y-37952380D01*
X134119047Y-37952380D01*
X133738095Y-37428571D02*
X133404761Y-37428571D01*
X133261904Y-37952380D02*
X133738095Y-37952380D01*
X133738095Y-36952380D01*
X133261904Y-36952380D01*
X132261904Y-37952380D02*
X132595238Y-37476190D01*
X132833333Y-37952380D02*
X132833333Y-36952380D01*
X132452380Y-36952380D01*
X132357142Y-37000000D01*
X132309523Y-37047619D01*
X132261904Y-37142857D01*
X132261904Y-37285714D01*
X132309523Y-37380952D01*
X132357142Y-37428571D01*
X132452380Y-37476190D01*
X132833333Y-37476190D01*
X113047619Y-46333333D02*
X112047619Y-46000000D01*
X113047619Y-45666666D01*
X112047619Y-45333333D02*
X113047619Y-45333333D01*
X113047619Y-45095238D01*
X113000000Y-44952380D01*
X112904761Y-44857142D01*
X112809523Y-44809523D01*
X112619047Y-44761904D01*
X112476190Y-44761904D01*
X112285714Y-44809523D01*
X112190476Y-44857142D01*
X112095238Y-44952380D01*
X112047619Y-45095238D01*
X112047619Y-45333333D01*
X112047619Y-44333333D02*
X113047619Y-44333333D01*
X113047619Y-44095238D01*
X113000000Y-43952380D01*
X112904761Y-43857142D01*
X112809523Y-43809523D01*
X112619047Y-43761904D01*
X112476190Y-43761904D01*
X112285714Y-43809523D01*
X112190476Y-43857142D01*
X112095238Y-43952380D01*
X112047619Y-44095238D01*
X112047619Y-44333333D01*
X127428571Y-37428571D02*
X127285714Y-37476190D01*
X127238095Y-37523809D01*
X127190476Y-37619047D01*
X127190476Y-37761904D01*
X127238095Y-37857142D01*
X127285714Y-37904761D01*
X127380952Y-37952380D01*
X127761904Y-37952380D01*
X127761904Y-36952380D01*
X127428571Y-36952380D01*
X127333333Y-37000000D01*
X127285714Y-37047619D01*
X127238095Y-37142857D01*
X127238095Y-37238095D01*
X127285714Y-37333333D01*
X127333333Y-37380952D01*
X127428571Y-37428571D01*
X127761904Y-37428571D01*
X126761904Y-36952380D02*
X126761904Y-37761904D01*
X126714285Y-37857142D01*
X126666666Y-37904761D01*
X126571428Y-37952380D01*
X126380952Y-37952380D01*
X126285714Y-37904761D01*
X126238095Y-37857142D01*
X126190476Y-37761904D01*
X126190476Y-36952380D01*
X125142857Y-37952380D02*
X125476190Y-37476190D01*
X125714285Y-37952380D02*
X125714285Y-36952380D01*
X125333333Y-36952380D01*
X125238095Y-37000000D01*
X125190476Y-37047619D01*
X125142857Y-37142857D01*
X125142857Y-37285714D01*
X125190476Y-37380952D01*
X125238095Y-37428571D01*
X125333333Y-37476190D01*
X125714285Y-37476190D01*
X124714285Y-37952380D02*
X124714285Y-36952380D01*
X124142857Y-37952380D01*
X124142857Y-36952380D01*
X123666666Y-37428571D02*
X123333333Y-37428571D01*
X123190476Y-37952380D02*
X123666666Y-37952380D01*
X123666666Y-36952380D01*
X123190476Y-36952380D01*
X122190476Y-37952380D02*
X122523809Y-37476190D01*
X122761904Y-37952380D02*
X122761904Y-36952380D01*
X122380952Y-36952380D01*
X122285714Y-37000000D01*
X122238095Y-37047619D01*
X122190476Y-37142857D01*
X122190476Y-37285714D01*
X122238095Y-37380952D01*
X122285714Y-37428571D01*
X122380952Y-37476190D01*
X122761904Y-37476190D01*
X106214285Y-88988095D02*
X105547619Y-88988095D01*
X106595238Y-89226190D02*
X105880952Y-89464285D01*
X105880952Y-88845238D01*
X106547619Y-88607142D02*
X105547619Y-88273809D01*
X106547619Y-87940476D01*
X121321428Y-89357142D02*
X121273809Y-89214285D01*
X121226190Y-89166666D01*
X121130952Y-89119047D01*
X120988095Y-89119047D01*
X120892857Y-89166666D01*
X120845238Y-89214285D01*
X120797619Y-89309523D01*
X120797619Y-89690476D01*
X121797619Y-89690476D01*
X121797619Y-89357142D01*
X121750000Y-89261904D01*
X121702380Y-89214285D01*
X121607142Y-89166666D01*
X121511904Y-89166666D01*
X121416666Y-89214285D01*
X121369047Y-89261904D01*
X121321428Y-89357142D01*
X121321428Y-89690476D01*
X121797619Y-88690476D02*
X120988095Y-88690476D01*
X120892857Y-88642857D01*
X120845238Y-88595238D01*
X120797619Y-88500000D01*
X120797619Y-88309523D01*
X120845238Y-88214285D01*
X120892857Y-88166666D01*
X120988095Y-88119047D01*
X121797619Y-88119047D01*
X121797619Y-87738095D02*
X121797619Y-87071428D01*
X120797619Y-87738095D01*
X120797619Y-87071428D01*
X121797619Y-86785714D02*
X121797619Y-86119047D01*
X120797619Y-86785714D01*
X120797619Y-86119047D01*
X121321428Y-85738095D02*
X121321428Y-85404761D01*
X120797619Y-85261904D02*
X120797619Y-85738095D01*
X121797619Y-85738095D01*
X121797619Y-85261904D01*
X120797619Y-84261904D02*
X121273809Y-84595238D01*
X120797619Y-84833333D02*
X121797619Y-84833333D01*
X121797619Y-84452380D01*
X121750000Y-84357142D01*
X121702380Y-84309523D01*
X121607142Y-84261904D01*
X121464285Y-84261904D01*
X121369047Y-84309523D01*
X121321428Y-84357142D01*
X121273809Y-84452380D01*
X121273809Y-84833333D01*
X92950000Y-49141904D02*
X92997619Y-49237142D01*
X92997619Y-49380000D01*
X92950000Y-49522857D01*
X92854761Y-49618095D01*
X92759523Y-49665714D01*
X92569047Y-49713333D01*
X92426190Y-49713333D01*
X92235714Y-49665714D01*
X92140476Y-49618095D01*
X92045238Y-49522857D01*
X91997619Y-49380000D01*
X91997619Y-49284761D01*
X92045238Y-49141904D01*
X92092857Y-49094285D01*
X92426190Y-49094285D01*
X92426190Y-49284761D01*
X91997619Y-48665714D02*
X92997619Y-48665714D01*
X91997619Y-48094285D01*
X92997619Y-48094285D01*
X91997619Y-47618095D02*
X92997619Y-47618095D01*
X92997619Y-47380000D01*
X92950000Y-47237142D01*
X92854761Y-47141904D01*
X92759523Y-47094285D01*
X92569047Y-47046666D01*
X92426190Y-47046666D01*
X92235714Y-47094285D01*
X92140476Y-47141904D01*
X92045238Y-47237142D01*
X91997619Y-47380000D01*
X91997619Y-47618095D01*
X118821428Y-89178571D02*
X118773809Y-89035714D01*
X118726190Y-88988095D01*
X118630952Y-88940476D01*
X118488095Y-88940476D01*
X118392857Y-88988095D01*
X118345238Y-89035714D01*
X118297619Y-89130952D01*
X118297619Y-89511904D01*
X119297619Y-89511904D01*
X119297619Y-89178571D01*
X119250000Y-89083333D01*
X119202380Y-89035714D01*
X119107142Y-88988095D01*
X119011904Y-88988095D01*
X118916666Y-89035714D01*
X118869047Y-89083333D01*
X118821428Y-89178571D01*
X118821428Y-89511904D01*
X119297619Y-88511904D02*
X118488095Y-88511904D01*
X118392857Y-88464285D01*
X118345238Y-88416666D01*
X118297619Y-88321428D01*
X118297619Y-88130952D01*
X118345238Y-88035714D01*
X118392857Y-87988095D01*
X118488095Y-87940476D01*
X119297619Y-87940476D01*
X118297619Y-86892857D02*
X118773809Y-87226190D01*
X118297619Y-87464285D02*
X119297619Y-87464285D01*
X119297619Y-87083333D01*
X119250000Y-86988095D01*
X119202380Y-86940476D01*
X119107142Y-86892857D01*
X118964285Y-86892857D01*
X118869047Y-86940476D01*
X118821428Y-86988095D01*
X118773809Y-87083333D01*
X118773809Y-87464285D01*
X118297619Y-86464285D02*
X119297619Y-86464285D01*
X118297619Y-85892857D01*
X119297619Y-85892857D01*
X118821428Y-85416666D02*
X118821428Y-85083333D01*
X118297619Y-84940476D02*
X118297619Y-85416666D01*
X119297619Y-85416666D01*
X119297619Y-84940476D01*
X118297619Y-83940476D02*
X118773809Y-84273809D01*
X118297619Y-84511904D02*
X119297619Y-84511904D01*
X119297619Y-84130952D01*
X119250000Y-84035714D01*
X119202380Y-83988095D01*
X119107142Y-83940476D01*
X118964285Y-83940476D01*
X118869047Y-83988095D01*
X118821428Y-84035714D01*
X118773809Y-84130952D01*
X118773809Y-84511904D01*
X95284285Y-48298095D02*
X94617619Y-48298095D01*
X95665238Y-48536190D02*
X94950952Y-48774285D01*
X94950952Y-48155238D01*
X95617619Y-47917142D02*
X94617619Y-47583809D01*
X95617619Y-47250476D01*
X124547619Y-89738095D02*
X124547619Y-89119047D01*
X124166666Y-89452380D01*
X124166666Y-89309523D01*
X124119047Y-89214285D01*
X124071428Y-89166666D01*
X123976190Y-89119047D01*
X123738095Y-89119047D01*
X123642857Y-89166666D01*
X123595238Y-89214285D01*
X123547619Y-89309523D01*
X123547619Y-89595238D01*
X123595238Y-89690476D01*
X123642857Y-89738095D01*
X124547619Y-88833333D02*
X123547619Y-88500000D01*
X124547619Y-88166666D01*
X124547619Y-87928571D02*
X124547619Y-87309523D01*
X124166666Y-87642857D01*
X124166666Y-87500000D01*
X124119047Y-87404761D01*
X124071428Y-87357142D01*
X123976190Y-87309523D01*
X123738095Y-87309523D01*
X123642857Y-87357142D01*
X123595238Y-87404761D01*
X123547619Y-87500000D01*
X123547619Y-87785714D01*
X123595238Y-87880952D01*
X123642857Y-87928571D01*
X127000000Y-89261904D02*
X127047619Y-89357142D01*
X127047619Y-89500000D01*
X127000000Y-89642857D01*
X126904761Y-89738095D01*
X126809523Y-89785714D01*
X126619047Y-89833333D01*
X126476190Y-89833333D01*
X126285714Y-89785714D01*
X126190476Y-89738095D01*
X126095238Y-89642857D01*
X126047619Y-89500000D01*
X126047619Y-89404761D01*
X126095238Y-89261904D01*
X126142857Y-89214285D01*
X126476190Y-89214285D01*
X126476190Y-89404761D01*
X126047619Y-88785714D02*
X127047619Y-88785714D01*
X126047619Y-88214285D01*
X127047619Y-88214285D01*
X126047619Y-87738095D02*
X127047619Y-87738095D01*
X127047619Y-87500000D01*
X127000000Y-87357142D01*
X126904761Y-87261904D01*
X126809523Y-87214285D01*
X126619047Y-87166666D01*
X126476190Y-87166666D01*
X126285714Y-87214285D01*
X126190476Y-87261904D01*
X126095238Y-87357142D01*
X126047619Y-87500000D01*
X126047619Y-87738095D01*
X98007619Y-49458095D02*
X98007619Y-48839047D01*
X97626666Y-49172380D01*
X97626666Y-49029523D01*
X97579047Y-48934285D01*
X97531428Y-48886666D01*
X97436190Y-48839047D01*
X97198095Y-48839047D01*
X97102857Y-48886666D01*
X97055238Y-48934285D01*
X97007619Y-49029523D01*
X97007619Y-49315238D01*
X97055238Y-49410476D01*
X97102857Y-49458095D01*
X98007619Y-48553333D02*
X97007619Y-48220000D01*
X98007619Y-47886666D01*
X98007619Y-47648571D02*
X98007619Y-47029523D01*
X97626666Y-47362857D01*
X97626666Y-47220000D01*
X97579047Y-47124761D01*
X97531428Y-47077142D01*
X97436190Y-47029523D01*
X97198095Y-47029523D01*
X97102857Y-47077142D01*
X97055238Y-47124761D01*
X97007619Y-47220000D01*
X97007619Y-47505714D01*
X97055238Y-47600952D01*
X97102857Y-47648571D01*
X111797619Y-89654761D02*
X110797619Y-89321428D01*
X111797619Y-88988095D01*
X111797619Y-88464285D02*
X111797619Y-88273809D01*
X111750000Y-88178571D01*
X111654761Y-88083333D01*
X111464285Y-88035714D01*
X111130952Y-88035714D01*
X110940476Y-88083333D01*
X110845238Y-88178571D01*
X110797619Y-88273809D01*
X110797619Y-88464285D01*
X110845238Y-88559523D01*
X110940476Y-88654761D01*
X111130952Y-88702380D01*
X111464285Y-88702380D01*
X111654761Y-88654761D01*
X111750000Y-88559523D01*
X111797619Y-88464285D01*
X110797619Y-87130952D02*
X110797619Y-87607142D01*
X111797619Y-87607142D01*
X111797619Y-86940476D02*
X111797619Y-86369047D01*
X110797619Y-86654761D02*
X111797619Y-86654761D01*
X110702380Y-86273809D02*
X110702380Y-85511904D01*
X110845238Y-85321428D02*
X110797619Y-85178571D01*
X110797619Y-84940476D01*
X110845238Y-84845238D01*
X110892857Y-84797619D01*
X110988095Y-84750000D01*
X111083333Y-84750000D01*
X111178571Y-84797619D01*
X111226190Y-84845238D01*
X111273809Y-84940476D01*
X111321428Y-85130952D01*
X111369047Y-85226190D01*
X111416666Y-85273809D01*
X111511904Y-85321428D01*
X111607142Y-85321428D01*
X111702380Y-85273809D01*
X111750000Y-85226190D01*
X111797619Y-85130952D01*
X111797619Y-84892857D01*
X111750000Y-84750000D01*
X111321428Y-84321428D02*
X111321428Y-83988095D01*
X110797619Y-83845238D02*
X110797619Y-84321428D01*
X111797619Y-84321428D01*
X111797619Y-83845238D01*
X110797619Y-83416666D02*
X111797619Y-83416666D01*
X110797619Y-82845238D01*
X111797619Y-82845238D01*
X110845238Y-82416666D02*
X110797619Y-82273809D01*
X110797619Y-82035714D01*
X110845238Y-81940476D01*
X110892857Y-81892857D01*
X110988095Y-81845238D01*
X111083333Y-81845238D01*
X111178571Y-81892857D01*
X111226190Y-81940476D01*
X111273809Y-82035714D01*
X111321428Y-82226190D01*
X111369047Y-82321428D01*
X111416666Y-82369047D01*
X111511904Y-82416666D01*
X111607142Y-82416666D01*
X111702380Y-82369047D01*
X111750000Y-82321428D01*
X111797619Y-82226190D01*
X111797619Y-81988095D01*
X111750000Y-81845238D01*
X111321428Y-81416666D02*
X111321428Y-81083333D01*
X110797619Y-80940476D02*
X110797619Y-81416666D01*
X111797619Y-81416666D01*
X111797619Y-80940476D01*
X102581428Y-52308571D02*
X102533809Y-52165714D01*
X102486190Y-52118095D01*
X102390952Y-52070476D01*
X102248095Y-52070476D01*
X102152857Y-52118095D01*
X102105238Y-52165714D01*
X102057619Y-52260952D01*
X102057619Y-52641904D01*
X103057619Y-52641904D01*
X103057619Y-52308571D01*
X103010000Y-52213333D01*
X102962380Y-52165714D01*
X102867142Y-52118095D01*
X102771904Y-52118095D01*
X102676666Y-52165714D01*
X102629047Y-52213333D01*
X102581428Y-52308571D01*
X102581428Y-52641904D01*
X103057619Y-51641904D02*
X102248095Y-51641904D01*
X102152857Y-51594285D01*
X102105238Y-51546666D01*
X102057619Y-51451428D01*
X102057619Y-51260952D01*
X102105238Y-51165714D01*
X102152857Y-51118095D01*
X102248095Y-51070476D01*
X103057619Y-51070476D01*
X102057619Y-50022857D02*
X102533809Y-50356190D01*
X102057619Y-50594285D02*
X103057619Y-50594285D01*
X103057619Y-50213333D01*
X103010000Y-50118095D01*
X102962380Y-50070476D01*
X102867142Y-50022857D01*
X102724285Y-50022857D01*
X102629047Y-50070476D01*
X102581428Y-50118095D01*
X102533809Y-50213333D01*
X102533809Y-50594285D01*
X102057619Y-49594285D02*
X103057619Y-49594285D01*
X102057619Y-49022857D01*
X103057619Y-49022857D01*
X102581428Y-48546666D02*
X102581428Y-48213333D01*
X102057619Y-48070476D02*
X102057619Y-48546666D01*
X103057619Y-48546666D01*
X103057619Y-48070476D01*
X102057619Y-47070476D02*
X102533809Y-47403809D01*
X102057619Y-47641904D02*
X103057619Y-47641904D01*
X103057619Y-47260952D01*
X103010000Y-47165714D01*
X102962380Y-47118095D01*
X102867142Y-47070476D01*
X102724285Y-47070476D01*
X102629047Y-47118095D01*
X102581428Y-47165714D01*
X102533809Y-47260952D01*
X102533809Y-47641904D01*
X113392857Y-89000000D02*
X113345238Y-89047619D01*
X113297619Y-89190476D01*
X113297619Y-89285714D01*
X113345238Y-89428571D01*
X113440476Y-89523809D01*
X113535714Y-89571428D01*
X113726190Y-89619047D01*
X113869047Y-89619047D01*
X114059523Y-89571428D01*
X114154761Y-89523809D01*
X114250000Y-89428571D01*
X114297619Y-89285714D01*
X114297619Y-89190476D01*
X114250000Y-89047619D01*
X114202380Y-89000000D01*
X114297619Y-88571428D02*
X113488095Y-88571428D01*
X113392857Y-88523809D01*
X113345238Y-88476190D01*
X113297619Y-88380952D01*
X113297619Y-88190476D01*
X113345238Y-88095238D01*
X113392857Y-88047619D01*
X113488095Y-88000000D01*
X114297619Y-88000000D01*
X113297619Y-86952380D02*
X113773809Y-87285714D01*
X113297619Y-87523809D02*
X114297619Y-87523809D01*
X114297619Y-87142857D01*
X114250000Y-87047619D01*
X114202380Y-87000000D01*
X114107142Y-86952380D01*
X113964285Y-86952380D01*
X113869047Y-87000000D01*
X113821428Y-87047619D01*
X113773809Y-87142857D01*
X113773809Y-87523809D01*
X113297619Y-85952380D02*
X113773809Y-86285714D01*
X113297619Y-86523809D02*
X114297619Y-86523809D01*
X114297619Y-86142857D01*
X114250000Y-86047619D01*
X114202380Y-86000000D01*
X114107142Y-85952380D01*
X113964285Y-85952380D01*
X113869047Y-86000000D01*
X113821428Y-86047619D01*
X113773809Y-86142857D01*
X113773809Y-86523809D01*
X113202380Y-85761904D02*
X113202380Y-85000000D01*
X114297619Y-84904761D02*
X113297619Y-84571428D01*
X114297619Y-84238095D01*
X113964285Y-83476190D02*
X113297619Y-83476190D01*
X114345238Y-83714285D02*
X113630952Y-83952380D01*
X113630952Y-83333333D01*
X115500000Y-45761904D02*
X115547619Y-45857142D01*
X115547619Y-46000000D01*
X115500000Y-46142857D01*
X115404761Y-46238095D01*
X115309523Y-46285714D01*
X115119047Y-46333333D01*
X114976190Y-46333333D01*
X114785714Y-46285714D01*
X114690476Y-46238095D01*
X114595238Y-46142857D01*
X114547619Y-46000000D01*
X114547619Y-45904761D01*
X114595238Y-45761904D01*
X114642857Y-45714285D01*
X114976190Y-45714285D01*
X114976190Y-45904761D01*
X114547619Y-45285714D02*
X115547619Y-45285714D01*
X114547619Y-44714285D01*
X115547619Y-44714285D01*
X114547619Y-44238095D02*
X115547619Y-44238095D01*
X115547619Y-44000000D01*
X115500000Y-43857142D01*
X115404761Y-43761904D01*
X115309523Y-43714285D01*
X115119047Y-43666666D01*
X114976190Y-43666666D01*
X114785714Y-43714285D01*
X114690476Y-43761904D01*
X114595238Y-43857142D01*
X114547619Y-44000000D01*
X114547619Y-44238095D01*
X105937619Y-50083333D02*
X104937619Y-49750000D01*
X105937619Y-49416666D01*
X104937619Y-49083333D02*
X105937619Y-49083333D01*
X105937619Y-48845238D01*
X105890000Y-48702380D01*
X105794761Y-48607142D01*
X105699523Y-48559523D01*
X105509047Y-48511904D01*
X105366190Y-48511904D01*
X105175714Y-48559523D01*
X105080476Y-48607142D01*
X104985238Y-48702380D01*
X104937619Y-48845238D01*
X104937619Y-49083333D01*
X104937619Y-48083333D02*
X105937619Y-48083333D01*
X105937619Y-47845238D01*
X105890000Y-47702380D01*
X105794761Y-47607142D01*
X105699523Y-47559523D01*
X105509047Y-47511904D01*
X105366190Y-47511904D01*
X105175714Y-47559523D01*
X105080476Y-47607142D01*
X104985238Y-47702380D01*
X104937619Y-47845238D01*
X104937619Y-48083333D01*
M02*
